%TF.GenerationSoftware,KiCad,Pcbnew,5.1.10-88a1d61d58~88~ubuntu18.04.1*%
%TF.CreationDate,2021-08-09T12:07:12+05:30*%
%TF.ProjectId,dhadak,64686164-616b-42e6-9b69-6361645f7063,1*%
%TF.SameCoordinates,Original*%
%TF.FileFunction,Legend,Top*%
%TF.FilePolarity,Positive*%
%FSLAX46Y46*%
G04 Gerber Fmt 4.6, Leading zero omitted, Abs format (unit mm)*
G04 Created by KiCad (PCBNEW 5.1.10-88a1d61d58~88~ubuntu18.04.1) date 2021-08-09 12:07:12*
%MOMM*%
%LPD*%
G01*
G04 APERTURE LIST*
%ADD10C,0.130000*%
%ADD11C,0.110000*%
%ADD12C,0.400000*%
%ADD13C,0.120000*%
%ADD14C,0.010000*%
%ADD15C,0.150000*%
G04 APERTURE END LIST*
D10*
X143999000Y-113639523D02*
X143960904Y-113715714D01*
X143960904Y-113830000D01*
X143999000Y-113944285D01*
X144075190Y-114020476D01*
X144151380Y-114058571D01*
X144303761Y-114096666D01*
X144418047Y-114096666D01*
X144570428Y-114058571D01*
X144646619Y-114020476D01*
X144722809Y-113944285D01*
X144760904Y-113830000D01*
X144760904Y-113753809D01*
X144722809Y-113639523D01*
X144684714Y-113601428D01*
X144418047Y-113601428D01*
X144418047Y-113753809D01*
X144760904Y-113258571D02*
X143960904Y-113258571D01*
X144760904Y-112801428D01*
X143960904Y-112801428D01*
X144760904Y-112420476D02*
X143960904Y-112420476D01*
X143960904Y-112230000D01*
X143999000Y-112115714D01*
X144075190Y-112039523D01*
X144151380Y-112001428D01*
X144303761Y-111963333D01*
X144418047Y-111963333D01*
X144570428Y-112001428D01*
X144646619Y-112039523D01*
X144722809Y-112115714D01*
X144760904Y-112230000D01*
X144760904Y-112420476D01*
X117710000Y-113639523D02*
X117671904Y-113715714D01*
X117671904Y-113830000D01*
X117710000Y-113944285D01*
X117786190Y-114020476D01*
X117862380Y-114058571D01*
X118014761Y-114096666D01*
X118129047Y-114096666D01*
X118281428Y-114058571D01*
X118357619Y-114020476D01*
X118433809Y-113944285D01*
X118471904Y-113830000D01*
X118471904Y-113753809D01*
X118433809Y-113639523D01*
X118395714Y-113601428D01*
X118129047Y-113601428D01*
X118129047Y-113753809D01*
X118471904Y-113258571D02*
X117671904Y-113258571D01*
X118471904Y-112801428D01*
X117671904Y-112801428D01*
X118471904Y-112420476D02*
X117671904Y-112420476D01*
X117671904Y-112230000D01*
X117710000Y-112115714D01*
X117786190Y-112039523D01*
X117862380Y-112001428D01*
X118014761Y-111963333D01*
X118129047Y-111963333D01*
X118281428Y-112001428D01*
X118357619Y-112039523D01*
X118433809Y-112115714D01*
X118471904Y-112230000D01*
X118471904Y-112420476D01*
X117671904Y-96494523D02*
X117671904Y-96037380D01*
X118471904Y-96265952D02*
X117671904Y-96265952D01*
X117671904Y-95846904D02*
X118471904Y-95313571D01*
X117671904Y-95313571D02*
X118471904Y-95846904D01*
X118471904Y-98812333D02*
X118090952Y-99079000D01*
X118471904Y-99269476D02*
X117671904Y-99269476D01*
X117671904Y-98964714D01*
X117710000Y-98888523D01*
X117748095Y-98850428D01*
X117824285Y-98812333D01*
X117938571Y-98812333D01*
X118014761Y-98850428D01*
X118052857Y-98888523D01*
X118090952Y-98964714D01*
X118090952Y-99269476D01*
X117671904Y-98545666D02*
X118471904Y-98012333D01*
X117671904Y-98012333D02*
X118471904Y-98545666D01*
X117710000Y-102082523D02*
X117671904Y-102158714D01*
X117671904Y-102273000D01*
X117710000Y-102387285D01*
X117786190Y-102463476D01*
X117862380Y-102501571D01*
X118014761Y-102539666D01*
X118129047Y-102539666D01*
X118281428Y-102501571D01*
X118357619Y-102463476D01*
X118433809Y-102387285D01*
X118471904Y-102273000D01*
X118471904Y-102196809D01*
X118433809Y-102082523D01*
X118395714Y-102044428D01*
X118129047Y-102044428D01*
X118129047Y-102196809D01*
X118471904Y-101701571D02*
X117671904Y-101701571D01*
X118471904Y-101244428D01*
X117671904Y-101244428D01*
X118471904Y-100863476D02*
X117671904Y-100863476D01*
X117671904Y-100673000D01*
X117710000Y-100558714D01*
X117786190Y-100482523D01*
X117862380Y-100444428D01*
X118014761Y-100406333D01*
X118129047Y-100406333D01*
X118281428Y-100444428D01*
X118357619Y-100482523D01*
X118433809Y-100558714D01*
X118471904Y-100673000D01*
X118471904Y-100863476D01*
D11*
X129406666Y-98275000D02*
X129406666Y-98841666D01*
X129373333Y-98908333D01*
X129340000Y-98941666D01*
X129273333Y-98975000D01*
X129173333Y-98975000D01*
X129106666Y-98941666D01*
X129406666Y-98708333D02*
X129340000Y-98741666D01*
X129206666Y-98741666D01*
X129140000Y-98708333D01*
X129106666Y-98675000D01*
X129073333Y-98608333D01*
X129073333Y-98408333D01*
X129106666Y-98341666D01*
X129140000Y-98308333D01*
X129206666Y-98275000D01*
X129340000Y-98275000D01*
X129406666Y-98308333D01*
X129740000Y-98741666D02*
X129740000Y-98275000D01*
X129740000Y-98041666D02*
X129706666Y-98075000D01*
X129740000Y-98108333D01*
X129773333Y-98075000D01*
X129740000Y-98041666D01*
X129740000Y-98108333D01*
X129973333Y-98275000D02*
X130240000Y-98275000D01*
X130073333Y-98041666D02*
X130073333Y-98641666D01*
X130106666Y-98708333D01*
X130173333Y-98741666D01*
X130240000Y-98741666D01*
X130473333Y-98741666D02*
X130473333Y-98041666D01*
X130773333Y-98741666D02*
X130773333Y-98375000D01*
X130740000Y-98308333D01*
X130673333Y-98275000D01*
X130573333Y-98275000D01*
X130506666Y-98308333D01*
X130473333Y-98341666D01*
X131406666Y-98275000D02*
X131406666Y-98741666D01*
X131106666Y-98275000D02*
X131106666Y-98641666D01*
X131140000Y-98708333D01*
X131206666Y-98741666D01*
X131306666Y-98741666D01*
X131373333Y-98708333D01*
X131406666Y-98675000D01*
X131740000Y-98741666D02*
X131740000Y-98041666D01*
X131740000Y-98308333D02*
X131806666Y-98275000D01*
X131940000Y-98275000D01*
X132006666Y-98308333D01*
X132040000Y-98341666D01*
X132073333Y-98408333D01*
X132073333Y-98608333D01*
X132040000Y-98675000D01*
X132006666Y-98708333D01*
X131940000Y-98741666D01*
X131806666Y-98741666D01*
X131740000Y-98708333D01*
X132373333Y-98675000D02*
X132406666Y-98708333D01*
X132373333Y-98741666D01*
X132340000Y-98708333D01*
X132373333Y-98675000D01*
X132373333Y-98741666D01*
X133006666Y-98708333D02*
X132940000Y-98741666D01*
X132806666Y-98741666D01*
X132740000Y-98708333D01*
X132706666Y-98675000D01*
X132673333Y-98608333D01*
X132673333Y-98408333D01*
X132706666Y-98341666D01*
X132740000Y-98308333D01*
X132806666Y-98275000D01*
X132940000Y-98275000D01*
X133006666Y-98308333D01*
X133406666Y-98741666D02*
X133340000Y-98708333D01*
X133306666Y-98675000D01*
X133273333Y-98608333D01*
X133273333Y-98408333D01*
X133306666Y-98341666D01*
X133340000Y-98308333D01*
X133406666Y-98275000D01*
X133506666Y-98275000D01*
X133573333Y-98308333D01*
X133606666Y-98341666D01*
X133640000Y-98408333D01*
X133640000Y-98608333D01*
X133606666Y-98675000D01*
X133573333Y-98708333D01*
X133506666Y-98741666D01*
X133406666Y-98741666D01*
X133940000Y-98741666D02*
X133940000Y-98275000D01*
X133940000Y-98341666D02*
X133973333Y-98308333D01*
X134040000Y-98275000D01*
X134140000Y-98275000D01*
X134206666Y-98308333D01*
X134240000Y-98375000D01*
X134240000Y-98741666D01*
X134240000Y-98375000D02*
X134273333Y-98308333D01*
X134340000Y-98275000D01*
X134440000Y-98275000D01*
X134506666Y-98308333D01*
X134540000Y-98375000D01*
X134540000Y-98741666D01*
X135373333Y-98008333D02*
X134773333Y-98908333D01*
X135540000Y-98275000D02*
X135706666Y-98741666D01*
X135873333Y-98275000D02*
X135706666Y-98741666D01*
X135640000Y-98908333D01*
X135606666Y-98941666D01*
X135540000Y-98975000D01*
X136106666Y-98708333D02*
X136173333Y-98741666D01*
X136306666Y-98741666D01*
X136373333Y-98708333D01*
X136406666Y-98641666D01*
X136406666Y-98608333D01*
X136373333Y-98541666D01*
X136306666Y-98508333D01*
X136206666Y-98508333D01*
X136140000Y-98475000D01*
X136106666Y-98408333D01*
X136106666Y-98375000D01*
X136140000Y-98308333D01*
X136206666Y-98275000D01*
X136306666Y-98275000D01*
X136373333Y-98308333D01*
X136706666Y-98741666D02*
X136706666Y-98041666D01*
X136773333Y-98475000D02*
X136973333Y-98741666D01*
X136973333Y-98275000D02*
X136706666Y-98541666D01*
X137573333Y-98741666D02*
X137573333Y-98375000D01*
X137540000Y-98308333D01*
X137473333Y-98275000D01*
X137340000Y-98275000D01*
X137273333Y-98308333D01*
X137573333Y-98708333D02*
X137506666Y-98741666D01*
X137340000Y-98741666D01*
X137273333Y-98708333D01*
X137240000Y-98641666D01*
X137240000Y-98575000D01*
X137273333Y-98508333D01*
X137340000Y-98475000D01*
X137506666Y-98475000D01*
X137573333Y-98441666D01*
X137906666Y-98741666D02*
X137906666Y-98041666D01*
X137906666Y-98308333D02*
X137973333Y-98275000D01*
X138106666Y-98275000D01*
X138173333Y-98308333D01*
X138206666Y-98341666D01*
X138240000Y-98408333D01*
X138240000Y-98608333D01*
X138206666Y-98675000D01*
X138173333Y-98708333D01*
X138106666Y-98741666D01*
X137973333Y-98741666D01*
X137906666Y-98708333D01*
X139040000Y-98008333D02*
X138440000Y-98908333D01*
X139573333Y-98741666D02*
X139573333Y-98041666D01*
X139573333Y-98708333D02*
X139506666Y-98741666D01*
X139373333Y-98741666D01*
X139306666Y-98708333D01*
X139273333Y-98675000D01*
X139240000Y-98608333D01*
X139240000Y-98408333D01*
X139273333Y-98341666D01*
X139306666Y-98308333D01*
X139373333Y-98275000D01*
X139506666Y-98275000D01*
X139573333Y-98308333D01*
X139906666Y-98741666D02*
X139906666Y-98041666D01*
X140206666Y-98741666D02*
X140206666Y-98375000D01*
X140173333Y-98308333D01*
X140106666Y-98275000D01*
X140006666Y-98275000D01*
X139940000Y-98308333D01*
X139906666Y-98341666D01*
X140840000Y-98741666D02*
X140840000Y-98375000D01*
X140806666Y-98308333D01*
X140740000Y-98275000D01*
X140606666Y-98275000D01*
X140540000Y-98308333D01*
X140840000Y-98708333D02*
X140773333Y-98741666D01*
X140606666Y-98741666D01*
X140540000Y-98708333D01*
X140506666Y-98641666D01*
X140506666Y-98575000D01*
X140540000Y-98508333D01*
X140606666Y-98475000D01*
X140773333Y-98475000D01*
X140840000Y-98441666D01*
X141473333Y-98741666D02*
X141473333Y-98041666D01*
X141473333Y-98708333D02*
X141406666Y-98741666D01*
X141273333Y-98741666D01*
X141206666Y-98708333D01*
X141173333Y-98675000D01*
X141140000Y-98608333D01*
X141140000Y-98408333D01*
X141173333Y-98341666D01*
X141206666Y-98308333D01*
X141273333Y-98275000D01*
X141406666Y-98275000D01*
X141473333Y-98308333D01*
X142106666Y-98741666D02*
X142106666Y-98375000D01*
X142073333Y-98308333D01*
X142006666Y-98275000D01*
X141873333Y-98275000D01*
X141806666Y-98308333D01*
X142106666Y-98708333D02*
X142040000Y-98741666D01*
X141873333Y-98741666D01*
X141806666Y-98708333D01*
X141773333Y-98641666D01*
X141773333Y-98575000D01*
X141806666Y-98508333D01*
X141873333Y-98475000D01*
X142040000Y-98475000D01*
X142106666Y-98441666D01*
X142440000Y-98741666D02*
X142440000Y-98041666D01*
X142506666Y-98475000D02*
X142706666Y-98741666D01*
X142706666Y-98275000D02*
X142440000Y-98541666D01*
X141740000Y-96116000D02*
X141906666Y-96582666D01*
X142073333Y-96116000D01*
X142306666Y-95949333D02*
X142340000Y-95916000D01*
X142406666Y-95882666D01*
X142573333Y-95882666D01*
X142640000Y-95916000D01*
X142673333Y-95949333D01*
X142706666Y-96016000D01*
X142706666Y-96082666D01*
X142673333Y-96182666D01*
X142273333Y-96582666D01*
X142706666Y-96582666D01*
X136579333Y-97598666D02*
X136179333Y-97598666D01*
X136379333Y-97598666D02*
X136379333Y-96898666D01*
X136312666Y-96998666D01*
X136246000Y-97065333D01*
X136179333Y-97098666D01*
X137012666Y-96898666D02*
X137079333Y-96898666D01*
X137146000Y-96932000D01*
X137179333Y-96965333D01*
X137212666Y-97032000D01*
X137246000Y-97165333D01*
X137246000Y-97332000D01*
X137212666Y-97465333D01*
X137179333Y-97532000D01*
X137146000Y-97565333D01*
X137079333Y-97598666D01*
X137012666Y-97598666D01*
X136946000Y-97565333D01*
X136912666Y-97532000D01*
X136879333Y-97465333D01*
X136846000Y-97332000D01*
X136846000Y-97165333D01*
X136879333Y-97032000D01*
X136912666Y-96965333D01*
X136946000Y-96932000D01*
X137012666Y-96898666D01*
X138046000Y-96865333D02*
X137446000Y-97765333D01*
X138412666Y-96898666D02*
X138479333Y-96898666D01*
X138546000Y-96932000D01*
X138579333Y-96965333D01*
X138612666Y-97032000D01*
X138646000Y-97165333D01*
X138646000Y-97332000D01*
X138612666Y-97465333D01*
X138579333Y-97532000D01*
X138546000Y-97565333D01*
X138479333Y-97598666D01*
X138412666Y-97598666D01*
X138346000Y-97565333D01*
X138312666Y-97532000D01*
X138279333Y-97465333D01*
X138246000Y-97332000D01*
X138246000Y-97165333D01*
X138279333Y-97032000D01*
X138312666Y-96965333D01*
X138346000Y-96932000D01*
X138412666Y-96898666D01*
X139046000Y-97198666D02*
X138979333Y-97165333D01*
X138946000Y-97132000D01*
X138912666Y-97065333D01*
X138912666Y-97032000D01*
X138946000Y-96965333D01*
X138979333Y-96932000D01*
X139046000Y-96898666D01*
X139179333Y-96898666D01*
X139246000Y-96932000D01*
X139279333Y-96965333D01*
X139312666Y-97032000D01*
X139312666Y-97065333D01*
X139279333Y-97132000D01*
X139246000Y-97165333D01*
X139179333Y-97198666D01*
X139046000Y-97198666D01*
X138979333Y-97232000D01*
X138946000Y-97265333D01*
X138912666Y-97332000D01*
X138912666Y-97465333D01*
X138946000Y-97532000D01*
X138979333Y-97565333D01*
X139046000Y-97598666D01*
X139179333Y-97598666D01*
X139246000Y-97565333D01*
X139279333Y-97532000D01*
X139312666Y-97465333D01*
X139312666Y-97332000D01*
X139279333Y-97265333D01*
X139246000Y-97232000D01*
X139179333Y-97198666D01*
X140112666Y-96865333D02*
X139512666Y-97765333D01*
X140312666Y-96965333D02*
X140346000Y-96932000D01*
X140412666Y-96898666D01*
X140579333Y-96898666D01*
X140646000Y-96932000D01*
X140679333Y-96965333D01*
X140712666Y-97032000D01*
X140712666Y-97098666D01*
X140679333Y-97198666D01*
X140279333Y-97598666D01*
X140712666Y-97598666D01*
X141146000Y-96898666D02*
X141212666Y-96898666D01*
X141279333Y-96932000D01*
X141312666Y-96965333D01*
X141346000Y-97032000D01*
X141379333Y-97165333D01*
X141379333Y-97332000D01*
X141346000Y-97465333D01*
X141312666Y-97532000D01*
X141279333Y-97565333D01*
X141212666Y-97598666D01*
X141146000Y-97598666D01*
X141079333Y-97565333D01*
X141046000Y-97532000D01*
X141012666Y-97465333D01*
X140979333Y-97332000D01*
X140979333Y-97165333D01*
X141012666Y-97032000D01*
X141046000Y-96965333D01*
X141079333Y-96932000D01*
X141146000Y-96898666D01*
X141646000Y-96965333D02*
X141679333Y-96932000D01*
X141746000Y-96898666D01*
X141912666Y-96898666D01*
X141979333Y-96932000D01*
X142012666Y-96965333D01*
X142046000Y-97032000D01*
X142046000Y-97098666D01*
X142012666Y-97198666D01*
X141612666Y-97598666D01*
X142046000Y-97598666D01*
X142712666Y-97598666D02*
X142312666Y-97598666D01*
X142512666Y-97598666D02*
X142512666Y-96898666D01*
X142446000Y-96998666D01*
X142379333Y-97065333D01*
X142312666Y-97098666D01*
D12*
X126925605Y-103378000D02*
G75*
G03*
X126925605Y-103378000I-52605J0D01*
G01*
D13*
%TO.C,C8*%
X121461200Y-119717452D02*
X121461200Y-119194948D01*
X119991200Y-119717452D02*
X119991200Y-119194948D01*
%TO.C,TP14*%
X142048000Y-112330000D02*
X143448000Y-112330000D01*
X142048000Y-113730000D02*
X142048000Y-112330000D01*
X143448000Y-113730000D02*
X142048000Y-113730000D01*
X143448000Y-112330000D02*
X143448000Y-113730000D01*
D14*
%TO.C,G\u002A\u002A\u002A*%
G36*
X130353450Y-93375818D02*
G01*
X130395489Y-93393653D01*
X130396773Y-93394240D01*
X130463243Y-93429971D01*
X130519537Y-93473532D01*
X130570909Y-93530158D01*
X130622611Y-93605085D01*
X130644371Y-93641031D01*
X130711370Y-93761051D01*
X130765887Y-93874085D01*
X130812423Y-93990570D01*
X130855475Y-94120942D01*
X130865089Y-94153077D01*
X130888832Y-94231227D01*
X130917880Y-94322921D01*
X130950782Y-94423930D01*
X130986086Y-94530022D01*
X131022344Y-94636966D01*
X131058104Y-94740531D01*
X131091916Y-94836485D01*
X131122328Y-94920599D01*
X131147892Y-94988640D01*
X131167156Y-95036377D01*
X131170478Y-95043896D01*
X131191461Y-95086568D01*
X131221563Y-95143207D01*
X131257315Y-95207759D01*
X131295249Y-95274172D01*
X131331896Y-95336391D01*
X131363787Y-95388364D01*
X131387455Y-95424037D01*
X131391161Y-95429028D01*
X131403601Y-95442618D01*
X131418395Y-95447675D01*
X131443190Y-95444489D01*
X131485631Y-95433350D01*
X131487966Y-95432698D01*
X131608441Y-95407975D01*
X131733504Y-95400828D01*
X131867698Y-95411416D01*
X132015563Y-95439898D01*
X132066852Y-95452908D01*
X132115623Y-95466496D01*
X132152379Y-95479551D01*
X132183576Y-95496076D01*
X132215675Y-95520075D01*
X132255133Y-95555550D01*
X132297141Y-95595658D01*
X132348829Y-95647680D01*
X132398354Y-95701501D01*
X132439432Y-95750076D01*
X132462105Y-95780599D01*
X132527531Y-95902216D01*
X132574571Y-96040863D01*
X132602662Y-96193641D01*
X132611244Y-96357651D01*
X132602631Y-96505095D01*
X132595537Y-96574189D01*
X132591936Y-96623848D01*
X132592159Y-96661189D01*
X132596539Y-96693326D01*
X132605409Y-96727374D01*
X132614355Y-96755804D01*
X132659694Y-96874734D01*
X132711150Y-96969209D01*
X132729058Y-96994579D01*
X132743742Y-97021465D01*
X132763675Y-97068295D01*
X132786633Y-97129342D01*
X132810394Y-97198878D01*
X132819857Y-97228526D01*
X132843668Y-97303937D01*
X132867291Y-97377315D01*
X132888414Y-97441572D01*
X132904725Y-97489620D01*
X132908533Y-97500367D01*
X132923369Y-97550380D01*
X132929266Y-97590455D01*
X132927714Y-97606563D01*
X132918807Y-97628230D01*
X132900355Y-97668774D01*
X132874724Y-97723132D01*
X132844282Y-97786244D01*
X132830864Y-97813671D01*
X132742963Y-97992582D01*
X132717851Y-97921370D01*
X132704456Y-97881913D01*
X132685478Y-97824068D01*
X132663237Y-97754990D01*
X132640052Y-97681834D01*
X132635173Y-97666281D01*
X132605191Y-97577500D01*
X132573265Y-97495035D01*
X132542404Y-97426311D01*
X132524164Y-97392229D01*
X132492406Y-97332679D01*
X132460053Y-97262438D01*
X132433993Y-97196482D01*
X132433512Y-97195105D01*
X132416443Y-97146253D01*
X132403080Y-97108401D01*
X132395552Y-97087564D01*
X132394671Y-97085370D01*
X132385034Y-97092831D01*
X132360266Y-97115183D01*
X132324425Y-97148702D01*
X132292698Y-97178949D01*
X132186901Y-97267887D01*
X132077999Y-97332792D01*
X131961693Y-97375262D01*
X131833687Y-97396900D01*
X131700016Y-97399717D01*
X131630525Y-97396417D01*
X131580369Y-97391468D01*
X131542148Y-97383476D01*
X131508460Y-97371046D01*
X131483505Y-97358900D01*
X131409972Y-97309729D01*
X131360045Y-97251351D01*
X131334642Y-97185229D01*
X131333552Y-97119988D01*
X131337538Y-97104399D01*
X131347784Y-97094319D01*
X131369768Y-97087888D01*
X131408968Y-97083250D01*
X131451685Y-97079922D01*
X131586324Y-97058538D01*
X131706277Y-97015304D01*
X131810677Y-96950791D01*
X131898660Y-96865569D01*
X131969357Y-96760210D01*
X131985487Y-96728136D01*
X132017823Y-96648624D01*
X132038779Y-96568156D01*
X132049971Y-96478297D01*
X132053031Y-96375631D01*
X132044596Y-96231270D01*
X132020228Y-96102939D01*
X131980521Y-95993661D01*
X131976415Y-95985263D01*
X131954977Y-95944678D01*
X131938234Y-95922927D01*
X131919760Y-95914532D01*
X131893125Y-95914015D01*
X131892843Y-95914029D01*
X131859440Y-95918659D01*
X131808900Y-95929160D01*
X131749685Y-95943684D01*
X131719053Y-95951993D01*
X131592268Y-95980289D01*
X131480655Y-95989967D01*
X131385323Y-95981124D01*
X131307379Y-95953858D01*
X131250093Y-95910603D01*
X131219046Y-95877555D01*
X131174944Y-95947500D01*
X131130843Y-96017445D01*
X131130843Y-97669684D01*
X130582737Y-97669684D01*
X130581841Y-96954474D01*
X130539558Y-97007947D01*
X130437820Y-97119398D01*
X130321228Y-97217296D01*
X130195671Y-97297321D01*
X130067041Y-97355156D01*
X130064990Y-97355877D01*
X130011911Y-97372764D01*
X129961136Y-97384373D01*
X129904314Y-97392017D01*
X129833094Y-97397008D01*
X129791673Y-97398833D01*
X129632174Y-97397535D01*
X129490370Y-97379770D01*
X129362123Y-97344506D01*
X129243298Y-97290712D01*
X129165291Y-97242697D01*
X129125416Y-97216284D01*
X129095208Y-97197792D01*
X129080298Y-97190636D01*
X129079687Y-97190798D01*
X129077148Y-97204793D01*
X129072051Y-97241129D01*
X129064944Y-97295590D01*
X129056378Y-97363961D01*
X129046902Y-97442027D01*
X129046855Y-97442421D01*
X129021209Y-97647780D01*
X128992861Y-97858319D01*
X128962320Y-98071092D01*
X128930092Y-98283153D01*
X128896686Y-98491558D01*
X128862610Y-98693360D01*
X128828370Y-98885614D01*
X128794476Y-99065375D01*
X128761434Y-99229697D01*
X128729752Y-99375635D01*
X128699939Y-99500244D01*
X128678127Y-99581368D01*
X128645214Y-99683282D01*
X128605534Y-99785628D01*
X128561365Y-99883966D01*
X128514984Y-99973861D01*
X128468669Y-100050875D01*
X128424697Y-100110571D01*
X128387969Y-100146609D01*
X128343100Y-100167140D01*
X128282745Y-100177113D01*
X128216572Y-100175038D01*
X128209843Y-100174085D01*
X128147660Y-100163119D01*
X128104815Y-100149803D01*
X128074012Y-100129468D01*
X128047951Y-100097443D01*
X128022039Y-100053905D01*
X127989298Y-99988137D01*
X127952882Y-99902915D01*
X127915168Y-99804827D01*
X127878533Y-99700462D01*
X127845355Y-99596409D01*
X127818010Y-99499255D01*
X127809414Y-99464549D01*
X127790120Y-99380819D01*
X127765932Y-99272416D01*
X127737185Y-99140887D01*
X127704215Y-98987780D01*
X127667355Y-98814642D01*
X127626942Y-98623020D01*
X127615346Y-98567752D01*
X127598869Y-98490369D01*
X127583892Y-98422346D01*
X127571379Y-98367881D01*
X127562296Y-98331171D01*
X127557606Y-98316414D01*
X127557585Y-98316391D01*
X127547596Y-98322689D01*
X127529753Y-98346034D01*
X127520338Y-98360797D01*
X127477658Y-98426988D01*
X127444152Y-98469333D01*
X127418981Y-98488777D01*
X127406278Y-98489432D01*
X127390223Y-98476858D01*
X127361014Y-98448192D01*
X127322819Y-98407710D01*
X127280306Y-98360255D01*
X127224467Y-98293076D01*
X127187206Y-98239334D01*
X127166670Y-98195222D01*
X127161006Y-98156931D01*
X127166475Y-98126199D01*
X127188404Y-98098397D01*
X127229412Y-98081875D01*
X127283697Y-98078119D01*
X127329092Y-98084456D01*
X127374475Y-98089850D01*
X127422408Y-98088198D01*
X127465539Y-98080753D01*
X127496518Y-98068769D01*
X127508000Y-98053949D01*
X127505084Y-98036338D01*
X127497152Y-97998398D01*
X127485434Y-97945797D01*
X127471869Y-97887220D01*
X127454439Y-97816206D01*
X127438808Y-97767221D01*
X127421050Y-97736176D01*
X127397237Y-97718986D01*
X127363442Y-97711562D01*
X127315739Y-97709817D01*
X127301396Y-97709789D01*
X127253074Y-97707207D01*
X127190926Y-97700388D01*
X127127266Y-97690722D01*
X127118451Y-97689131D01*
X126955479Y-97650467D01*
X126809907Y-97598477D01*
X126682956Y-97534195D01*
X126575848Y-97458658D01*
X126489803Y-97372903D01*
X126426042Y-97277964D01*
X126385786Y-97174878D01*
X126370257Y-97064680D01*
X126370113Y-97054189D01*
X126380699Y-96961098D01*
X126413657Y-96880922D01*
X126469840Y-96812426D01*
X126550101Y-96754369D01*
X126591395Y-96732705D01*
X126683324Y-96696007D01*
X126776378Y-96675419D01*
X126880340Y-96669070D01*
X126919978Y-96669825D01*
X127030753Y-96673737D01*
X126997310Y-96713842D01*
X126963032Y-96759528D01*
X126941919Y-96802425D01*
X126929702Y-96853414D01*
X126924093Y-96900406D01*
X126924679Y-97009462D01*
X126945078Y-97117489D01*
X126983131Y-97218318D01*
X127036680Y-97305781D01*
X127083942Y-97357307D01*
X127149369Y-97404973D01*
X127227899Y-97445134D01*
X127306666Y-97471484D01*
X127324185Y-97475055D01*
X127357157Y-97478902D01*
X127371475Y-97473453D01*
X127374316Y-97459133D01*
X127369722Y-97423617D01*
X127356448Y-97365680D01*
X127335259Y-97287916D01*
X127306919Y-97192918D01*
X127272192Y-97083279D01*
X127231844Y-96961593D01*
X127201924Y-96874263D01*
X127163995Y-96764506D01*
X127133656Y-96677039D01*
X127109298Y-96609044D01*
X127098495Y-96581295D01*
X127442592Y-96581295D01*
X127444001Y-96595391D01*
X127452925Y-96627158D01*
X127465202Y-96663390D01*
X127487657Y-96732273D01*
X127513187Y-96821886D01*
X127540366Y-96926607D01*
X127567769Y-97040809D01*
X127593970Y-97158870D01*
X127608250Y-97227869D01*
X127622451Y-97296558D01*
X127635882Y-97357991D01*
X127647202Y-97406266D01*
X127655069Y-97435478D01*
X127656191Y-97438730D01*
X127664812Y-97455107D01*
X127678512Y-97462891D01*
X127702642Y-97462109D01*
X127742550Y-97452789D01*
X127788737Y-97439411D01*
X127886305Y-97399192D01*
X127971390Y-97342160D01*
X128039164Y-97272170D01*
X128078126Y-97208474D01*
X128102366Y-97131900D01*
X128110603Y-97046966D01*
X128102735Y-96963804D01*
X128081293Y-96897800D01*
X128044749Y-96845028D01*
X127988144Y-96791293D01*
X127917487Y-96741567D01*
X127848286Y-96704996D01*
X127813990Y-96691320D01*
X127764739Y-96673924D01*
X127705792Y-96654413D01*
X127642410Y-96634390D01*
X127579855Y-96615460D01*
X127523386Y-96599227D01*
X127478265Y-96587294D01*
X127449751Y-96581266D01*
X127442592Y-96581295D01*
X127098495Y-96581295D01*
X127089312Y-96557708D01*
X127072088Y-96520214D01*
X127056019Y-96493747D01*
X127039493Y-96475491D01*
X127020903Y-96462631D01*
X126998638Y-96452352D01*
X126971091Y-96441837D01*
X126950162Y-96433771D01*
X126828400Y-96375404D01*
X126724206Y-96304831D01*
X126639980Y-96224224D01*
X126578123Y-96135749D01*
X126550048Y-96072158D01*
X126529049Y-95975478D01*
X126527454Y-95872297D01*
X126544051Y-95769675D01*
X126577630Y-95674674D01*
X126626982Y-95594356D01*
X126633214Y-95586846D01*
X126680636Y-95531445D01*
X126620857Y-95407433D01*
X126557917Y-95286474D01*
X126493066Y-95179767D01*
X126429563Y-95092553D01*
X126412824Y-95072747D01*
X126382264Y-95043396D01*
X126345006Y-95020453D01*
X126293019Y-94999462D01*
X126262837Y-94989515D01*
X126153474Y-94962334D01*
X126060794Y-94955341D01*
X125983939Y-94968546D01*
X125934745Y-94992658D01*
X125855441Y-95046549D01*
X125797046Y-95087494D01*
X125757835Y-95116776D01*
X125736081Y-95135680D01*
X125730000Y-95144945D01*
X125742372Y-95149999D01*
X125775510Y-95153917D01*
X125823452Y-95156131D01*
X125850316Y-95156421D01*
X125970632Y-95156421D01*
X125970632Y-97669684D01*
X125409158Y-97669684D01*
X125409158Y-97160941D01*
X125320507Y-97228889D01*
X125198166Y-97310065D01*
X125059025Y-97380556D01*
X124912329Y-97435710D01*
X124904926Y-97437992D01*
X124859420Y-97451236D01*
X124819237Y-97460796D01*
X124778466Y-97467293D01*
X124731195Y-97471346D01*
X124671512Y-97473575D01*
X124593506Y-97474599D01*
X124553579Y-97474820D01*
X124464571Y-97474822D01*
X124396486Y-97473602D01*
X124343521Y-97470656D01*
X124299870Y-97465475D01*
X124259731Y-97457554D01*
X124217298Y-97446386D01*
X124212685Y-97445065D01*
X124079778Y-97397922D01*
X123960666Y-97337818D01*
X123858331Y-97266902D01*
X123775756Y-97187325D01*
X123715923Y-97101234D01*
X123705017Y-97079272D01*
X123672703Y-96983829D01*
X123655534Y-96877325D01*
X123655247Y-96787567D01*
X124206000Y-96787567D01*
X124217780Y-96888159D01*
X124251758Y-96976269D01*
X124305891Y-97050698D01*
X124378139Y-97110246D01*
X124466460Y-97153715D01*
X124568812Y-97179905D01*
X124683152Y-97187617D01*
X124807440Y-97175651D01*
X124851730Y-97166858D01*
X124981601Y-97126552D01*
X125108660Y-97066165D01*
X125225970Y-96989785D01*
X125326594Y-96901503D01*
X125355398Y-96869938D01*
X125408986Y-96807421D01*
X125409072Y-96135350D01*
X125409158Y-95463278D01*
X125379079Y-95482714D01*
X125351163Y-95497378D01*
X125307790Y-95516590D01*
X125262106Y-95534746D01*
X125200227Y-95560585D01*
X125138907Y-95590697D01*
X125084060Y-95621709D01*
X125041599Y-95650247D01*
X125017436Y-95672936D01*
X125016016Y-95675159D01*
X124964654Y-95741893D01*
X124892328Y-95803612D01*
X124804781Y-95856564D01*
X124707758Y-95897001D01*
X124652526Y-95912526D01*
X124606446Y-95923682D01*
X124571919Y-95932922D01*
X124555971Y-95938359D01*
X124555731Y-95938550D01*
X124565369Y-95944368D01*
X124595086Y-95955993D01*
X124639414Y-95971358D01*
X124662618Y-95978925D01*
X124750624Y-96002275D01*
X124843984Y-96016424D01*
X124917869Y-96021901D01*
X125061579Y-96029155D01*
X125061579Y-96262072D01*
X124937922Y-96269771D01*
X124815689Y-96285685D01*
X124696923Y-96316744D01*
X124584520Y-96360897D01*
X124481377Y-96416094D01*
X124390394Y-96480286D01*
X124314467Y-96551421D01*
X124256495Y-96627451D01*
X124219375Y-96706326D01*
X124206006Y-96785994D01*
X124206000Y-96787567D01*
X123655247Y-96787567D01*
X123655196Y-96771801D01*
X123658222Y-96744952D01*
X123686811Y-96635568D01*
X123739821Y-96530099D01*
X123814972Y-96431088D01*
X123909983Y-96341075D01*
X124022573Y-96262602D01*
X124147781Y-96199340D01*
X124229930Y-96164632D01*
X124134413Y-96115273D01*
X124001748Y-96034880D01*
X123893046Y-95942973D01*
X123807884Y-95838993D01*
X123745834Y-95722382D01*
X123706473Y-95592582D01*
X123697697Y-95541966D01*
X123693440Y-95437158D01*
X124201347Y-95437158D01*
X124201701Y-95501032D01*
X124205246Y-95547402D01*
X124213574Y-95585452D01*
X124228279Y-95624368D01*
X124237271Y-95644329D01*
X124261430Y-95691626D01*
X124286535Y-95733164D01*
X124303694Y-95755876D01*
X124333000Y-95787251D01*
X124336939Y-95755595D01*
X124344213Y-95735061D01*
X124364197Y-95721044D01*
X124403567Y-95709058D01*
X124407663Y-95708074D01*
X124455859Y-95692840D01*
X124499789Y-95672850D01*
X124513745Y-95664228D01*
X124553042Y-95636246D01*
X124478231Y-95546728D01*
X124406214Y-95460678D01*
X124349359Y-95393258D01*
X124305745Y-95342527D01*
X124273453Y-95306547D01*
X124250563Y-95283378D01*
X124235154Y-95271080D01*
X124225308Y-95267714D01*
X124219104Y-95271340D01*
X124214623Y-95280018D01*
X124214508Y-95280304D01*
X124209115Y-95306504D01*
X124204701Y-95351668D01*
X124201916Y-95408022D01*
X124201347Y-95437158D01*
X123693440Y-95437158D01*
X123692637Y-95417416D01*
X123713170Y-95298480D01*
X123746874Y-95210720D01*
X123782274Y-95153074D01*
X123832599Y-95090285D01*
X123890918Y-95029586D01*
X123950300Y-94978207D01*
X124002447Y-94944071D01*
X124059056Y-94915191D01*
X124038090Y-94865358D01*
X124022381Y-94827932D01*
X124000871Y-94776574D01*
X123978060Y-94722028D01*
X123976773Y-94718948D01*
X123942505Y-94650160D01*
X123901445Y-94588297D01*
X123857488Y-94537754D01*
X123814529Y-94502926D01*
X123776463Y-94488207D01*
X123772107Y-94488000D01*
X123738595Y-94497545D01*
X123692071Y-94523722D01*
X123636900Y-94562844D01*
X123577449Y-94611223D01*
X123518083Y-94665172D01*
X123463167Y-94721004D01*
X123417068Y-94775031D01*
X123393888Y-94807451D01*
X123352919Y-94877120D01*
X123312907Y-94958481D01*
X123273404Y-95053084D01*
X123233962Y-95162478D01*
X123194131Y-95288214D01*
X123153462Y-95431842D01*
X123111507Y-95594911D01*
X123067817Y-95778972D01*
X123021942Y-95985574D01*
X122973434Y-96216268D01*
X122944345Y-96359579D01*
X122920092Y-96482645D01*
X122894969Y-96614077D01*
X122870208Y-96747163D01*
X122847036Y-96875189D01*
X122826685Y-96991445D01*
X122810383Y-97089218D01*
X122808418Y-97101526D01*
X122794112Y-97189937D01*
X122780579Y-97270145D01*
X122768537Y-97338156D01*
X122758705Y-97389977D01*
X122751802Y-97421615D01*
X122749471Y-97429053D01*
X122730964Y-97442871D01*
X122696059Y-97454518D01*
X122677882Y-97457927D01*
X122637614Y-97465217D01*
X122607797Y-97473290D01*
X122601033Y-97476310D01*
X122591295Y-97475433D01*
X122592468Y-97452335D01*
X122593423Y-97447435D01*
X122598308Y-97421118D01*
X122606566Y-97374044D01*
X122617226Y-97311842D01*
X122629321Y-97240138D01*
X122635718Y-97201789D01*
X122665668Y-97027589D01*
X122698910Y-96844900D01*
X122734545Y-96658066D01*
X122771671Y-96471431D01*
X122809388Y-96289340D01*
X122846796Y-96116137D01*
X122882993Y-95956165D01*
X122917080Y-95813769D01*
X122948156Y-95693293D01*
X122949362Y-95688853D01*
X122992374Y-95537878D01*
X123036066Y-95400572D01*
X123083382Y-95269038D01*
X123137266Y-95135382D01*
X123200663Y-94991705D01*
X123244384Y-94897633D01*
X123311949Y-94756042D01*
X123371203Y-94636157D01*
X123424147Y-94535018D01*
X123472783Y-94449661D01*
X123519112Y-94377125D01*
X123565137Y-94314450D01*
X123612858Y-94258673D01*
X123664278Y-94206833D01*
X123721397Y-94155968D01*
X123775745Y-94111432D01*
X123837569Y-94065251D01*
X123886410Y-94038518D01*
X123927667Y-94031267D01*
X123966743Y-94043532D01*
X124009036Y-94075346D01*
X124047153Y-94113144D01*
X124082773Y-94152972D01*
X124111488Y-94192101D01*
X124137447Y-94237541D01*
X124164796Y-94296304D01*
X124187527Y-94350434D01*
X124220983Y-94428927D01*
X124261300Y-94518739D01*
X124302852Y-94607543D01*
X124332650Y-94668474D01*
X124413211Y-94828895D01*
X124503474Y-94837819D01*
X124563550Y-94845041D01*
X124625010Y-94854433D01*
X124662615Y-94861515D01*
X124762460Y-94892941D01*
X124858504Y-94941670D01*
X124945169Y-95003642D01*
X125016882Y-95074798D01*
X125068064Y-95151078D01*
X125072274Y-95159763D01*
X125091494Y-95195572D01*
X125108765Y-95218600D01*
X125116406Y-95223263D01*
X125133975Y-95217269D01*
X125168852Y-95201209D01*
X125214950Y-95177965D01*
X125239995Y-95164717D01*
X125297987Y-95134909D01*
X125356283Y-95107160D01*
X125404649Y-95086284D01*
X125415843Y-95082026D01*
X125531334Y-95026313D01*
X125633750Y-94948203D01*
X125684299Y-94895266D01*
X125757446Y-94811136D01*
X125819640Y-94744082D01*
X125875637Y-94689542D01*
X125930192Y-94642956D01*
X125988062Y-94599762D01*
X126003997Y-94588690D01*
X126073252Y-94544531D01*
X126133234Y-94516023D01*
X126190650Y-94502391D01*
X126252205Y-94502862D01*
X126324604Y-94516660D01*
X126410551Y-94541731D01*
X126472560Y-94562179D01*
X126515650Y-94579092D01*
X126546582Y-94596377D01*
X126572115Y-94617944D01*
X126599012Y-94647700D01*
X126603914Y-94653505D01*
X126659197Y-94727504D01*
X126718589Y-94821373D01*
X126779007Y-94929231D01*
X126837369Y-95045196D01*
X126890591Y-95163388D01*
X126935592Y-95277924D01*
X126944572Y-95303474D01*
X126961659Y-95346928D01*
X126976940Y-95368892D01*
X126993796Y-95374108D01*
X126994913Y-95373994D01*
X127087438Y-95363135D01*
X127158856Y-95355486D01*
X127214575Y-95350811D01*
X127260002Y-95348872D01*
X127300544Y-95349435D01*
X127341610Y-95352263D01*
X127386599Y-95356896D01*
X127546806Y-95380656D01*
X127684034Y-95413536D01*
X127733602Y-95429691D01*
X127770971Y-95442167D01*
X127797785Y-95449608D01*
X127803786Y-95450526D01*
X127808483Y-95438059D01*
X127812278Y-95404254D01*
X127814744Y-95354507D01*
X127815474Y-95303474D01*
X127815474Y-95156421D01*
X128376948Y-95156421D01*
X128376948Y-95742151D01*
X128226553Y-95789078D01*
X128160832Y-95809488D01*
X128098719Y-95828605D01*
X128047975Y-95844051D01*
X128020262Y-95852317D01*
X127964365Y-95868629D01*
X127893262Y-95806401D01*
X127802276Y-95738376D01*
X127699322Y-95681086D01*
X127589347Y-95635871D01*
X127477301Y-95604073D01*
X127368132Y-95587030D01*
X127266788Y-95586083D01*
X127178219Y-95602572D01*
X127161817Y-95608332D01*
X127128920Y-95621465D01*
X127105276Y-95634238D01*
X127091122Y-95650045D01*
X127086696Y-95672281D01*
X127092233Y-95704339D01*
X127107970Y-95749615D01*
X127134144Y-95811503D01*
X127170992Y-95893396D01*
X127183629Y-95921199D01*
X127230469Y-96024240D01*
X127332471Y-96057476D01*
X127380631Y-96072427D01*
X127447638Y-96092212D01*
X127526496Y-96114816D01*
X127610206Y-96138224D01*
X127661737Y-96152327D01*
X127814824Y-96195027D01*
X127944656Y-96234056D01*
X128054267Y-96270602D01*
X128146695Y-96305855D01*
X128224974Y-96341003D01*
X128292142Y-96377234D01*
X128351233Y-96415737D01*
X128370264Y-96429738D01*
X128464697Y-96512436D01*
X128534448Y-96600163D01*
X128581534Y-96696590D01*
X128607976Y-96805386D01*
X128614553Y-96873764D01*
X128612760Y-97003683D01*
X128591770Y-97118066D01*
X128550016Y-97221479D01*
X128485931Y-97318489D01*
X128445884Y-97365091D01*
X128333884Y-97466772D01*
X128201254Y-97551578D01*
X128048181Y-97619412D01*
X127874852Y-97670178D01*
X127841589Y-97677480D01*
X127790211Y-97688456D01*
X127749982Y-97697483D01*
X127727172Y-97703135D01*
X127724333Y-97704130D01*
X127725177Y-97717861D01*
X127730815Y-97753997D01*
X127740507Y-97808788D01*
X127753512Y-97878480D01*
X127769087Y-97959324D01*
X127786493Y-98047567D01*
X127804987Y-98139457D01*
X127823828Y-98231243D01*
X127842275Y-98319173D01*
X127859586Y-98399496D01*
X127875021Y-98468459D01*
X127877333Y-98478474D01*
X127897225Y-98566056D01*
X127919888Y-98668854D01*
X127942931Y-98775851D01*
X127963964Y-98876030D01*
X127970168Y-98906263D01*
X128001769Y-99045037D01*
X128039887Y-99185514D01*
X128082564Y-99321772D01*
X128127847Y-99447891D01*
X128173780Y-99557949D01*
X128208695Y-99628641D01*
X128240799Y-99684646D01*
X128269116Y-99721754D01*
X128301024Y-99745364D01*
X128343898Y-99760874D01*
X128405117Y-99773683D01*
X128407473Y-99774111D01*
X128438392Y-99778326D01*
X128456860Y-99772865D01*
X128471260Y-99752279D01*
X128484160Y-99724252D01*
X128504484Y-99668514D01*
X128527394Y-99588101D01*
X128552550Y-99484916D01*
X128579609Y-99360860D01*
X128608231Y-99217834D01*
X128638076Y-99057741D01*
X128668802Y-98882481D01*
X128700069Y-98693958D01*
X128731535Y-98494072D01*
X128762860Y-98284726D01*
X128793703Y-98067820D01*
X128823723Y-97845257D01*
X128831062Y-97788938D01*
X128846696Y-97668572D01*
X128862018Y-97551490D01*
X128876516Y-97441534D01*
X128889680Y-97342545D01*
X128900999Y-97258364D01*
X128909962Y-97192834D01*
X128916058Y-97149794D01*
X128916273Y-97148339D01*
X128934756Y-97023484D01*
X128884841Y-96925883D01*
X128828488Y-96787441D01*
X128793386Y-96636410D01*
X128779706Y-96476640D01*
X128785218Y-96361857D01*
X129339474Y-96361857D01*
X129347773Y-96521696D01*
X129372187Y-96665479D01*
X129411995Y-96791994D01*
X129466472Y-96900028D01*
X129534897Y-96988368D01*
X129616546Y-97055801D01*
X129710698Y-97101114D01*
X129791328Y-97120177D01*
X129838180Y-97125540D01*
X129877507Y-97127784D01*
X129894264Y-97127139D01*
X129924050Y-97122934D01*
X129966091Y-97117123D01*
X129980341Y-97115175D01*
X130046169Y-97097352D01*
X130121153Y-97062605D01*
X130197869Y-97014983D01*
X130268891Y-96958538D01*
X130270996Y-96956623D01*
X130333223Y-96890549D01*
X130397370Y-96806314D01*
X130458352Y-96711563D01*
X130511085Y-96613940D01*
X130536626Y-96557230D01*
X130582248Y-96446474D01*
X130582493Y-95801447D01*
X130582737Y-95156421D01*
X130723106Y-95156421D01*
X130780728Y-95155662D01*
X130826888Y-95153610D01*
X130856061Y-95150602D01*
X130863474Y-95147864D01*
X130859307Y-95132765D01*
X130847880Y-95097308D01*
X130830806Y-95046356D01*
X130809697Y-94984774D01*
X130803289Y-94966308D01*
X130774773Y-94881563D01*
X130743979Y-94785531D01*
X130714982Y-94691135D01*
X130695475Y-94624273D01*
X130656311Y-94494319D01*
X130615654Y-94380204D01*
X130569179Y-94271181D01*
X130512562Y-94156503D01*
X130490415Y-94114653D01*
X130429133Y-94010804D01*
X130369041Y-93931535D01*
X130307823Y-93874922D01*
X130243163Y-93839038D01*
X130172743Y-93821959D01*
X130135774Y-93819872D01*
X130075242Y-93824650D01*
X130021203Y-93840864D01*
X129972192Y-93870477D01*
X129926748Y-93915453D01*
X129883409Y-93977753D01*
X129840711Y-94059342D01*
X129797193Y-94162183D01*
X129751392Y-94288237D01*
X129722682Y-94374368D01*
X129688939Y-94477368D01*
X129649873Y-94595279D01*
X129608940Y-94717757D01*
X129569593Y-94834459D01*
X129541895Y-94915789D01*
X129511818Y-95005088D01*
X129482864Y-95093809D01*
X129456898Y-95176032D01*
X129435783Y-95245835D01*
X129421385Y-95297295D01*
X129419819Y-95303474D01*
X129406230Y-95357769D01*
X129394445Y-95403971D01*
X129386405Y-95434504D01*
X129384804Y-95440190D01*
X129382794Y-95453886D01*
X129392181Y-95456562D01*
X129418872Y-95448797D01*
X129430651Y-95444689D01*
X129540539Y-95416712D01*
X129665530Y-95402970D01*
X129798411Y-95402973D01*
X129931969Y-95416231D01*
X130058991Y-95442253D01*
X130172263Y-95480550D01*
X130208915Y-95497566D01*
X130299672Y-95555480D01*
X130372668Y-95626369D01*
X130426708Y-95706818D01*
X130460597Y-95793415D01*
X130473142Y-95882744D01*
X130463148Y-95971392D01*
X130429422Y-96055945D01*
X130413287Y-96081775D01*
X130358722Y-96140143D01*
X130284506Y-96189156D01*
X130196914Y-96225986D01*
X130102224Y-96247804D01*
X130034173Y-96252631D01*
X129958356Y-96252631D01*
X129950242Y-96095553D01*
X129938312Y-95959548D01*
X129917669Y-95848315D01*
X129888005Y-95761244D01*
X129849013Y-95697725D01*
X129800388Y-95657150D01*
X129741822Y-95638907D01*
X129719816Y-95637684D01*
X129649616Y-95650571D01*
X129583363Y-95687565D01*
X129522371Y-95746167D01*
X129467952Y-95823878D01*
X129421419Y-95918199D01*
X129384085Y-96026630D01*
X129357262Y-96146673D01*
X129342262Y-96275827D01*
X129339474Y-96361857D01*
X128785218Y-96361857D01*
X128787614Y-96311984D01*
X128817279Y-96146293D01*
X128846442Y-96045421D01*
X128899687Y-95914762D01*
X128969213Y-95797491D01*
X129059075Y-95687381D01*
X129118572Y-95627679D01*
X129163490Y-95583390D01*
X129200066Y-95543803D01*
X129224373Y-95513413D01*
X129232527Y-95497293D01*
X129236813Y-95477088D01*
X129249005Y-95434607D01*
X129268107Y-95372785D01*
X129293121Y-95294555D01*
X129323048Y-95202852D01*
X129356893Y-95100610D01*
X129393657Y-94990765D01*
X129432342Y-94876249D01*
X129471952Y-94759998D01*
X129511489Y-94644946D01*
X129549955Y-94534028D01*
X129586352Y-94430177D01*
X129619684Y-94336328D01*
X129648953Y-94255416D01*
X129673162Y-94190375D01*
X129691312Y-94144139D01*
X129697190Y-94130354D01*
X129734172Y-94050468D01*
X129777355Y-93962054D01*
X129824273Y-93869715D01*
X129872462Y-93778050D01*
X129919459Y-93691661D01*
X129962798Y-93615149D01*
X130000015Y-93553113D01*
X130028645Y-93510156D01*
X130031304Y-93506610D01*
X130077318Y-93451507D01*
X130119809Y-93415079D01*
X130167081Y-93392020D01*
X130227435Y-93377025D01*
X130236632Y-93375399D01*
X130285891Y-93368088D01*
X130320874Y-93367762D01*
X130353450Y-93375818D01*
G37*
X130353450Y-93375818D02*
X130395489Y-93393653D01*
X130396773Y-93394240D01*
X130463243Y-93429971D01*
X130519537Y-93473532D01*
X130570909Y-93530158D01*
X130622611Y-93605085D01*
X130644371Y-93641031D01*
X130711370Y-93761051D01*
X130765887Y-93874085D01*
X130812423Y-93990570D01*
X130855475Y-94120942D01*
X130865089Y-94153077D01*
X130888832Y-94231227D01*
X130917880Y-94322921D01*
X130950782Y-94423930D01*
X130986086Y-94530022D01*
X131022344Y-94636966D01*
X131058104Y-94740531D01*
X131091916Y-94836485D01*
X131122328Y-94920599D01*
X131147892Y-94988640D01*
X131167156Y-95036377D01*
X131170478Y-95043896D01*
X131191461Y-95086568D01*
X131221563Y-95143207D01*
X131257315Y-95207759D01*
X131295249Y-95274172D01*
X131331896Y-95336391D01*
X131363787Y-95388364D01*
X131387455Y-95424037D01*
X131391161Y-95429028D01*
X131403601Y-95442618D01*
X131418395Y-95447675D01*
X131443190Y-95444489D01*
X131485631Y-95433350D01*
X131487966Y-95432698D01*
X131608441Y-95407975D01*
X131733504Y-95400828D01*
X131867698Y-95411416D01*
X132015563Y-95439898D01*
X132066852Y-95452908D01*
X132115623Y-95466496D01*
X132152379Y-95479551D01*
X132183576Y-95496076D01*
X132215675Y-95520075D01*
X132255133Y-95555550D01*
X132297141Y-95595658D01*
X132348829Y-95647680D01*
X132398354Y-95701501D01*
X132439432Y-95750076D01*
X132462105Y-95780599D01*
X132527531Y-95902216D01*
X132574571Y-96040863D01*
X132602662Y-96193641D01*
X132611244Y-96357651D01*
X132602631Y-96505095D01*
X132595537Y-96574189D01*
X132591936Y-96623848D01*
X132592159Y-96661189D01*
X132596539Y-96693326D01*
X132605409Y-96727374D01*
X132614355Y-96755804D01*
X132659694Y-96874734D01*
X132711150Y-96969209D01*
X132729058Y-96994579D01*
X132743742Y-97021465D01*
X132763675Y-97068295D01*
X132786633Y-97129342D01*
X132810394Y-97198878D01*
X132819857Y-97228526D01*
X132843668Y-97303937D01*
X132867291Y-97377315D01*
X132888414Y-97441572D01*
X132904725Y-97489620D01*
X132908533Y-97500367D01*
X132923369Y-97550380D01*
X132929266Y-97590455D01*
X132927714Y-97606563D01*
X132918807Y-97628230D01*
X132900355Y-97668774D01*
X132874724Y-97723132D01*
X132844282Y-97786244D01*
X132830864Y-97813671D01*
X132742963Y-97992582D01*
X132717851Y-97921370D01*
X132704456Y-97881913D01*
X132685478Y-97824068D01*
X132663237Y-97754990D01*
X132640052Y-97681834D01*
X132635173Y-97666281D01*
X132605191Y-97577500D01*
X132573265Y-97495035D01*
X132542404Y-97426311D01*
X132524164Y-97392229D01*
X132492406Y-97332679D01*
X132460053Y-97262438D01*
X132433993Y-97196482D01*
X132433512Y-97195105D01*
X132416443Y-97146253D01*
X132403080Y-97108401D01*
X132395552Y-97087564D01*
X132394671Y-97085370D01*
X132385034Y-97092831D01*
X132360266Y-97115183D01*
X132324425Y-97148702D01*
X132292698Y-97178949D01*
X132186901Y-97267887D01*
X132077999Y-97332792D01*
X131961693Y-97375262D01*
X131833687Y-97396900D01*
X131700016Y-97399717D01*
X131630525Y-97396417D01*
X131580369Y-97391468D01*
X131542148Y-97383476D01*
X131508460Y-97371046D01*
X131483505Y-97358900D01*
X131409972Y-97309729D01*
X131360045Y-97251351D01*
X131334642Y-97185229D01*
X131333552Y-97119988D01*
X131337538Y-97104399D01*
X131347784Y-97094319D01*
X131369768Y-97087888D01*
X131408968Y-97083250D01*
X131451685Y-97079922D01*
X131586324Y-97058538D01*
X131706277Y-97015304D01*
X131810677Y-96950791D01*
X131898660Y-96865569D01*
X131969357Y-96760210D01*
X131985487Y-96728136D01*
X132017823Y-96648624D01*
X132038779Y-96568156D01*
X132049971Y-96478297D01*
X132053031Y-96375631D01*
X132044596Y-96231270D01*
X132020228Y-96102939D01*
X131980521Y-95993661D01*
X131976415Y-95985263D01*
X131954977Y-95944678D01*
X131938234Y-95922927D01*
X131919760Y-95914532D01*
X131893125Y-95914015D01*
X131892843Y-95914029D01*
X131859440Y-95918659D01*
X131808900Y-95929160D01*
X131749685Y-95943684D01*
X131719053Y-95951993D01*
X131592268Y-95980289D01*
X131480655Y-95989967D01*
X131385323Y-95981124D01*
X131307379Y-95953858D01*
X131250093Y-95910603D01*
X131219046Y-95877555D01*
X131174944Y-95947500D01*
X131130843Y-96017445D01*
X131130843Y-97669684D01*
X130582737Y-97669684D01*
X130581841Y-96954474D01*
X130539558Y-97007947D01*
X130437820Y-97119398D01*
X130321228Y-97217296D01*
X130195671Y-97297321D01*
X130067041Y-97355156D01*
X130064990Y-97355877D01*
X130011911Y-97372764D01*
X129961136Y-97384373D01*
X129904314Y-97392017D01*
X129833094Y-97397008D01*
X129791673Y-97398833D01*
X129632174Y-97397535D01*
X129490370Y-97379770D01*
X129362123Y-97344506D01*
X129243298Y-97290712D01*
X129165291Y-97242697D01*
X129125416Y-97216284D01*
X129095208Y-97197792D01*
X129080298Y-97190636D01*
X129079687Y-97190798D01*
X129077148Y-97204793D01*
X129072051Y-97241129D01*
X129064944Y-97295590D01*
X129056378Y-97363961D01*
X129046902Y-97442027D01*
X129046855Y-97442421D01*
X129021209Y-97647780D01*
X128992861Y-97858319D01*
X128962320Y-98071092D01*
X128930092Y-98283153D01*
X128896686Y-98491558D01*
X128862610Y-98693360D01*
X128828370Y-98885614D01*
X128794476Y-99065375D01*
X128761434Y-99229697D01*
X128729752Y-99375635D01*
X128699939Y-99500244D01*
X128678127Y-99581368D01*
X128645214Y-99683282D01*
X128605534Y-99785628D01*
X128561365Y-99883966D01*
X128514984Y-99973861D01*
X128468669Y-100050875D01*
X128424697Y-100110571D01*
X128387969Y-100146609D01*
X128343100Y-100167140D01*
X128282745Y-100177113D01*
X128216572Y-100175038D01*
X128209843Y-100174085D01*
X128147660Y-100163119D01*
X128104815Y-100149803D01*
X128074012Y-100129468D01*
X128047951Y-100097443D01*
X128022039Y-100053905D01*
X127989298Y-99988137D01*
X127952882Y-99902915D01*
X127915168Y-99804827D01*
X127878533Y-99700462D01*
X127845355Y-99596409D01*
X127818010Y-99499255D01*
X127809414Y-99464549D01*
X127790120Y-99380819D01*
X127765932Y-99272416D01*
X127737185Y-99140887D01*
X127704215Y-98987780D01*
X127667355Y-98814642D01*
X127626942Y-98623020D01*
X127615346Y-98567752D01*
X127598869Y-98490369D01*
X127583892Y-98422346D01*
X127571379Y-98367881D01*
X127562296Y-98331171D01*
X127557606Y-98316414D01*
X127557585Y-98316391D01*
X127547596Y-98322689D01*
X127529753Y-98346034D01*
X127520338Y-98360797D01*
X127477658Y-98426988D01*
X127444152Y-98469333D01*
X127418981Y-98488777D01*
X127406278Y-98489432D01*
X127390223Y-98476858D01*
X127361014Y-98448192D01*
X127322819Y-98407710D01*
X127280306Y-98360255D01*
X127224467Y-98293076D01*
X127187206Y-98239334D01*
X127166670Y-98195222D01*
X127161006Y-98156931D01*
X127166475Y-98126199D01*
X127188404Y-98098397D01*
X127229412Y-98081875D01*
X127283697Y-98078119D01*
X127329092Y-98084456D01*
X127374475Y-98089850D01*
X127422408Y-98088198D01*
X127465539Y-98080753D01*
X127496518Y-98068769D01*
X127508000Y-98053949D01*
X127505084Y-98036338D01*
X127497152Y-97998398D01*
X127485434Y-97945797D01*
X127471869Y-97887220D01*
X127454439Y-97816206D01*
X127438808Y-97767221D01*
X127421050Y-97736176D01*
X127397237Y-97718986D01*
X127363442Y-97711562D01*
X127315739Y-97709817D01*
X127301396Y-97709789D01*
X127253074Y-97707207D01*
X127190926Y-97700388D01*
X127127266Y-97690722D01*
X127118451Y-97689131D01*
X126955479Y-97650467D01*
X126809907Y-97598477D01*
X126682956Y-97534195D01*
X126575848Y-97458658D01*
X126489803Y-97372903D01*
X126426042Y-97277964D01*
X126385786Y-97174878D01*
X126370257Y-97064680D01*
X126370113Y-97054189D01*
X126380699Y-96961098D01*
X126413657Y-96880922D01*
X126469840Y-96812426D01*
X126550101Y-96754369D01*
X126591395Y-96732705D01*
X126683324Y-96696007D01*
X126776378Y-96675419D01*
X126880340Y-96669070D01*
X126919978Y-96669825D01*
X127030753Y-96673737D01*
X126997310Y-96713842D01*
X126963032Y-96759528D01*
X126941919Y-96802425D01*
X126929702Y-96853414D01*
X126924093Y-96900406D01*
X126924679Y-97009462D01*
X126945078Y-97117489D01*
X126983131Y-97218318D01*
X127036680Y-97305781D01*
X127083942Y-97357307D01*
X127149369Y-97404973D01*
X127227899Y-97445134D01*
X127306666Y-97471484D01*
X127324185Y-97475055D01*
X127357157Y-97478902D01*
X127371475Y-97473453D01*
X127374316Y-97459133D01*
X127369722Y-97423617D01*
X127356448Y-97365680D01*
X127335259Y-97287916D01*
X127306919Y-97192918D01*
X127272192Y-97083279D01*
X127231844Y-96961593D01*
X127201924Y-96874263D01*
X127163995Y-96764506D01*
X127133656Y-96677039D01*
X127109298Y-96609044D01*
X127098495Y-96581295D01*
X127442592Y-96581295D01*
X127444001Y-96595391D01*
X127452925Y-96627158D01*
X127465202Y-96663390D01*
X127487657Y-96732273D01*
X127513187Y-96821886D01*
X127540366Y-96926607D01*
X127567769Y-97040809D01*
X127593970Y-97158870D01*
X127608250Y-97227869D01*
X127622451Y-97296558D01*
X127635882Y-97357991D01*
X127647202Y-97406266D01*
X127655069Y-97435478D01*
X127656191Y-97438730D01*
X127664812Y-97455107D01*
X127678512Y-97462891D01*
X127702642Y-97462109D01*
X127742550Y-97452789D01*
X127788737Y-97439411D01*
X127886305Y-97399192D01*
X127971390Y-97342160D01*
X128039164Y-97272170D01*
X128078126Y-97208474D01*
X128102366Y-97131900D01*
X128110603Y-97046966D01*
X128102735Y-96963804D01*
X128081293Y-96897800D01*
X128044749Y-96845028D01*
X127988144Y-96791293D01*
X127917487Y-96741567D01*
X127848286Y-96704996D01*
X127813990Y-96691320D01*
X127764739Y-96673924D01*
X127705792Y-96654413D01*
X127642410Y-96634390D01*
X127579855Y-96615460D01*
X127523386Y-96599227D01*
X127478265Y-96587294D01*
X127449751Y-96581266D01*
X127442592Y-96581295D01*
X127098495Y-96581295D01*
X127089312Y-96557708D01*
X127072088Y-96520214D01*
X127056019Y-96493747D01*
X127039493Y-96475491D01*
X127020903Y-96462631D01*
X126998638Y-96452352D01*
X126971091Y-96441837D01*
X126950162Y-96433771D01*
X126828400Y-96375404D01*
X126724206Y-96304831D01*
X126639980Y-96224224D01*
X126578123Y-96135749D01*
X126550048Y-96072158D01*
X126529049Y-95975478D01*
X126527454Y-95872297D01*
X126544051Y-95769675D01*
X126577630Y-95674674D01*
X126626982Y-95594356D01*
X126633214Y-95586846D01*
X126680636Y-95531445D01*
X126620857Y-95407433D01*
X126557917Y-95286474D01*
X126493066Y-95179767D01*
X126429563Y-95092553D01*
X126412824Y-95072747D01*
X126382264Y-95043396D01*
X126345006Y-95020453D01*
X126293019Y-94999462D01*
X126262837Y-94989515D01*
X126153474Y-94962334D01*
X126060794Y-94955341D01*
X125983939Y-94968546D01*
X125934745Y-94992658D01*
X125855441Y-95046549D01*
X125797046Y-95087494D01*
X125757835Y-95116776D01*
X125736081Y-95135680D01*
X125730000Y-95144945D01*
X125742372Y-95149999D01*
X125775510Y-95153917D01*
X125823452Y-95156131D01*
X125850316Y-95156421D01*
X125970632Y-95156421D01*
X125970632Y-97669684D01*
X125409158Y-97669684D01*
X125409158Y-97160941D01*
X125320507Y-97228889D01*
X125198166Y-97310065D01*
X125059025Y-97380556D01*
X124912329Y-97435710D01*
X124904926Y-97437992D01*
X124859420Y-97451236D01*
X124819237Y-97460796D01*
X124778466Y-97467293D01*
X124731195Y-97471346D01*
X124671512Y-97473575D01*
X124593506Y-97474599D01*
X124553579Y-97474820D01*
X124464571Y-97474822D01*
X124396486Y-97473602D01*
X124343521Y-97470656D01*
X124299870Y-97465475D01*
X124259731Y-97457554D01*
X124217298Y-97446386D01*
X124212685Y-97445065D01*
X124079778Y-97397922D01*
X123960666Y-97337818D01*
X123858331Y-97266902D01*
X123775756Y-97187325D01*
X123715923Y-97101234D01*
X123705017Y-97079272D01*
X123672703Y-96983829D01*
X123655534Y-96877325D01*
X123655247Y-96787567D01*
X124206000Y-96787567D01*
X124217780Y-96888159D01*
X124251758Y-96976269D01*
X124305891Y-97050698D01*
X124378139Y-97110246D01*
X124466460Y-97153715D01*
X124568812Y-97179905D01*
X124683152Y-97187617D01*
X124807440Y-97175651D01*
X124851730Y-97166858D01*
X124981601Y-97126552D01*
X125108660Y-97066165D01*
X125225970Y-96989785D01*
X125326594Y-96901503D01*
X125355398Y-96869938D01*
X125408986Y-96807421D01*
X125409072Y-96135350D01*
X125409158Y-95463278D01*
X125379079Y-95482714D01*
X125351163Y-95497378D01*
X125307790Y-95516590D01*
X125262106Y-95534746D01*
X125200227Y-95560585D01*
X125138907Y-95590697D01*
X125084060Y-95621709D01*
X125041599Y-95650247D01*
X125017436Y-95672936D01*
X125016016Y-95675159D01*
X124964654Y-95741893D01*
X124892328Y-95803612D01*
X124804781Y-95856564D01*
X124707758Y-95897001D01*
X124652526Y-95912526D01*
X124606446Y-95923682D01*
X124571919Y-95932922D01*
X124555971Y-95938359D01*
X124555731Y-95938550D01*
X124565369Y-95944368D01*
X124595086Y-95955993D01*
X124639414Y-95971358D01*
X124662618Y-95978925D01*
X124750624Y-96002275D01*
X124843984Y-96016424D01*
X124917869Y-96021901D01*
X125061579Y-96029155D01*
X125061579Y-96262072D01*
X124937922Y-96269771D01*
X124815689Y-96285685D01*
X124696923Y-96316744D01*
X124584520Y-96360897D01*
X124481377Y-96416094D01*
X124390394Y-96480286D01*
X124314467Y-96551421D01*
X124256495Y-96627451D01*
X124219375Y-96706326D01*
X124206006Y-96785994D01*
X124206000Y-96787567D01*
X123655247Y-96787567D01*
X123655196Y-96771801D01*
X123658222Y-96744952D01*
X123686811Y-96635568D01*
X123739821Y-96530099D01*
X123814972Y-96431088D01*
X123909983Y-96341075D01*
X124022573Y-96262602D01*
X124147781Y-96199340D01*
X124229930Y-96164632D01*
X124134413Y-96115273D01*
X124001748Y-96034880D01*
X123893046Y-95942973D01*
X123807884Y-95838993D01*
X123745834Y-95722382D01*
X123706473Y-95592582D01*
X123697697Y-95541966D01*
X123693440Y-95437158D01*
X124201347Y-95437158D01*
X124201701Y-95501032D01*
X124205246Y-95547402D01*
X124213574Y-95585452D01*
X124228279Y-95624368D01*
X124237271Y-95644329D01*
X124261430Y-95691626D01*
X124286535Y-95733164D01*
X124303694Y-95755876D01*
X124333000Y-95787251D01*
X124336939Y-95755595D01*
X124344213Y-95735061D01*
X124364197Y-95721044D01*
X124403567Y-95709058D01*
X124407663Y-95708074D01*
X124455859Y-95692840D01*
X124499789Y-95672850D01*
X124513745Y-95664228D01*
X124553042Y-95636246D01*
X124478231Y-95546728D01*
X124406214Y-95460678D01*
X124349359Y-95393258D01*
X124305745Y-95342527D01*
X124273453Y-95306547D01*
X124250563Y-95283378D01*
X124235154Y-95271080D01*
X124225308Y-95267714D01*
X124219104Y-95271340D01*
X124214623Y-95280018D01*
X124214508Y-95280304D01*
X124209115Y-95306504D01*
X124204701Y-95351668D01*
X124201916Y-95408022D01*
X124201347Y-95437158D01*
X123693440Y-95437158D01*
X123692637Y-95417416D01*
X123713170Y-95298480D01*
X123746874Y-95210720D01*
X123782274Y-95153074D01*
X123832599Y-95090285D01*
X123890918Y-95029586D01*
X123950300Y-94978207D01*
X124002447Y-94944071D01*
X124059056Y-94915191D01*
X124038090Y-94865358D01*
X124022381Y-94827932D01*
X124000871Y-94776574D01*
X123978060Y-94722028D01*
X123976773Y-94718948D01*
X123942505Y-94650160D01*
X123901445Y-94588297D01*
X123857488Y-94537754D01*
X123814529Y-94502926D01*
X123776463Y-94488207D01*
X123772107Y-94488000D01*
X123738595Y-94497545D01*
X123692071Y-94523722D01*
X123636900Y-94562844D01*
X123577449Y-94611223D01*
X123518083Y-94665172D01*
X123463167Y-94721004D01*
X123417068Y-94775031D01*
X123393888Y-94807451D01*
X123352919Y-94877120D01*
X123312907Y-94958481D01*
X123273404Y-95053084D01*
X123233962Y-95162478D01*
X123194131Y-95288214D01*
X123153462Y-95431842D01*
X123111507Y-95594911D01*
X123067817Y-95778972D01*
X123021942Y-95985574D01*
X122973434Y-96216268D01*
X122944345Y-96359579D01*
X122920092Y-96482645D01*
X122894969Y-96614077D01*
X122870208Y-96747163D01*
X122847036Y-96875189D01*
X122826685Y-96991445D01*
X122810383Y-97089218D01*
X122808418Y-97101526D01*
X122794112Y-97189937D01*
X122780579Y-97270145D01*
X122768537Y-97338156D01*
X122758705Y-97389977D01*
X122751802Y-97421615D01*
X122749471Y-97429053D01*
X122730964Y-97442871D01*
X122696059Y-97454518D01*
X122677882Y-97457927D01*
X122637614Y-97465217D01*
X122607797Y-97473290D01*
X122601033Y-97476310D01*
X122591295Y-97475433D01*
X122592468Y-97452335D01*
X122593423Y-97447435D01*
X122598308Y-97421118D01*
X122606566Y-97374044D01*
X122617226Y-97311842D01*
X122629321Y-97240138D01*
X122635718Y-97201789D01*
X122665668Y-97027589D01*
X122698910Y-96844900D01*
X122734545Y-96658066D01*
X122771671Y-96471431D01*
X122809388Y-96289340D01*
X122846796Y-96116137D01*
X122882993Y-95956165D01*
X122917080Y-95813769D01*
X122948156Y-95693293D01*
X122949362Y-95688853D01*
X122992374Y-95537878D01*
X123036066Y-95400572D01*
X123083382Y-95269038D01*
X123137266Y-95135382D01*
X123200663Y-94991705D01*
X123244384Y-94897633D01*
X123311949Y-94756042D01*
X123371203Y-94636157D01*
X123424147Y-94535018D01*
X123472783Y-94449661D01*
X123519112Y-94377125D01*
X123565137Y-94314450D01*
X123612858Y-94258673D01*
X123664278Y-94206833D01*
X123721397Y-94155968D01*
X123775745Y-94111432D01*
X123837569Y-94065251D01*
X123886410Y-94038518D01*
X123927667Y-94031267D01*
X123966743Y-94043532D01*
X124009036Y-94075346D01*
X124047153Y-94113144D01*
X124082773Y-94152972D01*
X124111488Y-94192101D01*
X124137447Y-94237541D01*
X124164796Y-94296304D01*
X124187527Y-94350434D01*
X124220983Y-94428927D01*
X124261300Y-94518739D01*
X124302852Y-94607543D01*
X124332650Y-94668474D01*
X124413211Y-94828895D01*
X124503474Y-94837819D01*
X124563550Y-94845041D01*
X124625010Y-94854433D01*
X124662615Y-94861515D01*
X124762460Y-94892941D01*
X124858504Y-94941670D01*
X124945169Y-95003642D01*
X125016882Y-95074798D01*
X125068064Y-95151078D01*
X125072274Y-95159763D01*
X125091494Y-95195572D01*
X125108765Y-95218600D01*
X125116406Y-95223263D01*
X125133975Y-95217269D01*
X125168852Y-95201209D01*
X125214950Y-95177965D01*
X125239995Y-95164717D01*
X125297987Y-95134909D01*
X125356283Y-95107160D01*
X125404649Y-95086284D01*
X125415843Y-95082026D01*
X125531334Y-95026313D01*
X125633750Y-94948203D01*
X125684299Y-94895266D01*
X125757446Y-94811136D01*
X125819640Y-94744082D01*
X125875637Y-94689542D01*
X125930192Y-94642956D01*
X125988062Y-94599762D01*
X126003997Y-94588690D01*
X126073252Y-94544531D01*
X126133234Y-94516023D01*
X126190650Y-94502391D01*
X126252205Y-94502862D01*
X126324604Y-94516660D01*
X126410551Y-94541731D01*
X126472560Y-94562179D01*
X126515650Y-94579092D01*
X126546582Y-94596377D01*
X126572115Y-94617944D01*
X126599012Y-94647700D01*
X126603914Y-94653505D01*
X126659197Y-94727504D01*
X126718589Y-94821373D01*
X126779007Y-94929231D01*
X126837369Y-95045196D01*
X126890591Y-95163388D01*
X126935592Y-95277924D01*
X126944572Y-95303474D01*
X126961659Y-95346928D01*
X126976940Y-95368892D01*
X126993796Y-95374108D01*
X126994913Y-95373994D01*
X127087438Y-95363135D01*
X127158856Y-95355486D01*
X127214575Y-95350811D01*
X127260002Y-95348872D01*
X127300544Y-95349435D01*
X127341610Y-95352263D01*
X127386599Y-95356896D01*
X127546806Y-95380656D01*
X127684034Y-95413536D01*
X127733602Y-95429691D01*
X127770971Y-95442167D01*
X127797785Y-95449608D01*
X127803786Y-95450526D01*
X127808483Y-95438059D01*
X127812278Y-95404254D01*
X127814744Y-95354507D01*
X127815474Y-95303474D01*
X127815474Y-95156421D01*
X128376948Y-95156421D01*
X128376948Y-95742151D01*
X128226553Y-95789078D01*
X128160832Y-95809488D01*
X128098719Y-95828605D01*
X128047975Y-95844051D01*
X128020262Y-95852317D01*
X127964365Y-95868629D01*
X127893262Y-95806401D01*
X127802276Y-95738376D01*
X127699322Y-95681086D01*
X127589347Y-95635871D01*
X127477301Y-95604073D01*
X127368132Y-95587030D01*
X127266788Y-95586083D01*
X127178219Y-95602572D01*
X127161817Y-95608332D01*
X127128920Y-95621465D01*
X127105276Y-95634238D01*
X127091122Y-95650045D01*
X127086696Y-95672281D01*
X127092233Y-95704339D01*
X127107970Y-95749615D01*
X127134144Y-95811503D01*
X127170992Y-95893396D01*
X127183629Y-95921199D01*
X127230469Y-96024240D01*
X127332471Y-96057476D01*
X127380631Y-96072427D01*
X127447638Y-96092212D01*
X127526496Y-96114816D01*
X127610206Y-96138224D01*
X127661737Y-96152327D01*
X127814824Y-96195027D01*
X127944656Y-96234056D01*
X128054267Y-96270602D01*
X128146695Y-96305855D01*
X128224974Y-96341003D01*
X128292142Y-96377234D01*
X128351233Y-96415737D01*
X128370264Y-96429738D01*
X128464697Y-96512436D01*
X128534448Y-96600163D01*
X128581534Y-96696590D01*
X128607976Y-96805386D01*
X128614553Y-96873764D01*
X128612760Y-97003683D01*
X128591770Y-97118066D01*
X128550016Y-97221479D01*
X128485931Y-97318489D01*
X128445884Y-97365091D01*
X128333884Y-97466772D01*
X128201254Y-97551578D01*
X128048181Y-97619412D01*
X127874852Y-97670178D01*
X127841589Y-97677480D01*
X127790211Y-97688456D01*
X127749982Y-97697483D01*
X127727172Y-97703135D01*
X127724333Y-97704130D01*
X127725177Y-97717861D01*
X127730815Y-97753997D01*
X127740507Y-97808788D01*
X127753512Y-97878480D01*
X127769087Y-97959324D01*
X127786493Y-98047567D01*
X127804987Y-98139457D01*
X127823828Y-98231243D01*
X127842275Y-98319173D01*
X127859586Y-98399496D01*
X127875021Y-98468459D01*
X127877333Y-98478474D01*
X127897225Y-98566056D01*
X127919888Y-98668854D01*
X127942931Y-98775851D01*
X127963964Y-98876030D01*
X127970168Y-98906263D01*
X128001769Y-99045037D01*
X128039887Y-99185514D01*
X128082564Y-99321772D01*
X128127847Y-99447891D01*
X128173780Y-99557949D01*
X128208695Y-99628641D01*
X128240799Y-99684646D01*
X128269116Y-99721754D01*
X128301024Y-99745364D01*
X128343898Y-99760874D01*
X128405117Y-99773683D01*
X128407473Y-99774111D01*
X128438392Y-99778326D01*
X128456860Y-99772865D01*
X128471260Y-99752279D01*
X128484160Y-99724252D01*
X128504484Y-99668514D01*
X128527394Y-99588101D01*
X128552550Y-99484916D01*
X128579609Y-99360860D01*
X128608231Y-99217834D01*
X128638076Y-99057741D01*
X128668802Y-98882481D01*
X128700069Y-98693958D01*
X128731535Y-98494072D01*
X128762860Y-98284726D01*
X128793703Y-98067820D01*
X128823723Y-97845257D01*
X128831062Y-97788938D01*
X128846696Y-97668572D01*
X128862018Y-97551490D01*
X128876516Y-97441534D01*
X128889680Y-97342545D01*
X128900999Y-97258364D01*
X128909962Y-97192834D01*
X128916058Y-97149794D01*
X128916273Y-97148339D01*
X128934756Y-97023484D01*
X128884841Y-96925883D01*
X128828488Y-96787441D01*
X128793386Y-96636410D01*
X128779706Y-96476640D01*
X128785218Y-96361857D01*
X129339474Y-96361857D01*
X129347773Y-96521696D01*
X129372187Y-96665479D01*
X129411995Y-96791994D01*
X129466472Y-96900028D01*
X129534897Y-96988368D01*
X129616546Y-97055801D01*
X129710698Y-97101114D01*
X129791328Y-97120177D01*
X129838180Y-97125540D01*
X129877507Y-97127784D01*
X129894264Y-97127139D01*
X129924050Y-97122934D01*
X129966091Y-97117123D01*
X129980341Y-97115175D01*
X130046169Y-97097352D01*
X130121153Y-97062605D01*
X130197869Y-97014983D01*
X130268891Y-96958538D01*
X130270996Y-96956623D01*
X130333223Y-96890549D01*
X130397370Y-96806314D01*
X130458352Y-96711563D01*
X130511085Y-96613940D01*
X130536626Y-96557230D01*
X130582248Y-96446474D01*
X130582493Y-95801447D01*
X130582737Y-95156421D01*
X130723106Y-95156421D01*
X130780728Y-95155662D01*
X130826888Y-95153610D01*
X130856061Y-95150602D01*
X130863474Y-95147864D01*
X130859307Y-95132765D01*
X130847880Y-95097308D01*
X130830806Y-95046356D01*
X130809697Y-94984774D01*
X130803289Y-94966308D01*
X130774773Y-94881563D01*
X130743979Y-94785531D01*
X130714982Y-94691135D01*
X130695475Y-94624273D01*
X130656311Y-94494319D01*
X130615654Y-94380204D01*
X130569179Y-94271181D01*
X130512562Y-94156503D01*
X130490415Y-94114653D01*
X130429133Y-94010804D01*
X130369041Y-93931535D01*
X130307823Y-93874922D01*
X130243163Y-93839038D01*
X130172743Y-93821959D01*
X130135774Y-93819872D01*
X130075242Y-93824650D01*
X130021203Y-93840864D01*
X129972192Y-93870477D01*
X129926748Y-93915453D01*
X129883409Y-93977753D01*
X129840711Y-94059342D01*
X129797193Y-94162183D01*
X129751392Y-94288237D01*
X129722682Y-94374368D01*
X129688939Y-94477368D01*
X129649873Y-94595279D01*
X129608940Y-94717757D01*
X129569593Y-94834459D01*
X129541895Y-94915789D01*
X129511818Y-95005088D01*
X129482864Y-95093809D01*
X129456898Y-95176032D01*
X129435783Y-95245835D01*
X129421385Y-95297295D01*
X129419819Y-95303474D01*
X129406230Y-95357769D01*
X129394445Y-95403971D01*
X129386405Y-95434504D01*
X129384804Y-95440190D01*
X129382794Y-95453886D01*
X129392181Y-95456562D01*
X129418872Y-95448797D01*
X129430651Y-95444689D01*
X129540539Y-95416712D01*
X129665530Y-95402970D01*
X129798411Y-95402973D01*
X129931969Y-95416231D01*
X130058991Y-95442253D01*
X130172263Y-95480550D01*
X130208915Y-95497566D01*
X130299672Y-95555480D01*
X130372668Y-95626369D01*
X130426708Y-95706818D01*
X130460597Y-95793415D01*
X130473142Y-95882744D01*
X130463148Y-95971392D01*
X130429422Y-96055945D01*
X130413287Y-96081775D01*
X130358722Y-96140143D01*
X130284506Y-96189156D01*
X130196914Y-96225986D01*
X130102224Y-96247804D01*
X130034173Y-96252631D01*
X129958356Y-96252631D01*
X129950242Y-96095553D01*
X129938312Y-95959548D01*
X129917669Y-95848315D01*
X129888005Y-95761244D01*
X129849013Y-95697725D01*
X129800388Y-95657150D01*
X129741822Y-95638907D01*
X129719816Y-95637684D01*
X129649616Y-95650571D01*
X129583363Y-95687565D01*
X129522371Y-95746167D01*
X129467952Y-95823878D01*
X129421419Y-95918199D01*
X129384085Y-96026630D01*
X129357262Y-96146673D01*
X129342262Y-96275827D01*
X129339474Y-96361857D01*
X128785218Y-96361857D01*
X128787614Y-96311984D01*
X128817279Y-96146293D01*
X128846442Y-96045421D01*
X128899687Y-95914762D01*
X128969213Y-95797491D01*
X129059075Y-95687381D01*
X129118572Y-95627679D01*
X129163490Y-95583390D01*
X129200066Y-95543803D01*
X129224373Y-95513413D01*
X129232527Y-95497293D01*
X129236813Y-95477088D01*
X129249005Y-95434607D01*
X129268107Y-95372785D01*
X129293121Y-95294555D01*
X129323048Y-95202852D01*
X129356893Y-95100610D01*
X129393657Y-94990765D01*
X129432342Y-94876249D01*
X129471952Y-94759998D01*
X129511489Y-94644946D01*
X129549955Y-94534028D01*
X129586352Y-94430177D01*
X129619684Y-94336328D01*
X129648953Y-94255416D01*
X129673162Y-94190375D01*
X129691312Y-94144139D01*
X129697190Y-94130354D01*
X129734172Y-94050468D01*
X129777355Y-93962054D01*
X129824273Y-93869715D01*
X129872462Y-93778050D01*
X129919459Y-93691661D01*
X129962798Y-93615149D01*
X130000015Y-93553113D01*
X130028645Y-93510156D01*
X130031304Y-93506610D01*
X130077318Y-93451507D01*
X130119809Y-93415079D01*
X130167081Y-93392020D01*
X130227435Y-93377025D01*
X130236632Y-93375399D01*
X130285891Y-93368088D01*
X130320874Y-93367762D01*
X130353450Y-93375818D01*
D13*
%TO.C,TP11*%
X120334000Y-113730000D02*
X118934000Y-113730000D01*
X120334000Y-112330000D02*
X120334000Y-113730000D01*
X118934000Y-112330000D02*
X120334000Y-112330000D01*
X118934000Y-113730000D02*
X118934000Y-112330000D01*
%TO.C,TP10*%
X120334000Y-102173000D02*
X118934000Y-102173000D01*
X120334000Y-100773000D02*
X120334000Y-102173000D01*
X118934000Y-100773000D02*
X120334000Y-100773000D01*
X118934000Y-102173000D02*
X118934000Y-100773000D01*
%TO.C,TP13*%
X122617000Y-112838000D02*
X124017000Y-112838000D01*
X124017000Y-112838000D02*
X124017000Y-114238000D01*
X124017000Y-114238000D02*
X122617000Y-114238000D01*
X122617000Y-114238000D02*
X122617000Y-112838000D01*
%TO.C,TP12*%
X138619000Y-112965000D02*
X140019000Y-112965000D01*
X140019000Y-112965000D02*
X140019000Y-114365000D01*
X140019000Y-114365000D02*
X138619000Y-114365000D01*
X138619000Y-114365000D02*
X138619000Y-112965000D01*
%TO.C,R3*%
X137542000Y-101499641D02*
X137542000Y-101192359D01*
X138302000Y-101499641D02*
X138302000Y-101192359D01*
%TO.C,R13*%
X120524000Y-122583641D02*
X120524000Y-122276359D01*
X121284000Y-122583641D02*
X121284000Y-122276359D01*
%TO.C,R12*%
X122810000Y-122579641D02*
X122810000Y-122272359D01*
X123570000Y-122579641D02*
X123570000Y-122272359D01*
%TO.C,R11*%
X143001000Y-119279641D02*
X143001000Y-118972359D01*
X142241000Y-119279641D02*
X142241000Y-118972359D01*
%TO.C,R10*%
X143001000Y-124943359D02*
X143001000Y-125250641D01*
X142241000Y-124943359D02*
X142241000Y-125250641D01*
%TO.C,R9*%
X143001000Y-121893359D02*
X143001000Y-122200641D01*
X142241000Y-121893359D02*
X142241000Y-122200641D01*
%TO.C,C7*%
X123082164Y-118766000D02*
X123297836Y-118766000D01*
X123082164Y-119486000D02*
X123297836Y-119486000D01*
%TO.C,C2*%
X137520000Y-109112164D02*
X137520000Y-109327836D01*
X136800000Y-109112164D02*
X136800000Y-109327836D01*
%TO.C,C1*%
X131111164Y-101240000D02*
X131326836Y-101240000D01*
X131111164Y-101960000D02*
X131326836Y-101960000D01*
%TO.C,J1*%
X144586000Y-99762000D02*
X141926000Y-99762000D01*
X144586000Y-107442000D02*
X144586000Y-99762000D01*
X141926000Y-107442000D02*
X141926000Y-99762000D01*
X144586000Y-107442000D02*
X141926000Y-107442000D01*
X144586000Y-108712000D02*
X144586000Y-110042000D01*
X144586000Y-110042000D02*
X143256000Y-110042000D01*
%TO.C,Q4*%
X139714000Y-120706000D02*
X138254000Y-120706000D01*
X139714000Y-117546000D02*
X137554000Y-117546000D01*
X139714000Y-117546000D02*
X139714000Y-118476000D01*
X139714000Y-120706000D02*
X139714000Y-119776000D01*
%TO.C,Q5*%
X139682000Y-126294000D02*
X138222000Y-126294000D01*
X139682000Y-123134000D02*
X137522000Y-123134000D01*
X139682000Y-123134000D02*
X139682000Y-124064000D01*
X139682000Y-126294000D02*
X139682000Y-125364000D01*
%TO.C,Q6*%
X124204000Y-127056000D02*
X122744000Y-127056000D01*
X124204000Y-123896000D02*
X122044000Y-123896000D01*
X124204000Y-123896000D02*
X124204000Y-124826000D01*
X124204000Y-127056000D02*
X124204000Y-126126000D01*
%TO.C,SW1*%
X134362000Y-124738000D02*
X134362000Y-123238000D01*
X133112000Y-120738000D02*
X128612000Y-120738000D01*
X127362000Y-123238000D02*
X127362000Y-124738000D01*
X128612000Y-127238000D02*
X133112000Y-127238000D01*
%TO.C,TP1*%
X135063000Y-115632000D02*
X136463000Y-115632000D01*
X136463000Y-115632000D02*
X136463000Y-117032000D01*
X136463000Y-117032000D02*
X135063000Y-117032000D01*
X135063000Y-117032000D02*
X135063000Y-115632000D01*
%TO.C,TP2*%
X128840000Y-115632000D02*
X130240000Y-115632000D01*
X130240000Y-115632000D02*
X130240000Y-117032000D01*
X130240000Y-117032000D02*
X128840000Y-117032000D01*
X128840000Y-117032000D02*
X128840000Y-115632000D01*
%TO.C,TP3*%
X132015000Y-117032000D02*
X132015000Y-115632000D01*
X133415000Y-117032000D02*
X132015000Y-117032000D01*
X133415000Y-115632000D02*
X133415000Y-117032000D01*
X132015000Y-115632000D02*
X133415000Y-115632000D01*
%TO.C,TP4*%
X125665000Y-115632000D02*
X127065000Y-115632000D01*
X127065000Y-115632000D02*
X127065000Y-117032000D01*
X127065000Y-117032000D02*
X125665000Y-117032000D01*
X125665000Y-117032000D02*
X125665000Y-115632000D01*
%TO.C,TP5*%
X120334000Y-96585000D02*
X118934000Y-96585000D01*
X120334000Y-95185000D02*
X120334000Y-96585000D01*
X118934000Y-95185000D02*
X120334000Y-95185000D01*
X118934000Y-96585000D02*
X118934000Y-95185000D01*
%TO.C,TP6*%
X120334000Y-99379000D02*
X118934000Y-99379000D01*
X120334000Y-97979000D02*
X120334000Y-99379000D01*
X118934000Y-97979000D02*
X120334000Y-97979000D01*
X118934000Y-99379000D02*
X118934000Y-97979000D01*
%TO.C,TP7*%
X122617000Y-105983000D02*
X122617000Y-104583000D01*
X124017000Y-105983000D02*
X122617000Y-105983000D01*
X124017000Y-104583000D02*
X124017000Y-105983000D01*
X122617000Y-104583000D02*
X124017000Y-104583000D01*
%TO.C,TP8*%
X138619000Y-104075000D02*
X140019000Y-104075000D01*
X140019000Y-104075000D02*
X140019000Y-105475000D01*
X140019000Y-105475000D02*
X138619000Y-105475000D01*
X138619000Y-105475000D02*
X138619000Y-104075000D01*
%TO.C,TP9*%
X124017000Y-102173000D02*
X122617000Y-102173000D01*
X124017000Y-100773000D02*
X124017000Y-102173000D01*
X122617000Y-100773000D02*
X124017000Y-100773000D01*
X122617000Y-102173000D02*
X122617000Y-100773000D01*
D15*
%TO.C,U1*%
X127566000Y-104169000D02*
X126141000Y-104169000D01*
X134816000Y-103944000D02*
X134491000Y-103944000D01*
X134816000Y-111194000D02*
X134491000Y-111194000D01*
X127566000Y-111194000D02*
X127891000Y-111194000D01*
X127566000Y-103944000D02*
X127891000Y-103944000D01*
X127566000Y-111194000D02*
X127566000Y-110869000D01*
X134816000Y-111194000D02*
X134816000Y-110869000D01*
X134816000Y-103944000D02*
X134816000Y-104269000D01*
X127566000Y-103944000D02*
X127566000Y-104169000D01*
%TO.C,C8*%
X119403342Y-119622866D02*
X119450961Y-119670485D01*
X119498580Y-119813342D01*
X119498580Y-119908580D01*
X119450961Y-120051438D01*
X119355723Y-120146676D01*
X119260485Y-120194295D01*
X119070009Y-120241914D01*
X118927152Y-120241914D01*
X118736676Y-120194295D01*
X118641438Y-120146676D01*
X118546200Y-120051438D01*
X118498580Y-119908580D01*
X118498580Y-119813342D01*
X118546200Y-119670485D01*
X118593819Y-119622866D01*
X118927152Y-119051438D02*
X118879533Y-119146676D01*
X118831914Y-119194295D01*
X118736676Y-119241914D01*
X118689057Y-119241914D01*
X118593819Y-119194295D01*
X118546200Y-119146676D01*
X118498580Y-119051438D01*
X118498580Y-118860961D01*
X118546200Y-118765723D01*
X118593819Y-118718104D01*
X118689057Y-118670485D01*
X118736676Y-118670485D01*
X118831914Y-118718104D01*
X118879533Y-118765723D01*
X118927152Y-118860961D01*
X118927152Y-119051438D01*
X118974771Y-119146676D01*
X119022390Y-119194295D01*
X119117628Y-119241914D01*
X119308104Y-119241914D01*
X119403342Y-119194295D01*
X119450961Y-119146676D01*
X119498580Y-119051438D01*
X119498580Y-118860961D01*
X119450961Y-118765723D01*
X119403342Y-118718104D01*
X119308104Y-118670485D01*
X119117628Y-118670485D01*
X119022390Y-118718104D01*
X118974771Y-118765723D01*
X118927152Y-118860961D01*
%TO.C,TP13*%
D10*
X121926523Y-111575904D02*
X122383666Y-111575904D01*
X122155095Y-112375904D02*
X122155095Y-111575904D01*
X122650333Y-112375904D02*
X122650333Y-111575904D01*
X122955095Y-111575904D01*
X123031285Y-111614000D01*
X123069380Y-111652095D01*
X123107476Y-111728285D01*
X123107476Y-111842571D01*
X123069380Y-111918761D01*
X123031285Y-111956857D01*
X122955095Y-111994952D01*
X122650333Y-111994952D01*
X123869380Y-112375904D02*
X123412238Y-112375904D01*
X123640809Y-112375904D02*
X123640809Y-111575904D01*
X123564619Y-111690190D01*
X123488428Y-111766380D01*
X123412238Y-111804476D01*
X124136047Y-111575904D02*
X124631285Y-111575904D01*
X124364619Y-111880666D01*
X124478904Y-111880666D01*
X124555095Y-111918761D01*
X124593190Y-111956857D01*
X124631285Y-112033047D01*
X124631285Y-112223523D01*
X124593190Y-112299714D01*
X124555095Y-112337809D01*
X124478904Y-112375904D01*
X124250333Y-112375904D01*
X124174142Y-112337809D01*
X124136047Y-112299714D01*
%TO.C,TP12*%
X137928523Y-111702904D02*
X138385666Y-111702904D01*
X138157095Y-112502904D02*
X138157095Y-111702904D01*
X138652333Y-112502904D02*
X138652333Y-111702904D01*
X138957095Y-111702904D01*
X139033285Y-111741000D01*
X139071380Y-111779095D01*
X139109476Y-111855285D01*
X139109476Y-111969571D01*
X139071380Y-112045761D01*
X139033285Y-112083857D01*
X138957095Y-112121952D01*
X138652333Y-112121952D01*
X139871380Y-112502904D02*
X139414238Y-112502904D01*
X139642809Y-112502904D02*
X139642809Y-111702904D01*
X139566619Y-111817190D01*
X139490428Y-111893380D01*
X139414238Y-111931476D01*
X140176142Y-111779095D02*
X140214238Y-111741000D01*
X140290428Y-111702904D01*
X140480904Y-111702904D01*
X140557095Y-111741000D01*
X140595190Y-111779095D01*
X140633285Y-111855285D01*
X140633285Y-111931476D01*
X140595190Y-112045761D01*
X140138047Y-112502904D01*
X140633285Y-112502904D01*
%TO.C,R3*%
X137267904Y-101479333D02*
X136886952Y-101746000D01*
X137267904Y-101936476D02*
X136467904Y-101936476D01*
X136467904Y-101631714D01*
X136506000Y-101555523D01*
X136544095Y-101517428D01*
X136620285Y-101479333D01*
X136734571Y-101479333D01*
X136810761Y-101517428D01*
X136848857Y-101555523D01*
X136886952Y-101631714D01*
X136886952Y-101936476D01*
X136467904Y-101212666D02*
X136467904Y-100717428D01*
X136772666Y-100984095D01*
X136772666Y-100869809D01*
X136810761Y-100793619D01*
X136848857Y-100755523D01*
X136925047Y-100717428D01*
X137115523Y-100717428D01*
X137191714Y-100755523D01*
X137229809Y-100793619D01*
X137267904Y-100869809D01*
X137267904Y-101098380D01*
X137229809Y-101174571D01*
X137191714Y-101212666D01*
%TO.C,R13*%
X120249904Y-122942285D02*
X119868952Y-123208952D01*
X120249904Y-123399428D02*
X119449904Y-123399428D01*
X119449904Y-123094666D01*
X119488000Y-123018476D01*
X119526095Y-122980380D01*
X119602285Y-122942285D01*
X119716571Y-122942285D01*
X119792761Y-122980380D01*
X119830857Y-123018476D01*
X119868952Y-123094666D01*
X119868952Y-123399428D01*
X120249904Y-122180380D02*
X120249904Y-122637523D01*
X120249904Y-122408952D02*
X119449904Y-122408952D01*
X119564190Y-122485142D01*
X119640380Y-122561333D01*
X119678476Y-122637523D01*
X119449904Y-121913714D02*
X119449904Y-121418476D01*
X119754666Y-121685142D01*
X119754666Y-121570857D01*
X119792761Y-121494666D01*
X119830857Y-121456571D01*
X119907047Y-121418476D01*
X120097523Y-121418476D01*
X120173714Y-121456571D01*
X120211809Y-121494666D01*
X120249904Y-121570857D01*
X120249904Y-121799428D01*
X120211809Y-121875619D01*
X120173714Y-121913714D01*
%TO.C,R12*%
X122535904Y-122942285D02*
X122154952Y-123208952D01*
X122535904Y-123399428D02*
X121735904Y-123399428D01*
X121735904Y-123094666D01*
X121774000Y-123018476D01*
X121812095Y-122980380D01*
X121888285Y-122942285D01*
X122002571Y-122942285D01*
X122078761Y-122980380D01*
X122116857Y-123018476D01*
X122154952Y-123094666D01*
X122154952Y-123399428D01*
X122535904Y-122180380D02*
X122535904Y-122637523D01*
X122535904Y-122408952D02*
X121735904Y-122408952D01*
X121850190Y-122485142D01*
X121926380Y-122561333D01*
X121964476Y-122637523D01*
X121812095Y-121875619D02*
X121774000Y-121837523D01*
X121735904Y-121761333D01*
X121735904Y-121570857D01*
X121774000Y-121494666D01*
X121812095Y-121456571D01*
X121888285Y-121418476D01*
X121964476Y-121418476D01*
X122078761Y-121456571D01*
X122535904Y-121913714D01*
X122535904Y-121418476D01*
%TO.C,R11*%
X141966904Y-119640285D02*
X141585952Y-119906952D01*
X141966904Y-120097428D02*
X141166904Y-120097428D01*
X141166904Y-119792666D01*
X141205000Y-119716476D01*
X141243095Y-119678380D01*
X141319285Y-119640285D01*
X141433571Y-119640285D01*
X141509761Y-119678380D01*
X141547857Y-119716476D01*
X141585952Y-119792666D01*
X141585952Y-120097428D01*
X141966904Y-118878380D02*
X141966904Y-119335523D01*
X141966904Y-119106952D02*
X141166904Y-119106952D01*
X141281190Y-119183142D01*
X141357380Y-119259333D01*
X141395476Y-119335523D01*
X141966904Y-118116476D02*
X141966904Y-118573619D01*
X141966904Y-118345047D02*
X141166904Y-118345047D01*
X141281190Y-118421238D01*
X141357380Y-118497428D01*
X141395476Y-118573619D01*
%TO.C,R10*%
X141966904Y-125611285D02*
X141585952Y-125877952D01*
X141966904Y-126068428D02*
X141166904Y-126068428D01*
X141166904Y-125763666D01*
X141205000Y-125687476D01*
X141243095Y-125649380D01*
X141319285Y-125611285D01*
X141433571Y-125611285D01*
X141509761Y-125649380D01*
X141547857Y-125687476D01*
X141585952Y-125763666D01*
X141585952Y-126068428D01*
X141966904Y-124849380D02*
X141966904Y-125306523D01*
X141966904Y-125077952D02*
X141166904Y-125077952D01*
X141281190Y-125154142D01*
X141357380Y-125230333D01*
X141395476Y-125306523D01*
X141166904Y-124354142D02*
X141166904Y-124277952D01*
X141205000Y-124201761D01*
X141243095Y-124163666D01*
X141319285Y-124125571D01*
X141471666Y-124087476D01*
X141662142Y-124087476D01*
X141814523Y-124125571D01*
X141890714Y-124163666D01*
X141928809Y-124201761D01*
X141966904Y-124277952D01*
X141966904Y-124354142D01*
X141928809Y-124430333D01*
X141890714Y-124468428D01*
X141814523Y-124506523D01*
X141662142Y-124544619D01*
X141471666Y-124544619D01*
X141319285Y-124506523D01*
X141243095Y-124468428D01*
X141205000Y-124430333D01*
X141166904Y-124354142D01*
%TO.C,R9*%
X141966904Y-122180333D02*
X141585952Y-122447000D01*
X141966904Y-122637476D02*
X141166904Y-122637476D01*
X141166904Y-122332714D01*
X141205000Y-122256523D01*
X141243095Y-122218428D01*
X141319285Y-122180333D01*
X141433571Y-122180333D01*
X141509761Y-122218428D01*
X141547857Y-122256523D01*
X141585952Y-122332714D01*
X141585952Y-122637476D01*
X141966904Y-121799380D02*
X141966904Y-121647000D01*
X141928809Y-121570809D01*
X141890714Y-121532714D01*
X141776428Y-121456523D01*
X141624047Y-121418428D01*
X141319285Y-121418428D01*
X141243095Y-121456523D01*
X141205000Y-121494619D01*
X141166904Y-121570809D01*
X141166904Y-121723190D01*
X141205000Y-121799380D01*
X141243095Y-121837476D01*
X141319285Y-121875571D01*
X141509761Y-121875571D01*
X141585952Y-121837476D01*
X141624047Y-121799380D01*
X141662142Y-121723190D01*
X141662142Y-121570809D01*
X141624047Y-121494619D01*
X141585952Y-121456523D01*
X141509761Y-121418428D01*
%TO.C,C7*%
X123056666Y-118395714D02*
X123018571Y-118433809D01*
X122904285Y-118471904D01*
X122828095Y-118471904D01*
X122713809Y-118433809D01*
X122637619Y-118357619D01*
X122599523Y-118281428D01*
X122561428Y-118129047D01*
X122561428Y-118014761D01*
X122599523Y-117862380D01*
X122637619Y-117786190D01*
X122713809Y-117710000D01*
X122828095Y-117671904D01*
X122904285Y-117671904D01*
X123018571Y-117710000D01*
X123056666Y-117748095D01*
X123323333Y-117671904D02*
X123856666Y-117671904D01*
X123513809Y-118471904D01*
%TO.C,C2*%
X138588714Y-109353333D02*
X138626809Y-109391428D01*
X138664904Y-109505714D01*
X138664904Y-109581904D01*
X138626809Y-109696190D01*
X138550619Y-109772380D01*
X138474428Y-109810476D01*
X138322047Y-109848571D01*
X138207761Y-109848571D01*
X138055380Y-109810476D01*
X137979190Y-109772380D01*
X137903000Y-109696190D01*
X137864904Y-109581904D01*
X137864904Y-109505714D01*
X137903000Y-109391428D01*
X137941095Y-109353333D01*
X137941095Y-109048571D02*
X137903000Y-109010476D01*
X137864904Y-108934285D01*
X137864904Y-108743809D01*
X137903000Y-108667619D01*
X137941095Y-108629523D01*
X138017285Y-108591428D01*
X138093476Y-108591428D01*
X138207761Y-108629523D01*
X138664904Y-109086666D01*
X138664904Y-108591428D01*
%TO.C,C1*%
X131085666Y-100869714D02*
X131047571Y-100907809D01*
X130933285Y-100945904D01*
X130857095Y-100945904D01*
X130742809Y-100907809D01*
X130666619Y-100831619D01*
X130628523Y-100755428D01*
X130590428Y-100603047D01*
X130590428Y-100488761D01*
X130628523Y-100336380D01*
X130666619Y-100260190D01*
X130742809Y-100184000D01*
X130857095Y-100145904D01*
X130933285Y-100145904D01*
X131047571Y-100184000D01*
X131085666Y-100222095D01*
X131847571Y-100945904D02*
X131390428Y-100945904D01*
X131619000Y-100945904D02*
X131619000Y-100145904D01*
X131542809Y-100260190D01*
X131466619Y-100336380D01*
X131390428Y-100374476D01*
%TO.C,J1*%
D15*
X143938666Y-98131380D02*
X143938666Y-98845666D01*
X143891047Y-98988523D01*
X143795809Y-99083761D01*
X143652952Y-99131380D01*
X143557714Y-99131380D01*
X144938666Y-99131380D02*
X144367238Y-99131380D01*
X144652952Y-99131380D02*
X144652952Y-98131380D01*
X144557714Y-98274238D01*
X144462476Y-98369476D01*
X144367238Y-98417095D01*
%TO.C,Q4*%
X137088619Y-119094238D02*
X137041000Y-119189476D01*
X136945761Y-119284714D01*
X136802904Y-119427571D01*
X136755285Y-119522809D01*
X136755285Y-119618047D01*
X136993380Y-119570428D02*
X136945761Y-119665666D01*
X136850523Y-119760904D01*
X136660047Y-119808523D01*
X136326714Y-119808523D01*
X136136238Y-119760904D01*
X136041000Y-119665666D01*
X135993380Y-119570428D01*
X135993380Y-119379952D01*
X136041000Y-119284714D01*
X136136238Y-119189476D01*
X136326714Y-119141857D01*
X136660047Y-119141857D01*
X136850523Y-119189476D01*
X136945761Y-119284714D01*
X136993380Y-119379952D01*
X136993380Y-119570428D01*
X136326714Y-118284714D02*
X136993380Y-118284714D01*
X135945761Y-118522809D02*
X136660047Y-118760904D01*
X136660047Y-118141857D01*
%TO.C,Q5*%
X137056619Y-124936238D02*
X137009000Y-125031476D01*
X136913761Y-125126714D01*
X136770904Y-125269571D01*
X136723285Y-125364809D01*
X136723285Y-125460047D01*
X136961380Y-125412428D02*
X136913761Y-125507666D01*
X136818523Y-125602904D01*
X136628047Y-125650523D01*
X136294714Y-125650523D01*
X136104238Y-125602904D01*
X136009000Y-125507666D01*
X135961380Y-125412428D01*
X135961380Y-125221952D01*
X136009000Y-125126714D01*
X136104238Y-125031476D01*
X136294714Y-124983857D01*
X136628047Y-124983857D01*
X136818523Y-125031476D01*
X136913761Y-125126714D01*
X136961380Y-125221952D01*
X136961380Y-125412428D01*
X135961380Y-124079095D02*
X135961380Y-124555285D01*
X136437571Y-124602904D01*
X136389952Y-124555285D01*
X136342333Y-124460047D01*
X136342333Y-124221952D01*
X136389952Y-124126714D01*
X136437571Y-124079095D01*
X136532809Y-124031476D01*
X136770904Y-124031476D01*
X136866142Y-124079095D01*
X136913761Y-124126714D01*
X136961380Y-124221952D01*
X136961380Y-124460047D01*
X136913761Y-124555285D01*
X136866142Y-124602904D01*
%TO.C,Q6*%
X121705619Y-125571238D02*
X121658000Y-125666476D01*
X121562761Y-125761714D01*
X121419904Y-125904571D01*
X121372285Y-125999809D01*
X121372285Y-126095047D01*
X121610380Y-126047428D02*
X121562761Y-126142666D01*
X121467523Y-126237904D01*
X121277047Y-126285523D01*
X120943714Y-126285523D01*
X120753238Y-126237904D01*
X120658000Y-126142666D01*
X120610380Y-126047428D01*
X120610380Y-125856952D01*
X120658000Y-125761714D01*
X120753238Y-125666476D01*
X120943714Y-125618857D01*
X121277047Y-125618857D01*
X121467523Y-125666476D01*
X121562761Y-125761714D01*
X121610380Y-125856952D01*
X121610380Y-126047428D01*
X120610380Y-124761714D02*
X120610380Y-124952190D01*
X120658000Y-125047428D01*
X120705619Y-125095047D01*
X120848476Y-125190285D01*
X121038952Y-125237904D01*
X121419904Y-125237904D01*
X121515142Y-125190285D01*
X121562761Y-125142666D01*
X121610380Y-125047428D01*
X121610380Y-124856952D01*
X121562761Y-124761714D01*
X121515142Y-124714095D01*
X121419904Y-124666476D01*
X121181809Y-124666476D01*
X121086571Y-124714095D01*
X121038952Y-124761714D01*
X120991333Y-124856952D01*
X120991333Y-125047428D01*
X121038952Y-125142666D01*
X121086571Y-125190285D01*
X121181809Y-125237904D01*
%TO.C,SW1*%
X129730666Y-120292761D02*
X129873523Y-120340380D01*
X130111619Y-120340380D01*
X130206857Y-120292761D01*
X130254476Y-120245142D01*
X130302095Y-120149904D01*
X130302095Y-120054666D01*
X130254476Y-119959428D01*
X130206857Y-119911809D01*
X130111619Y-119864190D01*
X129921142Y-119816571D01*
X129825904Y-119768952D01*
X129778285Y-119721333D01*
X129730666Y-119626095D01*
X129730666Y-119530857D01*
X129778285Y-119435619D01*
X129825904Y-119388000D01*
X129921142Y-119340380D01*
X130159238Y-119340380D01*
X130302095Y-119388000D01*
X130635428Y-119340380D02*
X130873523Y-120340380D01*
X131064000Y-119626095D01*
X131254476Y-120340380D01*
X131492571Y-119340380D01*
X132397333Y-120340380D02*
X131825904Y-120340380D01*
X132111619Y-120340380D02*
X132111619Y-119340380D01*
X132016380Y-119483238D01*
X131921142Y-119578476D01*
X131825904Y-119626095D01*
%TO.C,TP1*%
D10*
X134753476Y-114369904D02*
X135210619Y-114369904D01*
X134982047Y-115169904D02*
X134982047Y-114369904D01*
X135477285Y-115169904D02*
X135477285Y-114369904D01*
X135782047Y-114369904D01*
X135858238Y-114408000D01*
X135896333Y-114446095D01*
X135934428Y-114522285D01*
X135934428Y-114636571D01*
X135896333Y-114712761D01*
X135858238Y-114750857D01*
X135782047Y-114788952D01*
X135477285Y-114788952D01*
X136696333Y-115169904D02*
X136239190Y-115169904D01*
X136467761Y-115169904D02*
X136467761Y-114369904D01*
X136391571Y-114484190D01*
X136315380Y-114560380D01*
X136239190Y-114598476D01*
%TO.C,TP2*%
X128530476Y-114369904D02*
X128987619Y-114369904D01*
X128759047Y-115169904D02*
X128759047Y-114369904D01*
X129254285Y-115169904D02*
X129254285Y-114369904D01*
X129559047Y-114369904D01*
X129635238Y-114408000D01*
X129673333Y-114446095D01*
X129711428Y-114522285D01*
X129711428Y-114636571D01*
X129673333Y-114712761D01*
X129635238Y-114750857D01*
X129559047Y-114788952D01*
X129254285Y-114788952D01*
X130016190Y-114446095D02*
X130054285Y-114408000D01*
X130130476Y-114369904D01*
X130320952Y-114369904D01*
X130397142Y-114408000D01*
X130435238Y-114446095D01*
X130473333Y-114522285D01*
X130473333Y-114598476D01*
X130435238Y-114712761D01*
X129978095Y-115169904D01*
X130473333Y-115169904D01*
%TO.C,TP3*%
X131705476Y-114369904D02*
X132162619Y-114369904D01*
X131934047Y-115169904D02*
X131934047Y-114369904D01*
X132429285Y-115169904D02*
X132429285Y-114369904D01*
X132734047Y-114369904D01*
X132810238Y-114408000D01*
X132848333Y-114446095D01*
X132886428Y-114522285D01*
X132886428Y-114636571D01*
X132848333Y-114712761D01*
X132810238Y-114750857D01*
X132734047Y-114788952D01*
X132429285Y-114788952D01*
X133153095Y-114369904D02*
X133648333Y-114369904D01*
X133381666Y-114674666D01*
X133495952Y-114674666D01*
X133572142Y-114712761D01*
X133610238Y-114750857D01*
X133648333Y-114827047D01*
X133648333Y-115017523D01*
X133610238Y-115093714D01*
X133572142Y-115131809D01*
X133495952Y-115169904D01*
X133267380Y-115169904D01*
X133191190Y-115131809D01*
X133153095Y-115093714D01*
%TO.C,TP4*%
X125355476Y-114369904D02*
X125812619Y-114369904D01*
X125584047Y-115169904D02*
X125584047Y-114369904D01*
X126079285Y-115169904D02*
X126079285Y-114369904D01*
X126384047Y-114369904D01*
X126460238Y-114408000D01*
X126498333Y-114446095D01*
X126536428Y-114522285D01*
X126536428Y-114636571D01*
X126498333Y-114712761D01*
X126460238Y-114750857D01*
X126384047Y-114788952D01*
X126079285Y-114788952D01*
X127222142Y-114636571D02*
X127222142Y-115169904D01*
X127031666Y-114331809D02*
X126841190Y-114903238D01*
X127336428Y-114903238D01*
%TO.C,TP7*%
X122307476Y-103320904D02*
X122764619Y-103320904D01*
X122536047Y-104120904D02*
X122536047Y-103320904D01*
X123031285Y-104120904D02*
X123031285Y-103320904D01*
X123336047Y-103320904D01*
X123412238Y-103359000D01*
X123450333Y-103397095D01*
X123488428Y-103473285D01*
X123488428Y-103587571D01*
X123450333Y-103663761D01*
X123412238Y-103701857D01*
X123336047Y-103739952D01*
X123031285Y-103739952D01*
X123755095Y-103320904D02*
X124288428Y-103320904D01*
X123945571Y-104120904D01*
%TO.C,TP8*%
X138309476Y-102812904D02*
X138766619Y-102812904D01*
X138538047Y-103612904D02*
X138538047Y-102812904D01*
X139033285Y-103612904D02*
X139033285Y-102812904D01*
X139338047Y-102812904D01*
X139414238Y-102851000D01*
X139452333Y-102889095D01*
X139490428Y-102965285D01*
X139490428Y-103079571D01*
X139452333Y-103155761D01*
X139414238Y-103193857D01*
X139338047Y-103231952D01*
X139033285Y-103231952D01*
X139947571Y-103155761D02*
X139871380Y-103117666D01*
X139833285Y-103079571D01*
X139795190Y-103003380D01*
X139795190Y-102965285D01*
X139833285Y-102889095D01*
X139871380Y-102851000D01*
X139947571Y-102812904D01*
X140099952Y-102812904D01*
X140176142Y-102851000D01*
X140214238Y-102889095D01*
X140252333Y-102965285D01*
X140252333Y-103003380D01*
X140214238Y-103079571D01*
X140176142Y-103117666D01*
X140099952Y-103155761D01*
X139947571Y-103155761D01*
X139871380Y-103193857D01*
X139833285Y-103231952D01*
X139795190Y-103308142D01*
X139795190Y-103460523D01*
X139833285Y-103536714D01*
X139871380Y-103574809D01*
X139947571Y-103612904D01*
X140099952Y-103612904D01*
X140176142Y-103574809D01*
X140214238Y-103536714D01*
X140252333Y-103460523D01*
X140252333Y-103308142D01*
X140214238Y-103231952D01*
X140176142Y-103193857D01*
X140099952Y-103155761D01*
%TO.C,TP9*%
X122307476Y-99510904D02*
X122764619Y-99510904D01*
X122536047Y-100310904D02*
X122536047Y-99510904D01*
X123031285Y-100310904D02*
X123031285Y-99510904D01*
X123336047Y-99510904D01*
X123412238Y-99549000D01*
X123450333Y-99587095D01*
X123488428Y-99663285D01*
X123488428Y-99777571D01*
X123450333Y-99853761D01*
X123412238Y-99891857D01*
X123336047Y-99929952D01*
X123031285Y-99929952D01*
X123869380Y-100310904D02*
X124021761Y-100310904D01*
X124097952Y-100272809D01*
X124136047Y-100234714D01*
X124212238Y-100120428D01*
X124250333Y-99968047D01*
X124250333Y-99663285D01*
X124212238Y-99587095D01*
X124174142Y-99549000D01*
X124097952Y-99510904D01*
X123945571Y-99510904D01*
X123869380Y-99549000D01*
X123831285Y-99587095D01*
X123793190Y-99663285D01*
X123793190Y-99853761D01*
X123831285Y-99929952D01*
X123869380Y-99968047D01*
X123945571Y-100006142D01*
X124097952Y-100006142D01*
X124174142Y-99968047D01*
X124212238Y-99929952D01*
X124250333Y-99853761D01*
%TO.C,U1*%
D15*
X124547380Y-108330904D02*
X125356904Y-108330904D01*
X125452142Y-108283285D01*
X125499761Y-108235666D01*
X125547380Y-108140428D01*
X125547380Y-107949952D01*
X125499761Y-107854714D01*
X125452142Y-107807095D01*
X125356904Y-107759476D01*
X124547380Y-107759476D01*
X125547380Y-106759476D02*
X125547380Y-107330904D01*
X125547380Y-107045190D02*
X124547380Y-107045190D01*
X124690238Y-107140428D01*
X124785476Y-107235666D01*
X124833095Y-107330904D01*
%TD*%
M02*
