%TF.GenerationSoftware,KiCad,Pcbnew,5.1.10-88a1d61d58~88~ubuntu18.04.1*%
%TF.CreationDate,2021-08-09T12:07:12+05:30*%
%TF.ProjectId,dhadak,64686164-616b-42e6-9b69-6361645f7063,1*%
%TF.SameCoordinates,Original*%
%TF.FileFunction,Legend,Bot*%
%TF.FilePolarity,Positive*%
%FSLAX46Y46*%
G04 Gerber Fmt 4.6, Leading zero omitted, Abs format (unit mm)*
G04 Created by KiCad (PCBNEW 5.1.10-88a1d61d58~88~ubuntu18.04.1) date 2021-08-09 12:07:12*
%MOMM*%
%LPD*%
G01*
G04 APERTURE LIST*
%ADD10C,0.400000*%
%ADD11C,0.110000*%
%ADD12C,0.120000*%
%ADD13C,0.150000*%
%ADD14C,0.130000*%
G04 APERTURE END LIST*
D10*
X126544605Y-96647000D02*
G75*
G03*
X126544605Y-96647000I-52605J0D01*
G01*
D11*
X128701666Y-93850666D02*
X128701666Y-94417333D01*
X128668333Y-94484000D01*
X128635000Y-94517333D01*
X128568333Y-94550666D01*
X128435000Y-94550666D01*
X128368333Y-94517333D01*
X128335000Y-94484000D01*
X128301666Y-94417333D01*
X128301666Y-93850666D01*
X127968333Y-94550666D02*
X127968333Y-93850666D01*
X127701666Y-93850666D01*
X127635000Y-93884000D01*
X127601666Y-93917333D01*
X127568333Y-93984000D01*
X127568333Y-94084000D01*
X127601666Y-94150666D01*
X127635000Y-94184000D01*
X127701666Y-94217333D01*
X127968333Y-94217333D01*
X127268333Y-94550666D02*
X127268333Y-93850666D01*
X127101666Y-93850666D01*
X127001666Y-93884000D01*
X126935000Y-93950666D01*
X126901666Y-94017333D01*
X126868333Y-94150666D01*
X126868333Y-94250666D01*
X126901666Y-94384000D01*
X126935000Y-94450666D01*
X127001666Y-94517333D01*
X127101666Y-94550666D01*
X127268333Y-94550666D01*
X126568333Y-94550666D02*
X126568333Y-93850666D01*
X125478333Y-94550666D02*
X125711666Y-94217333D01*
X125878333Y-94550666D02*
X125878333Y-93850666D01*
X125611666Y-93850666D01*
X125545000Y-93884000D01*
X125511666Y-93917333D01*
X125478333Y-93984000D01*
X125478333Y-94084000D01*
X125511666Y-94150666D01*
X125545000Y-94184000D01*
X125611666Y-94217333D01*
X125878333Y-94217333D01*
X125211666Y-94517333D02*
X125111666Y-94550666D01*
X124945000Y-94550666D01*
X124878333Y-94517333D01*
X124845000Y-94484000D01*
X124811666Y-94417333D01*
X124811666Y-94350666D01*
X124845000Y-94284000D01*
X124878333Y-94250666D01*
X124945000Y-94217333D01*
X125078333Y-94184000D01*
X125145000Y-94150666D01*
X125178333Y-94117333D01*
X125211666Y-94050666D01*
X125211666Y-93984000D01*
X125178333Y-93917333D01*
X125145000Y-93884000D01*
X125078333Y-93850666D01*
X124911666Y-93850666D01*
X124811666Y-93884000D01*
X124611666Y-93850666D02*
X124211666Y-93850666D01*
X124411666Y-94550666D02*
X124411666Y-93850666D01*
X123488333Y-93850666D02*
X123255000Y-94550666D01*
X123021666Y-93850666D01*
X122388333Y-94484000D02*
X122421666Y-94517333D01*
X122521666Y-94550666D01*
X122588333Y-94550666D01*
X122688333Y-94517333D01*
X122755000Y-94450666D01*
X122788333Y-94384000D01*
X122821666Y-94250666D01*
X122821666Y-94150666D01*
X122788333Y-94017333D01*
X122755000Y-93950666D01*
X122688333Y-93884000D01*
X122588333Y-93850666D01*
X122521666Y-93850666D01*
X122421666Y-93884000D01*
X122388333Y-93917333D01*
X121688333Y-94484000D02*
X121721666Y-94517333D01*
X121821666Y-94550666D01*
X121888333Y-94550666D01*
X121988333Y-94517333D01*
X122055000Y-94450666D01*
X122088333Y-94384000D01*
X122121666Y-94250666D01*
X122121666Y-94150666D01*
X122088333Y-94017333D01*
X122055000Y-93950666D01*
X121988333Y-93884000D01*
X121888333Y-93850666D01*
X121821666Y-93850666D01*
X121721666Y-93884000D01*
X121688333Y-93917333D01*
X120548333Y-93884000D02*
X120615000Y-93850666D01*
X120715000Y-93850666D01*
X120815000Y-93884000D01*
X120881666Y-93950666D01*
X120915000Y-94017333D01*
X120948333Y-94150666D01*
X120948333Y-94250666D01*
X120915000Y-94384000D01*
X120881666Y-94450666D01*
X120815000Y-94517333D01*
X120715000Y-94550666D01*
X120648333Y-94550666D01*
X120548333Y-94517333D01*
X120515000Y-94484000D01*
X120515000Y-94250666D01*
X120648333Y-94250666D01*
X120215000Y-94550666D02*
X120215000Y-93850666D01*
X119815000Y-94550666D01*
X119815000Y-93850666D01*
X119481666Y-94550666D02*
X119481666Y-93850666D01*
X119315000Y-93850666D01*
X119215000Y-93884000D01*
X119148333Y-93950666D01*
X119115000Y-94017333D01*
X119081666Y-94150666D01*
X119081666Y-94250666D01*
X119115000Y-94384000D01*
X119148333Y-94450666D01*
X119215000Y-94517333D01*
X119315000Y-94550666D01*
X119481666Y-94550666D01*
X142265333Y-93884000D02*
X142332000Y-93850666D01*
X142432000Y-93850666D01*
X142532000Y-93884000D01*
X142598666Y-93950666D01*
X142632000Y-94017333D01*
X142665333Y-94150666D01*
X142665333Y-94250666D01*
X142632000Y-94384000D01*
X142598666Y-94450666D01*
X142532000Y-94517333D01*
X142432000Y-94550666D01*
X142365333Y-94550666D01*
X142265333Y-94517333D01*
X142232000Y-94484000D01*
X142232000Y-94250666D01*
X142365333Y-94250666D01*
X141932000Y-94550666D02*
X141932000Y-93850666D01*
X141532000Y-94550666D01*
X141532000Y-93850666D01*
X141198666Y-94550666D02*
X141198666Y-93850666D01*
X141032000Y-93850666D01*
X140932000Y-93884000D01*
X140865333Y-93950666D01*
X140832000Y-94017333D01*
X140798666Y-94150666D01*
X140798666Y-94250666D01*
X140832000Y-94384000D01*
X140865333Y-94450666D01*
X140932000Y-94517333D01*
X141032000Y-94550666D01*
X141198666Y-94550666D01*
X139848333Y-94184000D02*
X139748333Y-94217333D01*
X139715000Y-94250666D01*
X139681666Y-94317333D01*
X139681666Y-94417333D01*
X139715000Y-94484000D01*
X139748333Y-94517333D01*
X139815000Y-94550666D01*
X140081666Y-94550666D01*
X140081666Y-93850666D01*
X139848333Y-93850666D01*
X139781666Y-93884000D01*
X139748333Y-93917333D01*
X139715000Y-93984000D01*
X139715000Y-94050666D01*
X139748333Y-94117333D01*
X139781666Y-94150666D01*
X139848333Y-94184000D01*
X140081666Y-94184000D01*
X139415000Y-94350666D02*
X139081666Y-94350666D01*
X139481666Y-94550666D02*
X139248333Y-93850666D01*
X139015000Y-94550666D01*
X138881666Y-93850666D02*
X138481666Y-93850666D01*
X138681666Y-94550666D02*
X138681666Y-93850666D01*
X138348333Y-93850666D02*
X137948333Y-93850666D01*
X138148333Y-94550666D02*
X138148333Y-93850666D01*
X137331333Y-93850666D02*
X137098000Y-94550666D01*
X136864666Y-93850666D01*
X136231333Y-94484000D02*
X136264666Y-94517333D01*
X136364666Y-94550666D01*
X136431333Y-94550666D01*
X136531333Y-94517333D01*
X136598000Y-94450666D01*
X136631333Y-94384000D01*
X136664666Y-94250666D01*
X136664666Y-94150666D01*
X136631333Y-94017333D01*
X136598000Y-93950666D01*
X136531333Y-93884000D01*
X136431333Y-93850666D01*
X136364666Y-93850666D01*
X136264666Y-93884000D01*
X136231333Y-93917333D01*
X135531333Y-94484000D02*
X135564666Y-94517333D01*
X135664666Y-94550666D01*
X135731333Y-94550666D01*
X135831333Y-94517333D01*
X135898000Y-94450666D01*
X135931333Y-94384000D01*
X135964666Y-94250666D01*
X135964666Y-94150666D01*
X135931333Y-94017333D01*
X135898000Y-93950666D01*
X135831333Y-93884000D01*
X135731333Y-93850666D01*
X135664666Y-93850666D01*
X135564666Y-93884000D01*
X135531333Y-93917333D01*
X134335000Y-94550666D02*
X134335000Y-93850666D01*
X133601666Y-94550666D02*
X133835000Y-94217333D01*
X134001666Y-94550666D02*
X134001666Y-93850666D01*
X133735000Y-93850666D01*
X133668333Y-93884000D01*
X133635000Y-93917333D01*
X133601666Y-93984000D01*
X133601666Y-94084000D01*
X133635000Y-94150666D01*
X133668333Y-94184000D01*
X133735000Y-94217333D01*
X134001666Y-94217333D01*
X131768000Y-94550666D02*
X132001333Y-94217333D01*
X132168000Y-94550666D02*
X132168000Y-93850666D01*
X131901333Y-93850666D01*
X131834666Y-93884000D01*
X131801333Y-93917333D01*
X131768000Y-93984000D01*
X131768000Y-94084000D01*
X131801333Y-94150666D01*
X131834666Y-94184000D01*
X131901333Y-94217333D01*
X132168000Y-94217333D01*
X131468000Y-94184000D02*
X131234666Y-94184000D01*
X131134666Y-94550666D02*
X131468000Y-94550666D01*
X131468000Y-93850666D01*
X131134666Y-93850666D01*
X130834666Y-94550666D02*
X130834666Y-93850666D01*
X130668000Y-93850666D01*
X130568000Y-93884000D01*
X130501333Y-93950666D01*
X130468000Y-94017333D01*
X130434666Y-94150666D01*
X130434666Y-94250666D01*
X130468000Y-94384000D01*
X130501333Y-94450666D01*
X130568000Y-94517333D01*
X130668000Y-94550666D01*
X130834666Y-94550666D01*
D10*
X128068605Y-110490000D02*
G75*
G03*
X128068605Y-110490000I-52605J0D01*
G01*
D12*
%TO.C,C6*%
X129313000Y-96451748D02*
X129313000Y-96974252D01*
X130783000Y-96451748D02*
X130783000Y-96974252D01*
%TO.C,C9*%
X122674748Y-106707000D02*
X123197252Y-106707000D01*
X122674748Y-108177000D02*
X123197252Y-108177000D01*
%TO.C,U2*%
X128581000Y-113538000D02*
X128581000Y-109938000D01*
X128581000Y-113538000D02*
X128581000Y-115738000D01*
X133801000Y-113538000D02*
X133801000Y-111338000D01*
X133801000Y-113538000D02*
X133801000Y-115738000D01*
%TO.C,C3*%
X129912164Y-98700000D02*
X130127836Y-98700000D01*
X129912164Y-99420000D02*
X130127836Y-99420000D01*
%TO.C,C4*%
X127910000Y-95876164D02*
X127910000Y-96091836D01*
X128630000Y-95876164D02*
X128630000Y-96091836D01*
%TO.C,C5*%
X127908164Y-101452000D02*
X128123836Y-101452000D01*
X127908164Y-100732000D02*
X128123836Y-100732000D01*
%TO.C,C10*%
X130702164Y-108606000D02*
X130917836Y-108606000D01*
X130702164Y-109326000D02*
X130917836Y-109326000D01*
%TO.C,IC1*%
X125049999Y-100379001D02*
X122849999Y-100379001D01*
X125049999Y-100379001D02*
X127249999Y-100379001D01*
X125049999Y-97159001D02*
X122849999Y-97159001D01*
X125049999Y-97159001D02*
X128649999Y-97159001D01*
%TO.C,J3*%
X118066000Y-106470000D02*
X119126000Y-106470000D01*
X118066000Y-105410000D02*
X118066000Y-106470000D01*
X118066000Y-104410000D02*
X120186000Y-104410000D01*
X120186000Y-104410000D02*
X120186000Y-102350000D01*
X118066000Y-104410000D02*
X118066000Y-102350000D01*
X118066000Y-102350000D02*
X120186000Y-102350000D01*
%TO.C,Q1*%
X135765000Y-102672000D02*
X135765000Y-101742000D01*
X135765000Y-99512000D02*
X135765000Y-100442000D01*
X135765000Y-99512000D02*
X137925000Y-99512000D01*
X135765000Y-102672000D02*
X137225000Y-102672000D01*
%TO.C,Q2*%
X141222000Y-99512000D02*
X141222000Y-100442000D01*
X141222000Y-102672000D02*
X141222000Y-101742000D01*
X141222000Y-102672000D02*
X139062000Y-102672000D01*
X141222000Y-99512000D02*
X139762000Y-99512000D01*
%TO.C,Q3*%
X137485000Y-96268000D02*
X137485000Y-97728000D01*
X140645000Y-96268000D02*
X140645000Y-98428000D01*
X140645000Y-96268000D02*
X139715000Y-96268000D01*
X137485000Y-96268000D02*
X138415000Y-96268000D01*
%TO.C,Q7*%
X140952000Y-104846000D02*
X140952000Y-105776000D01*
X140952000Y-108006000D02*
X140952000Y-107076000D01*
X140952000Y-108006000D02*
X138792000Y-108006000D01*
X140952000Y-104846000D02*
X139492000Y-104846000D01*
%TO.C,Q8*%
X123319000Y-112578000D02*
X123319000Y-111648000D01*
X123319000Y-109418000D02*
X123319000Y-110348000D01*
X123319000Y-109418000D02*
X125479000Y-109418000D01*
X123319000Y-112578000D02*
X124779000Y-112578000D01*
%TO.C,Q9*%
X137162000Y-112197000D02*
X137162000Y-111267000D01*
X137162000Y-109037000D02*
X137162000Y-109967000D01*
X137162000Y-109037000D02*
X139322000Y-109037000D01*
X137162000Y-112197000D02*
X138622000Y-112197000D01*
%TO.C,Q10*%
X122934000Y-113482000D02*
X121474000Y-113482000D01*
X122934000Y-116642000D02*
X120774000Y-116642000D01*
X122934000Y-116642000D02*
X122934000Y-115712000D01*
X122934000Y-113482000D02*
X122934000Y-114412000D01*
%TO.C,Q11*%
X136273000Y-125405000D02*
X136273000Y-124475000D01*
X136273000Y-122245000D02*
X136273000Y-123175000D01*
X136273000Y-122245000D02*
X138433000Y-122245000D01*
X136273000Y-125405000D02*
X137733000Y-125405000D01*
%TO.C,Q12*%
X120521000Y-120340000D02*
X119061000Y-120340000D01*
X120521000Y-123500000D02*
X118361000Y-123500000D01*
X120521000Y-123500000D02*
X120521000Y-122570000D01*
X120521000Y-120340000D02*
X120521000Y-121270000D01*
%TO.C,Q13*%
X142931000Y-124601000D02*
X142001000Y-124601000D01*
X139771000Y-124601000D02*
X140701000Y-124601000D01*
X139771000Y-124601000D02*
X139771000Y-122441000D01*
X142931000Y-124601000D02*
X142931000Y-123141000D01*
%TO.C,Q14*%
X126167000Y-126363000D02*
X126167000Y-124903000D01*
X123007000Y-126363000D02*
X123007000Y-124203000D01*
X123007000Y-126363000D02*
X123937000Y-126363000D01*
X126167000Y-126363000D02*
X125237000Y-126363000D01*
%TO.C,Q15*%
X141861000Y-116769000D02*
X143321000Y-116769000D01*
X141861000Y-113609000D02*
X144021000Y-113609000D01*
X141861000Y-113609000D02*
X141861000Y-114539000D01*
X141861000Y-116769000D02*
X141861000Y-115839000D01*
%TO.C,Q16*%
X131459000Y-122118000D02*
X129999000Y-122118000D01*
X131459000Y-125278000D02*
X129299000Y-125278000D01*
X131459000Y-125278000D02*
X131459000Y-124348000D01*
X131459000Y-122118000D02*
X131459000Y-123048000D01*
%TO.C,R4*%
X131725641Y-103885000D02*
X131418359Y-103885000D01*
X131725641Y-103125000D02*
X131418359Y-103125000D01*
%TO.C,R5*%
X137059641Y-104139000D02*
X136752359Y-104139000D01*
X137059641Y-103379000D02*
X136752359Y-103379000D01*
%TO.C,R6*%
X142848000Y-96673936D02*
X142848000Y-97128064D01*
X141378000Y-96673936D02*
X141378000Y-97128064D01*
%TO.C,R7*%
X134492000Y-98523359D02*
X134492000Y-98830641D01*
X133732000Y-98523359D02*
X133732000Y-98830641D01*
%TO.C,R8*%
X134748000Y-96364359D02*
X134748000Y-96671641D01*
X135508000Y-96364359D02*
X135508000Y-96671641D01*
%TO.C,R14*%
X119254000Y-99088641D02*
X119254000Y-98781359D01*
X120014000Y-99088641D02*
X120014000Y-98781359D01*
%TO.C,R15*%
X119254000Y-96110359D02*
X119254000Y-96417641D01*
X120014000Y-96110359D02*
X120014000Y-96417641D01*
%TO.C,R16*%
X122173000Y-103224359D02*
X122173000Y-103531641D01*
X121413000Y-103224359D02*
X121413000Y-103531641D01*
%TO.C,R17*%
X127024641Y-104522000D02*
X126717359Y-104522000D01*
X127024641Y-105282000D02*
X126717359Y-105282000D01*
%TO.C,R18*%
X129947641Y-106552000D02*
X129640359Y-106552000D01*
X129947641Y-105792000D02*
X129640359Y-105792000D01*
%TO.C,R19*%
X127761000Y-107339641D02*
X127761000Y-107032359D01*
X127001000Y-107339641D02*
X127001000Y-107032359D01*
%TO.C,R20*%
X133122641Y-106300000D02*
X132815359Y-106300000D01*
X133122641Y-107060000D02*
X132815359Y-107060000D01*
%TO.C,R21*%
X135891000Y-107161359D02*
X135891000Y-107468641D01*
X136651000Y-107161359D02*
X136651000Y-107468641D01*
%TO.C,R22*%
X119099359Y-107316000D02*
X119406641Y-107316000D01*
X119099359Y-108076000D02*
X119406641Y-108076000D01*
%TO.C,R23*%
X141098000Y-109449359D02*
X141098000Y-109756641D01*
X141858000Y-109449359D02*
X141858000Y-109756641D01*
%TO.C,R24*%
X119099359Y-111253000D02*
X119406641Y-111253000D01*
X119099359Y-112013000D02*
X119406641Y-112013000D01*
%TO.C,R25*%
X141858000Y-112292641D02*
X141858000Y-111985359D01*
X141098000Y-112292641D02*
X141098000Y-111985359D01*
%TO.C,R26*%
X119000000Y-114453641D02*
X119000000Y-114146359D01*
X119760000Y-114453641D02*
X119760000Y-114146359D01*
%TO.C,R27*%
X136016000Y-112497359D02*
X136016000Y-112804641D01*
X135256000Y-112497359D02*
X135256000Y-112804641D01*
%TO.C,R28*%
X125096000Y-115289359D02*
X125096000Y-115596641D01*
X125856000Y-115289359D02*
X125856000Y-115596641D01*
%TO.C,R29*%
X140308359Y-120905000D02*
X140615641Y-120905000D01*
X140308359Y-121665000D02*
X140615641Y-121665000D01*
%TO.C,R30*%
X118843359Y-126110000D02*
X119150641Y-126110000D01*
X118843359Y-125350000D02*
X119150641Y-125350000D01*
%TO.C,R31*%
X138022359Y-119506000D02*
X138329641Y-119506000D01*
X138022359Y-118746000D02*
X138329641Y-118746000D01*
%TO.C,R32*%
X117984000Y-118771641D02*
X117984000Y-118464359D01*
X118744000Y-118771641D02*
X118744000Y-118464359D01*
%TO.C,R33*%
X134240000Y-118517641D02*
X134240000Y-118210359D01*
X135000000Y-118517641D02*
X135000000Y-118210359D01*
%TO.C,R34*%
X128269000Y-118644641D02*
X128269000Y-118337359D01*
X127509000Y-118644641D02*
X127509000Y-118337359D01*
%TO.C,R35*%
X143229359Y-120905000D02*
X143536641Y-120905000D01*
X143229359Y-121665000D02*
X143536641Y-121665000D01*
%TO.C,R36*%
X124867641Y-122302000D02*
X124560359Y-122302000D01*
X124867641Y-123062000D02*
X124560359Y-123062000D01*
%TO.C,R37*%
X141703359Y-125731000D02*
X142010641Y-125731000D01*
X141703359Y-126491000D02*
X142010641Y-126491000D01*
%TO.C,R38*%
X124867641Y-120395000D02*
X124560359Y-120395000D01*
X124867641Y-119635000D02*
X124560359Y-119635000D01*
%TO.C,R39*%
X143229359Y-111632000D02*
X143536641Y-111632000D01*
X143229359Y-110872000D02*
X143536641Y-110872000D01*
%TO.C,R40*%
X137006359Y-126874000D02*
X137313641Y-126874000D01*
X137006359Y-127634000D02*
X137313641Y-127634000D01*
%TO.C,R41*%
X136526000Y-115721641D02*
X136526000Y-115414359D01*
X137286000Y-115721641D02*
X137286000Y-115414359D01*
%TO.C,R42*%
X130682000Y-119916641D02*
X130682000Y-119609359D01*
X129922000Y-119916641D02*
X129922000Y-119609359D01*
%TO.C,R43*%
X138304000Y-115721641D02*
X138304000Y-115414359D01*
X139064000Y-115721641D02*
X139064000Y-115414359D01*
%TO.C,R44*%
X132079000Y-119914641D02*
X132079000Y-119607359D01*
X131319000Y-119914641D02*
X131319000Y-119607359D01*
%TO.C,C6*%
D13*
X132056142Y-96607333D02*
X132103761Y-96559714D01*
X132151380Y-96416857D01*
X132151380Y-96321619D01*
X132103761Y-96178761D01*
X132008523Y-96083523D01*
X131913285Y-96035904D01*
X131722809Y-95988285D01*
X131579952Y-95988285D01*
X131389476Y-96035904D01*
X131294238Y-96083523D01*
X131199000Y-96178761D01*
X131151380Y-96321619D01*
X131151380Y-96416857D01*
X131199000Y-96559714D01*
X131246619Y-96607333D01*
X131151380Y-97464476D02*
X131151380Y-97274000D01*
X131199000Y-97178761D01*
X131246619Y-97131142D01*
X131389476Y-97035904D01*
X131579952Y-96988285D01*
X131960904Y-96988285D01*
X132056142Y-97035904D01*
X132103761Y-97083523D01*
X132151380Y-97178761D01*
X132151380Y-97369238D01*
X132103761Y-97464476D01*
X132056142Y-97512095D01*
X131960904Y-97559714D01*
X131722809Y-97559714D01*
X131627571Y-97512095D01*
X131579952Y-97464476D01*
X131532333Y-97369238D01*
X131532333Y-97178761D01*
X131579952Y-97083523D01*
X131627571Y-97035904D01*
X131722809Y-96988285D01*
%TO.C,C9*%
X123102666Y-106148142D02*
X123150285Y-106195761D01*
X123293142Y-106243380D01*
X123388380Y-106243380D01*
X123531238Y-106195761D01*
X123626476Y-106100523D01*
X123674095Y-106005285D01*
X123721714Y-105814809D01*
X123721714Y-105671952D01*
X123674095Y-105481476D01*
X123626476Y-105386238D01*
X123531238Y-105291000D01*
X123388380Y-105243380D01*
X123293142Y-105243380D01*
X123150285Y-105291000D01*
X123102666Y-105338619D01*
X122626476Y-106243380D02*
X122436000Y-106243380D01*
X122340761Y-106195761D01*
X122293142Y-106148142D01*
X122197904Y-106005285D01*
X122150285Y-105814809D01*
X122150285Y-105433857D01*
X122197904Y-105338619D01*
X122245523Y-105291000D01*
X122340761Y-105243380D01*
X122531238Y-105243380D01*
X122626476Y-105291000D01*
X122674095Y-105338619D01*
X122721714Y-105433857D01*
X122721714Y-105671952D01*
X122674095Y-105767190D01*
X122626476Y-105814809D01*
X122531238Y-105862428D01*
X122340761Y-105862428D01*
X122245523Y-105814809D01*
X122197904Y-105767190D01*
X122150285Y-105671952D01*
%TO.C,U2*%
X127214380Y-112776095D02*
X128023904Y-112776095D01*
X128119142Y-112823714D01*
X128166761Y-112871333D01*
X128214380Y-112966571D01*
X128214380Y-113157047D01*
X128166761Y-113252285D01*
X128119142Y-113299904D01*
X128023904Y-113347523D01*
X127214380Y-113347523D01*
X127309619Y-113776095D02*
X127262000Y-113823714D01*
X127214380Y-113918952D01*
X127214380Y-114157047D01*
X127262000Y-114252285D01*
X127309619Y-114299904D01*
X127404857Y-114347523D01*
X127500095Y-114347523D01*
X127642952Y-114299904D01*
X128214380Y-113728476D01*
X128214380Y-114347523D01*
%TO.C,C3*%
D14*
X130153333Y-100488714D02*
X130191428Y-100526809D01*
X130305714Y-100564904D01*
X130381904Y-100564904D01*
X130496190Y-100526809D01*
X130572380Y-100450619D01*
X130610476Y-100374428D01*
X130648571Y-100222047D01*
X130648571Y-100107761D01*
X130610476Y-99955380D01*
X130572380Y-99879190D01*
X130496190Y-99803000D01*
X130381904Y-99764904D01*
X130305714Y-99764904D01*
X130191428Y-99803000D01*
X130153333Y-99841095D01*
X129886666Y-99764904D02*
X129391428Y-99764904D01*
X129658095Y-100069666D01*
X129543809Y-100069666D01*
X129467619Y-100107761D01*
X129429523Y-100145857D01*
X129391428Y-100222047D01*
X129391428Y-100412523D01*
X129429523Y-100488714D01*
X129467619Y-100526809D01*
X129543809Y-100564904D01*
X129772380Y-100564904D01*
X129848571Y-100526809D01*
X129886666Y-100488714D01*
%TO.C,C4*%
X127539714Y-95723666D02*
X127577809Y-95685571D01*
X127615904Y-95571285D01*
X127615904Y-95495095D01*
X127577809Y-95380809D01*
X127501619Y-95304619D01*
X127425428Y-95266523D01*
X127273047Y-95228428D01*
X127158761Y-95228428D01*
X127006380Y-95266523D01*
X126930190Y-95304619D01*
X126854000Y-95380809D01*
X126815904Y-95495095D01*
X126815904Y-95571285D01*
X126854000Y-95685571D01*
X126892095Y-95723666D01*
X127082571Y-96409380D02*
X127615904Y-96409380D01*
X126777809Y-96218904D02*
X127349238Y-96028428D01*
X127349238Y-96523666D01*
%TO.C,C5*%
X128149333Y-102537714D02*
X128187428Y-102575809D01*
X128301714Y-102613904D01*
X128377904Y-102613904D01*
X128492190Y-102575809D01*
X128568380Y-102499619D01*
X128606476Y-102423428D01*
X128644571Y-102271047D01*
X128644571Y-102156761D01*
X128606476Y-102004380D01*
X128568380Y-101928190D01*
X128492190Y-101852000D01*
X128377904Y-101813904D01*
X128301714Y-101813904D01*
X128187428Y-101852000D01*
X128149333Y-101890095D01*
X127425523Y-101813904D02*
X127806476Y-101813904D01*
X127844571Y-102194857D01*
X127806476Y-102156761D01*
X127730285Y-102118666D01*
X127539809Y-102118666D01*
X127463619Y-102156761D01*
X127425523Y-102194857D01*
X127387428Y-102271047D01*
X127387428Y-102461523D01*
X127425523Y-102537714D01*
X127463619Y-102575809D01*
X127539809Y-102613904D01*
X127730285Y-102613904D01*
X127806476Y-102575809D01*
X127844571Y-102537714D01*
%TO.C,C10*%
X131324285Y-108235714D02*
X131362380Y-108273809D01*
X131476666Y-108311904D01*
X131552857Y-108311904D01*
X131667142Y-108273809D01*
X131743333Y-108197619D01*
X131781428Y-108121428D01*
X131819523Y-107969047D01*
X131819523Y-107854761D01*
X131781428Y-107702380D01*
X131743333Y-107626190D01*
X131667142Y-107550000D01*
X131552857Y-107511904D01*
X131476666Y-107511904D01*
X131362380Y-107550000D01*
X131324285Y-107588095D01*
X130562380Y-108311904D02*
X131019523Y-108311904D01*
X130790952Y-108311904D02*
X130790952Y-107511904D01*
X130867142Y-107626190D01*
X130943333Y-107702380D01*
X131019523Y-107740476D01*
X130067142Y-107511904D02*
X129990952Y-107511904D01*
X129914761Y-107550000D01*
X129876666Y-107588095D01*
X129838571Y-107664285D01*
X129800476Y-107816666D01*
X129800476Y-108007142D01*
X129838571Y-108159523D01*
X129876666Y-108235714D01*
X129914761Y-108273809D01*
X129990952Y-108311904D01*
X130067142Y-108311904D01*
X130143333Y-108273809D01*
X130181428Y-108235714D01*
X130219523Y-108159523D01*
X130257619Y-108007142D01*
X130257619Y-107816666D01*
X130219523Y-107664285D01*
X130181428Y-107588095D01*
X130143333Y-107550000D01*
X130067142Y-107511904D01*
%TO.C,IC1*%
D13*
X126071190Y-101798380D02*
X126071190Y-100798380D01*
X125023571Y-101703142D02*
X125071190Y-101750761D01*
X125214047Y-101798380D01*
X125309285Y-101798380D01*
X125452142Y-101750761D01*
X125547380Y-101655523D01*
X125595000Y-101560285D01*
X125642619Y-101369809D01*
X125642619Y-101226952D01*
X125595000Y-101036476D01*
X125547380Y-100941238D01*
X125452142Y-100846000D01*
X125309285Y-100798380D01*
X125214047Y-100798380D01*
X125071190Y-100846000D01*
X125023571Y-100893619D01*
X124071190Y-101798380D02*
X124642619Y-101798380D01*
X124356904Y-101798380D02*
X124356904Y-100798380D01*
X124452142Y-100941238D01*
X124547380Y-101036476D01*
X124642619Y-101084095D01*
%TO.C,J3*%
X119459333Y-100925380D02*
X119459333Y-101639666D01*
X119506952Y-101782523D01*
X119602190Y-101877761D01*
X119745047Y-101925380D01*
X119840285Y-101925380D01*
X119078380Y-100925380D02*
X118459333Y-100925380D01*
X118792666Y-101306333D01*
X118649809Y-101306333D01*
X118554571Y-101353952D01*
X118506952Y-101401571D01*
X118459333Y-101496809D01*
X118459333Y-101734904D01*
X118506952Y-101830142D01*
X118554571Y-101877761D01*
X118649809Y-101925380D01*
X118935523Y-101925380D01*
X119030761Y-101877761D01*
X119078380Y-101830142D01*
%TO.C,Q1*%
X134659619Y-100996761D02*
X134612000Y-100901523D01*
X134516761Y-100806285D01*
X134373904Y-100663428D01*
X134326285Y-100568190D01*
X134326285Y-100472952D01*
X134564380Y-100520571D02*
X134516761Y-100425333D01*
X134421523Y-100330095D01*
X134231047Y-100282476D01*
X133897714Y-100282476D01*
X133707238Y-100330095D01*
X133612000Y-100425333D01*
X133564380Y-100520571D01*
X133564380Y-100711047D01*
X133612000Y-100806285D01*
X133707238Y-100901523D01*
X133897714Y-100949142D01*
X134231047Y-100949142D01*
X134421523Y-100901523D01*
X134516761Y-100806285D01*
X134564380Y-100711047D01*
X134564380Y-100520571D01*
X134564380Y-101901523D02*
X134564380Y-101330095D01*
X134564380Y-101615809D02*
X133564380Y-101615809D01*
X133707238Y-101520571D01*
X133802476Y-101425333D01*
X133850095Y-101330095D01*
%TO.C,Q2*%
X140033238Y-104179619D02*
X140128476Y-104132000D01*
X140223714Y-104036761D01*
X140366571Y-103893904D01*
X140461809Y-103846285D01*
X140557047Y-103846285D01*
X140509428Y-104084380D02*
X140604666Y-104036761D01*
X140699904Y-103941523D01*
X140747523Y-103751047D01*
X140747523Y-103417714D01*
X140699904Y-103227238D01*
X140604666Y-103132000D01*
X140509428Y-103084380D01*
X140318952Y-103084380D01*
X140223714Y-103132000D01*
X140128476Y-103227238D01*
X140080857Y-103417714D01*
X140080857Y-103751047D01*
X140128476Y-103941523D01*
X140223714Y-104036761D01*
X140318952Y-104084380D01*
X140509428Y-104084380D01*
X139699904Y-103179619D02*
X139652285Y-103132000D01*
X139557047Y-103084380D01*
X139318952Y-103084380D01*
X139223714Y-103132000D01*
X139176095Y-103179619D01*
X139128476Y-103274857D01*
X139128476Y-103370095D01*
X139176095Y-103512952D01*
X139747523Y-104084380D01*
X139128476Y-104084380D01*
%TO.C,Q3*%
X137199619Y-96932761D02*
X137152000Y-96837523D01*
X137056761Y-96742285D01*
X136913904Y-96599428D01*
X136866285Y-96504190D01*
X136866285Y-96408952D01*
X137104380Y-96456571D02*
X137056761Y-96361333D01*
X136961523Y-96266095D01*
X136771047Y-96218476D01*
X136437714Y-96218476D01*
X136247238Y-96266095D01*
X136152000Y-96361333D01*
X136104380Y-96456571D01*
X136104380Y-96647047D01*
X136152000Y-96742285D01*
X136247238Y-96837523D01*
X136437714Y-96885142D01*
X136771047Y-96885142D01*
X136961523Y-96837523D01*
X137056761Y-96742285D01*
X137104380Y-96647047D01*
X137104380Y-96456571D01*
X136104380Y-97218476D02*
X136104380Y-97837523D01*
X136485333Y-97504190D01*
X136485333Y-97647047D01*
X136532952Y-97742285D01*
X136580571Y-97789904D01*
X136675809Y-97837523D01*
X136913904Y-97837523D01*
X137009142Y-97789904D01*
X137056761Y-97742285D01*
X137104380Y-97647047D01*
X137104380Y-97361333D01*
X137056761Y-97266095D01*
X137009142Y-97218476D01*
%TO.C,Q7*%
X138326619Y-106330761D02*
X138279000Y-106235523D01*
X138183761Y-106140285D01*
X138040904Y-105997428D01*
X137993285Y-105902190D01*
X137993285Y-105806952D01*
X138231380Y-105854571D02*
X138183761Y-105759333D01*
X138088523Y-105664095D01*
X137898047Y-105616476D01*
X137564714Y-105616476D01*
X137374238Y-105664095D01*
X137279000Y-105759333D01*
X137231380Y-105854571D01*
X137231380Y-106045047D01*
X137279000Y-106140285D01*
X137374238Y-106235523D01*
X137564714Y-106283142D01*
X137898047Y-106283142D01*
X138088523Y-106235523D01*
X138183761Y-106140285D01*
X138231380Y-106045047D01*
X138231380Y-105854571D01*
X137231380Y-106616476D02*
X137231380Y-107283142D01*
X138231380Y-106854571D01*
%TO.C,Q8*%
X127023619Y-110963761D02*
X126976000Y-110868523D01*
X126880761Y-110773285D01*
X126737904Y-110630428D01*
X126690285Y-110535190D01*
X126690285Y-110439952D01*
X126928380Y-110487571D02*
X126880761Y-110392333D01*
X126785523Y-110297095D01*
X126595047Y-110249476D01*
X126261714Y-110249476D01*
X126071238Y-110297095D01*
X125976000Y-110392333D01*
X125928380Y-110487571D01*
X125928380Y-110678047D01*
X125976000Y-110773285D01*
X126071238Y-110868523D01*
X126261714Y-110916142D01*
X126595047Y-110916142D01*
X126785523Y-110868523D01*
X126880761Y-110773285D01*
X126928380Y-110678047D01*
X126928380Y-110487571D01*
X126356952Y-111487571D02*
X126309333Y-111392333D01*
X126261714Y-111344714D01*
X126166476Y-111297095D01*
X126118857Y-111297095D01*
X126023619Y-111344714D01*
X125976000Y-111392333D01*
X125928380Y-111487571D01*
X125928380Y-111678047D01*
X125976000Y-111773285D01*
X126023619Y-111820904D01*
X126118857Y-111868523D01*
X126166476Y-111868523D01*
X126261714Y-111820904D01*
X126309333Y-111773285D01*
X126356952Y-111678047D01*
X126356952Y-111487571D01*
X126404571Y-111392333D01*
X126452190Y-111344714D01*
X126547428Y-111297095D01*
X126737904Y-111297095D01*
X126833142Y-111344714D01*
X126880761Y-111392333D01*
X126928380Y-111487571D01*
X126928380Y-111678047D01*
X126880761Y-111773285D01*
X126833142Y-111820904D01*
X126737904Y-111868523D01*
X126547428Y-111868523D01*
X126452190Y-111820904D01*
X126404571Y-111773285D01*
X126356952Y-111678047D01*
%TO.C,Q9*%
X138017238Y-113704619D02*
X138112476Y-113657000D01*
X138207714Y-113561761D01*
X138350571Y-113418904D01*
X138445809Y-113371285D01*
X138541047Y-113371285D01*
X138493428Y-113609380D02*
X138588666Y-113561761D01*
X138683904Y-113466523D01*
X138731523Y-113276047D01*
X138731523Y-112942714D01*
X138683904Y-112752238D01*
X138588666Y-112657000D01*
X138493428Y-112609380D01*
X138302952Y-112609380D01*
X138207714Y-112657000D01*
X138112476Y-112752238D01*
X138064857Y-112942714D01*
X138064857Y-113276047D01*
X138112476Y-113466523D01*
X138207714Y-113561761D01*
X138302952Y-113609380D01*
X138493428Y-113609380D01*
X137588666Y-113609380D02*
X137398190Y-113609380D01*
X137302952Y-113561761D01*
X137255333Y-113514142D01*
X137160095Y-113371285D01*
X137112476Y-113180809D01*
X137112476Y-112799857D01*
X137160095Y-112704619D01*
X137207714Y-112657000D01*
X137302952Y-112609380D01*
X137493428Y-112609380D01*
X137588666Y-112657000D01*
X137636285Y-112704619D01*
X137683904Y-112799857D01*
X137683904Y-113037952D01*
X137636285Y-113133190D01*
X137588666Y-113180809D01*
X137493428Y-113228428D01*
X137302952Y-113228428D01*
X137207714Y-113180809D01*
X137160095Y-113133190D01*
X137112476Y-113037952D01*
%TO.C,Q10*%
X122745428Y-118109619D02*
X122840666Y-118062000D01*
X122935904Y-117966761D01*
X123078761Y-117823904D01*
X123174000Y-117776285D01*
X123269238Y-117776285D01*
X123221619Y-118014380D02*
X123316857Y-117966761D01*
X123412095Y-117871523D01*
X123459714Y-117681047D01*
X123459714Y-117347714D01*
X123412095Y-117157238D01*
X123316857Y-117062000D01*
X123221619Y-117014380D01*
X123031142Y-117014380D01*
X122935904Y-117062000D01*
X122840666Y-117157238D01*
X122793047Y-117347714D01*
X122793047Y-117681047D01*
X122840666Y-117871523D01*
X122935904Y-117966761D01*
X123031142Y-118014380D01*
X123221619Y-118014380D01*
X121840666Y-118014380D02*
X122412095Y-118014380D01*
X122126380Y-118014380D02*
X122126380Y-117014380D01*
X122221619Y-117157238D01*
X122316857Y-117252476D01*
X122412095Y-117300095D01*
X121221619Y-117014380D02*
X121126380Y-117014380D01*
X121031142Y-117062000D01*
X120983523Y-117109619D01*
X120935904Y-117204857D01*
X120888285Y-117395333D01*
X120888285Y-117633428D01*
X120935904Y-117823904D01*
X120983523Y-117919142D01*
X121031142Y-117966761D01*
X121126380Y-118014380D01*
X121221619Y-118014380D01*
X121316857Y-117966761D01*
X121364476Y-117919142D01*
X121412095Y-117823904D01*
X121459714Y-117633428D01*
X121459714Y-117395333D01*
X121412095Y-117204857D01*
X121364476Y-117109619D01*
X121316857Y-117062000D01*
X121221619Y-117014380D01*
%TO.C,Q11*%
X137858428Y-121959619D02*
X137953666Y-121912000D01*
X138048904Y-121816761D01*
X138191761Y-121673904D01*
X138287000Y-121626285D01*
X138382238Y-121626285D01*
X138334619Y-121864380D02*
X138429857Y-121816761D01*
X138525095Y-121721523D01*
X138572714Y-121531047D01*
X138572714Y-121197714D01*
X138525095Y-121007238D01*
X138429857Y-120912000D01*
X138334619Y-120864380D01*
X138144142Y-120864380D01*
X138048904Y-120912000D01*
X137953666Y-121007238D01*
X137906047Y-121197714D01*
X137906047Y-121531047D01*
X137953666Y-121721523D01*
X138048904Y-121816761D01*
X138144142Y-121864380D01*
X138334619Y-121864380D01*
X136953666Y-121864380D02*
X137525095Y-121864380D01*
X137239380Y-121864380D02*
X137239380Y-120864380D01*
X137334619Y-121007238D01*
X137429857Y-121102476D01*
X137525095Y-121150095D01*
X136001285Y-121864380D02*
X136572714Y-121864380D01*
X136287000Y-121864380D02*
X136287000Y-120864380D01*
X136382238Y-121007238D01*
X136477476Y-121102476D01*
X136572714Y-121150095D01*
%TO.C,Q12*%
X122721619Y-121348571D02*
X122674000Y-121253333D01*
X122578761Y-121158095D01*
X122435904Y-121015238D01*
X122388285Y-120920000D01*
X122388285Y-120824761D01*
X122626380Y-120872380D02*
X122578761Y-120777142D01*
X122483523Y-120681904D01*
X122293047Y-120634285D01*
X121959714Y-120634285D01*
X121769238Y-120681904D01*
X121674000Y-120777142D01*
X121626380Y-120872380D01*
X121626380Y-121062857D01*
X121674000Y-121158095D01*
X121769238Y-121253333D01*
X121959714Y-121300952D01*
X122293047Y-121300952D01*
X122483523Y-121253333D01*
X122578761Y-121158095D01*
X122626380Y-121062857D01*
X122626380Y-120872380D01*
X122626380Y-122253333D02*
X122626380Y-121681904D01*
X122626380Y-121967619D02*
X121626380Y-121967619D01*
X121769238Y-121872380D01*
X121864476Y-121777142D01*
X121912095Y-121681904D01*
X121721619Y-122634285D02*
X121674000Y-122681904D01*
X121626380Y-122777142D01*
X121626380Y-123015238D01*
X121674000Y-123110476D01*
X121721619Y-123158095D01*
X121816857Y-123205714D01*
X121912095Y-123205714D01*
X122054952Y-123158095D01*
X122626380Y-122586666D01*
X122626380Y-123205714D01*
%TO.C,Q13*%
X144438619Y-123269571D02*
X144391000Y-123174333D01*
X144295761Y-123079095D01*
X144152904Y-122936238D01*
X144105285Y-122841000D01*
X144105285Y-122745761D01*
X144343380Y-122793380D02*
X144295761Y-122698142D01*
X144200523Y-122602904D01*
X144010047Y-122555285D01*
X143676714Y-122555285D01*
X143486238Y-122602904D01*
X143391000Y-122698142D01*
X143343380Y-122793380D01*
X143343380Y-122983857D01*
X143391000Y-123079095D01*
X143486238Y-123174333D01*
X143676714Y-123221952D01*
X144010047Y-123221952D01*
X144200523Y-123174333D01*
X144295761Y-123079095D01*
X144343380Y-122983857D01*
X144343380Y-122793380D01*
X144343380Y-124174333D02*
X144343380Y-123602904D01*
X144343380Y-123888619D02*
X143343380Y-123888619D01*
X143486238Y-123793380D01*
X143581476Y-123698142D01*
X143629095Y-123602904D01*
X143343380Y-124507666D02*
X143343380Y-125126714D01*
X143724333Y-124793380D01*
X143724333Y-124936238D01*
X143771952Y-125031476D01*
X143819571Y-125079095D01*
X143914809Y-125126714D01*
X144152904Y-125126714D01*
X144248142Y-125079095D01*
X144295761Y-125031476D01*
X144343380Y-124936238D01*
X144343380Y-124650523D01*
X144295761Y-124555285D01*
X144248142Y-124507666D01*
%TO.C,Q14*%
X122721619Y-125015571D02*
X122674000Y-124920333D01*
X122578761Y-124825095D01*
X122435904Y-124682238D01*
X122388285Y-124587000D01*
X122388285Y-124491761D01*
X122626380Y-124539380D02*
X122578761Y-124444142D01*
X122483523Y-124348904D01*
X122293047Y-124301285D01*
X121959714Y-124301285D01*
X121769238Y-124348904D01*
X121674000Y-124444142D01*
X121626380Y-124539380D01*
X121626380Y-124729857D01*
X121674000Y-124825095D01*
X121769238Y-124920333D01*
X121959714Y-124967952D01*
X122293047Y-124967952D01*
X122483523Y-124920333D01*
X122578761Y-124825095D01*
X122626380Y-124729857D01*
X122626380Y-124539380D01*
X122626380Y-125920333D02*
X122626380Y-125348904D01*
X122626380Y-125634619D02*
X121626380Y-125634619D01*
X121769238Y-125539380D01*
X121864476Y-125444142D01*
X121912095Y-125348904D01*
X121959714Y-126777476D02*
X122626380Y-126777476D01*
X121578761Y-126539380D02*
X122293047Y-126301285D01*
X122293047Y-126920333D01*
%TO.C,Q15*%
X143192428Y-118276619D02*
X143287666Y-118229000D01*
X143382904Y-118133761D01*
X143525761Y-117990904D01*
X143621000Y-117943285D01*
X143716238Y-117943285D01*
X143668619Y-118181380D02*
X143763857Y-118133761D01*
X143859095Y-118038523D01*
X143906714Y-117848047D01*
X143906714Y-117514714D01*
X143859095Y-117324238D01*
X143763857Y-117229000D01*
X143668619Y-117181380D01*
X143478142Y-117181380D01*
X143382904Y-117229000D01*
X143287666Y-117324238D01*
X143240047Y-117514714D01*
X143240047Y-117848047D01*
X143287666Y-118038523D01*
X143382904Y-118133761D01*
X143478142Y-118181380D01*
X143668619Y-118181380D01*
X142287666Y-118181380D02*
X142859095Y-118181380D01*
X142573380Y-118181380D02*
X142573380Y-117181380D01*
X142668619Y-117324238D01*
X142763857Y-117419476D01*
X142859095Y-117467095D01*
X141382904Y-117181380D02*
X141859095Y-117181380D01*
X141906714Y-117657571D01*
X141859095Y-117609952D01*
X141763857Y-117562333D01*
X141525761Y-117562333D01*
X141430523Y-117609952D01*
X141382904Y-117657571D01*
X141335285Y-117752809D01*
X141335285Y-117990904D01*
X141382904Y-118086142D01*
X141430523Y-118133761D01*
X141525761Y-118181380D01*
X141763857Y-118181380D01*
X141859095Y-118133761D01*
X141906714Y-118086142D01*
%TO.C,Q16*%
X131127428Y-126658619D02*
X131222666Y-126611000D01*
X131317904Y-126515761D01*
X131460761Y-126372904D01*
X131556000Y-126325285D01*
X131651238Y-126325285D01*
X131603619Y-126563380D02*
X131698857Y-126515761D01*
X131794095Y-126420523D01*
X131841714Y-126230047D01*
X131841714Y-125896714D01*
X131794095Y-125706238D01*
X131698857Y-125611000D01*
X131603619Y-125563380D01*
X131413142Y-125563380D01*
X131317904Y-125611000D01*
X131222666Y-125706238D01*
X131175047Y-125896714D01*
X131175047Y-126230047D01*
X131222666Y-126420523D01*
X131317904Y-126515761D01*
X131413142Y-126563380D01*
X131603619Y-126563380D01*
X130222666Y-126563380D02*
X130794095Y-126563380D01*
X130508380Y-126563380D02*
X130508380Y-125563380D01*
X130603619Y-125706238D01*
X130698857Y-125801476D01*
X130794095Y-125849095D01*
X129365523Y-125563380D02*
X129556000Y-125563380D01*
X129651238Y-125611000D01*
X129698857Y-125658619D01*
X129794095Y-125801476D01*
X129841714Y-125991952D01*
X129841714Y-126372904D01*
X129794095Y-126468142D01*
X129746476Y-126515761D01*
X129651238Y-126563380D01*
X129460761Y-126563380D01*
X129365523Y-126515761D01*
X129317904Y-126468142D01*
X129270285Y-126372904D01*
X129270285Y-126134809D01*
X129317904Y-126039571D01*
X129365523Y-125991952D01*
X129460761Y-125944333D01*
X129651238Y-125944333D01*
X129746476Y-125991952D01*
X129794095Y-126039571D01*
X129841714Y-126134809D01*
%TO.C,R4*%
D12*
X131705333Y-102850904D02*
X131972000Y-102469952D01*
X132162476Y-102850904D02*
X132162476Y-102050904D01*
X131857714Y-102050904D01*
X131781523Y-102089000D01*
X131743428Y-102127095D01*
X131705333Y-102203285D01*
X131705333Y-102317571D01*
X131743428Y-102393761D01*
X131781523Y-102431857D01*
X131857714Y-102469952D01*
X132162476Y-102469952D01*
X131019619Y-102317571D02*
X131019619Y-102850904D01*
X131210095Y-102012809D02*
X131400571Y-102584238D01*
X130905333Y-102584238D01*
%TO.C,R5*%
X137039333Y-105263904D02*
X137306000Y-104882952D01*
X137496476Y-105263904D02*
X137496476Y-104463904D01*
X137191714Y-104463904D01*
X137115523Y-104502000D01*
X137077428Y-104540095D01*
X137039333Y-104616285D01*
X137039333Y-104730571D01*
X137077428Y-104806761D01*
X137115523Y-104844857D01*
X137191714Y-104882952D01*
X137496476Y-104882952D01*
X136315523Y-104463904D02*
X136696476Y-104463904D01*
X136734571Y-104844857D01*
X136696476Y-104806761D01*
X136620285Y-104768666D01*
X136429809Y-104768666D01*
X136353619Y-104806761D01*
X136315523Y-104844857D01*
X136277428Y-104921047D01*
X136277428Y-105111523D01*
X136315523Y-105187714D01*
X136353619Y-105225809D01*
X136429809Y-105263904D01*
X136620285Y-105263904D01*
X136696476Y-105225809D01*
X136734571Y-105187714D01*
%TO.C,R6*%
D13*
X144216380Y-96710833D02*
X143740190Y-96377500D01*
X144216380Y-96139404D02*
X143216380Y-96139404D01*
X143216380Y-96520357D01*
X143264000Y-96615595D01*
X143311619Y-96663214D01*
X143406857Y-96710833D01*
X143549714Y-96710833D01*
X143644952Y-96663214D01*
X143692571Y-96615595D01*
X143740190Y-96520357D01*
X143740190Y-96139404D01*
X143216380Y-97567976D02*
X143216380Y-97377500D01*
X143264000Y-97282261D01*
X143311619Y-97234642D01*
X143454476Y-97139404D01*
X143644952Y-97091785D01*
X144025904Y-97091785D01*
X144121142Y-97139404D01*
X144168761Y-97187023D01*
X144216380Y-97282261D01*
X144216380Y-97472738D01*
X144168761Y-97567976D01*
X144121142Y-97615595D01*
X144025904Y-97663214D01*
X143787809Y-97663214D01*
X143692571Y-97615595D01*
X143644952Y-97567976D01*
X143597333Y-97472738D01*
X143597333Y-97282261D01*
X143644952Y-97187023D01*
X143692571Y-97139404D01*
X143787809Y-97091785D01*
%TO.C,R7*%
D12*
X133457904Y-98545666D02*
X133076952Y-98279000D01*
X133457904Y-98088523D02*
X132657904Y-98088523D01*
X132657904Y-98393285D01*
X132696000Y-98469476D01*
X132734095Y-98507571D01*
X132810285Y-98545666D01*
X132924571Y-98545666D01*
X133000761Y-98507571D01*
X133038857Y-98469476D01*
X133076952Y-98393285D01*
X133076952Y-98088523D01*
X132657904Y-98812333D02*
X132657904Y-99345666D01*
X133457904Y-99002809D01*
%TO.C,R8*%
X134473904Y-96386666D02*
X134092952Y-96120000D01*
X134473904Y-95929523D02*
X133673904Y-95929523D01*
X133673904Y-96234285D01*
X133712000Y-96310476D01*
X133750095Y-96348571D01*
X133826285Y-96386666D01*
X133940571Y-96386666D01*
X134016761Y-96348571D01*
X134054857Y-96310476D01*
X134092952Y-96234285D01*
X134092952Y-95929523D01*
X134016761Y-96843809D02*
X133978666Y-96767619D01*
X133940571Y-96729523D01*
X133864380Y-96691428D01*
X133826285Y-96691428D01*
X133750095Y-96729523D01*
X133712000Y-96767619D01*
X133673904Y-96843809D01*
X133673904Y-96996190D01*
X133712000Y-97072380D01*
X133750095Y-97110476D01*
X133826285Y-97148571D01*
X133864380Y-97148571D01*
X133940571Y-97110476D01*
X133978666Y-97072380D01*
X134016761Y-96996190D01*
X134016761Y-96843809D01*
X134054857Y-96767619D01*
X134092952Y-96729523D01*
X134169142Y-96691428D01*
X134321523Y-96691428D01*
X134397714Y-96729523D01*
X134435809Y-96767619D01*
X134473904Y-96843809D01*
X134473904Y-96996190D01*
X134435809Y-97072380D01*
X134397714Y-97110476D01*
X134321523Y-97148571D01*
X134169142Y-97148571D01*
X134092952Y-97110476D01*
X134054857Y-97072380D01*
X134016761Y-96996190D01*
%TO.C,R14*%
X118979904Y-98420714D02*
X118598952Y-98154047D01*
X118979904Y-97963571D02*
X118179904Y-97963571D01*
X118179904Y-98268333D01*
X118218000Y-98344523D01*
X118256095Y-98382619D01*
X118332285Y-98420714D01*
X118446571Y-98420714D01*
X118522761Y-98382619D01*
X118560857Y-98344523D01*
X118598952Y-98268333D01*
X118598952Y-97963571D01*
X118979904Y-99182619D02*
X118979904Y-98725476D01*
X118979904Y-98954047D02*
X118179904Y-98954047D01*
X118294190Y-98877857D01*
X118370380Y-98801666D01*
X118408476Y-98725476D01*
X118446571Y-99868333D02*
X118979904Y-99868333D01*
X118141809Y-99677857D02*
X118713238Y-99487380D01*
X118713238Y-99982619D01*
%TO.C,R15*%
X118979904Y-95749714D02*
X118598952Y-95483047D01*
X118979904Y-95292571D02*
X118179904Y-95292571D01*
X118179904Y-95597333D01*
X118218000Y-95673523D01*
X118256095Y-95711619D01*
X118332285Y-95749714D01*
X118446571Y-95749714D01*
X118522761Y-95711619D01*
X118560857Y-95673523D01*
X118598952Y-95597333D01*
X118598952Y-95292571D01*
X118979904Y-96511619D02*
X118979904Y-96054476D01*
X118979904Y-96283047D02*
X118179904Y-96283047D01*
X118294190Y-96206857D01*
X118370380Y-96130666D01*
X118408476Y-96054476D01*
X118179904Y-97235428D02*
X118179904Y-96854476D01*
X118560857Y-96816380D01*
X118522761Y-96854476D01*
X118484666Y-96930666D01*
X118484666Y-97121142D01*
X118522761Y-97197333D01*
X118560857Y-97235428D01*
X118637047Y-97273523D01*
X118827523Y-97273523D01*
X118903714Y-97235428D01*
X118941809Y-97197333D01*
X118979904Y-97121142D01*
X118979904Y-96930666D01*
X118941809Y-96854476D01*
X118903714Y-96816380D01*
%TO.C,R16*%
X123297904Y-102861714D02*
X122916952Y-102595047D01*
X123297904Y-102404571D02*
X122497904Y-102404571D01*
X122497904Y-102709333D01*
X122536000Y-102785523D01*
X122574095Y-102823619D01*
X122650285Y-102861714D01*
X122764571Y-102861714D01*
X122840761Y-102823619D01*
X122878857Y-102785523D01*
X122916952Y-102709333D01*
X122916952Y-102404571D01*
X123297904Y-103623619D02*
X123297904Y-103166476D01*
X123297904Y-103395047D02*
X122497904Y-103395047D01*
X122612190Y-103318857D01*
X122688380Y-103242666D01*
X122726476Y-103166476D01*
X122497904Y-104309333D02*
X122497904Y-104156952D01*
X122536000Y-104080761D01*
X122574095Y-104042666D01*
X122688380Y-103966476D01*
X122840761Y-103928380D01*
X123145523Y-103928380D01*
X123221714Y-103966476D01*
X123259809Y-104004571D01*
X123297904Y-104080761D01*
X123297904Y-104233142D01*
X123259809Y-104309333D01*
X123221714Y-104347428D01*
X123145523Y-104385523D01*
X122955047Y-104385523D01*
X122878857Y-104347428D01*
X122840761Y-104309333D01*
X122802666Y-104233142D01*
X122802666Y-104080761D01*
X122840761Y-104004571D01*
X122878857Y-103966476D01*
X122955047Y-103928380D01*
%TO.C,R17*%
X127385285Y-104247904D02*
X127651952Y-103866952D01*
X127842428Y-104247904D02*
X127842428Y-103447904D01*
X127537666Y-103447904D01*
X127461476Y-103486000D01*
X127423380Y-103524095D01*
X127385285Y-103600285D01*
X127385285Y-103714571D01*
X127423380Y-103790761D01*
X127461476Y-103828857D01*
X127537666Y-103866952D01*
X127842428Y-103866952D01*
X126623380Y-104247904D02*
X127080523Y-104247904D01*
X126851952Y-104247904D02*
X126851952Y-103447904D01*
X126928142Y-103562190D01*
X127004333Y-103638380D01*
X127080523Y-103676476D01*
X126356714Y-103447904D02*
X125823380Y-103447904D01*
X126166238Y-104247904D01*
%TO.C,R18*%
X130308285Y-105517904D02*
X130574952Y-105136952D01*
X130765428Y-105517904D02*
X130765428Y-104717904D01*
X130460666Y-104717904D01*
X130384476Y-104756000D01*
X130346380Y-104794095D01*
X130308285Y-104870285D01*
X130308285Y-104984571D01*
X130346380Y-105060761D01*
X130384476Y-105098857D01*
X130460666Y-105136952D01*
X130765428Y-105136952D01*
X129546380Y-105517904D02*
X130003523Y-105517904D01*
X129774952Y-105517904D02*
X129774952Y-104717904D01*
X129851142Y-104832190D01*
X129927333Y-104908380D01*
X130003523Y-104946476D01*
X129089238Y-105060761D02*
X129165428Y-105022666D01*
X129203523Y-104984571D01*
X129241619Y-104908380D01*
X129241619Y-104870285D01*
X129203523Y-104794095D01*
X129165428Y-104756000D01*
X129089238Y-104717904D01*
X128936857Y-104717904D01*
X128860666Y-104756000D01*
X128822571Y-104794095D01*
X128784476Y-104870285D01*
X128784476Y-104908380D01*
X128822571Y-104984571D01*
X128860666Y-105022666D01*
X128936857Y-105060761D01*
X129089238Y-105060761D01*
X129165428Y-105098857D01*
X129203523Y-105136952D01*
X129241619Y-105213142D01*
X129241619Y-105365523D01*
X129203523Y-105441714D01*
X129165428Y-105479809D01*
X129089238Y-105517904D01*
X128936857Y-105517904D01*
X128860666Y-105479809D01*
X128822571Y-105441714D01*
X128784476Y-105365523D01*
X128784476Y-105213142D01*
X128822571Y-105136952D01*
X128860666Y-105098857D01*
X128936857Y-105060761D01*
%TO.C,R19*%
X126726904Y-106671714D02*
X126345952Y-106405047D01*
X126726904Y-106214571D02*
X125926904Y-106214571D01*
X125926904Y-106519333D01*
X125965000Y-106595523D01*
X126003095Y-106633619D01*
X126079285Y-106671714D01*
X126193571Y-106671714D01*
X126269761Y-106633619D01*
X126307857Y-106595523D01*
X126345952Y-106519333D01*
X126345952Y-106214571D01*
X126726904Y-107433619D02*
X126726904Y-106976476D01*
X126726904Y-107205047D02*
X125926904Y-107205047D01*
X126041190Y-107128857D01*
X126117380Y-107052666D01*
X126155476Y-106976476D01*
X126726904Y-107814571D02*
X126726904Y-107966952D01*
X126688809Y-108043142D01*
X126650714Y-108081238D01*
X126536428Y-108157428D01*
X126384047Y-108195523D01*
X126079285Y-108195523D01*
X126003095Y-108157428D01*
X125965000Y-108119333D01*
X125926904Y-108043142D01*
X125926904Y-107890761D01*
X125965000Y-107814571D01*
X126003095Y-107776476D01*
X126079285Y-107738380D01*
X126269761Y-107738380D01*
X126345952Y-107776476D01*
X126384047Y-107814571D01*
X126422142Y-107890761D01*
X126422142Y-108043142D01*
X126384047Y-108119333D01*
X126345952Y-108157428D01*
X126269761Y-108195523D01*
%TO.C,R20*%
X133483285Y-106025904D02*
X133749952Y-105644952D01*
X133940428Y-106025904D02*
X133940428Y-105225904D01*
X133635666Y-105225904D01*
X133559476Y-105264000D01*
X133521380Y-105302095D01*
X133483285Y-105378285D01*
X133483285Y-105492571D01*
X133521380Y-105568761D01*
X133559476Y-105606857D01*
X133635666Y-105644952D01*
X133940428Y-105644952D01*
X133178523Y-105302095D02*
X133140428Y-105264000D01*
X133064238Y-105225904D01*
X132873761Y-105225904D01*
X132797571Y-105264000D01*
X132759476Y-105302095D01*
X132721380Y-105378285D01*
X132721380Y-105454476D01*
X132759476Y-105568761D01*
X133216619Y-106025904D01*
X132721380Y-106025904D01*
X132226142Y-105225904D02*
X132149952Y-105225904D01*
X132073761Y-105264000D01*
X132035666Y-105302095D01*
X131997571Y-105378285D01*
X131959476Y-105530666D01*
X131959476Y-105721142D01*
X131997571Y-105873523D01*
X132035666Y-105949714D01*
X132073761Y-105987809D01*
X132149952Y-106025904D01*
X132226142Y-106025904D01*
X132302333Y-105987809D01*
X132340428Y-105949714D01*
X132378523Y-105873523D01*
X132416619Y-105721142D01*
X132416619Y-105530666D01*
X132378523Y-105378285D01*
X132340428Y-105302095D01*
X132302333Y-105264000D01*
X132226142Y-105225904D01*
%TO.C,R21*%
X135616904Y-106800714D02*
X135235952Y-106534047D01*
X135616904Y-106343571D02*
X134816904Y-106343571D01*
X134816904Y-106648333D01*
X134855000Y-106724523D01*
X134893095Y-106762619D01*
X134969285Y-106800714D01*
X135083571Y-106800714D01*
X135159761Y-106762619D01*
X135197857Y-106724523D01*
X135235952Y-106648333D01*
X135235952Y-106343571D01*
X134893095Y-107105476D02*
X134855000Y-107143571D01*
X134816904Y-107219761D01*
X134816904Y-107410238D01*
X134855000Y-107486428D01*
X134893095Y-107524523D01*
X134969285Y-107562619D01*
X135045476Y-107562619D01*
X135159761Y-107524523D01*
X135616904Y-107067380D01*
X135616904Y-107562619D01*
X135616904Y-108324523D02*
X135616904Y-107867380D01*
X135616904Y-108095952D02*
X134816904Y-108095952D01*
X134931190Y-108019761D01*
X135007380Y-107943571D01*
X135045476Y-107867380D01*
%TO.C,R22*%
X119765285Y-109200904D02*
X120031952Y-108819952D01*
X120222428Y-109200904D02*
X120222428Y-108400904D01*
X119917666Y-108400904D01*
X119841476Y-108439000D01*
X119803380Y-108477095D01*
X119765285Y-108553285D01*
X119765285Y-108667571D01*
X119803380Y-108743761D01*
X119841476Y-108781857D01*
X119917666Y-108819952D01*
X120222428Y-108819952D01*
X119460523Y-108477095D02*
X119422428Y-108439000D01*
X119346238Y-108400904D01*
X119155761Y-108400904D01*
X119079571Y-108439000D01*
X119041476Y-108477095D01*
X119003380Y-108553285D01*
X119003380Y-108629476D01*
X119041476Y-108743761D01*
X119498619Y-109200904D01*
X119003380Y-109200904D01*
X118698619Y-108477095D02*
X118660523Y-108439000D01*
X118584333Y-108400904D01*
X118393857Y-108400904D01*
X118317666Y-108439000D01*
X118279571Y-108477095D01*
X118241476Y-108553285D01*
X118241476Y-108629476D01*
X118279571Y-108743761D01*
X118736714Y-109200904D01*
X118241476Y-109200904D01*
%TO.C,R23*%
X140823904Y-109086714D02*
X140442952Y-108820047D01*
X140823904Y-108629571D02*
X140023904Y-108629571D01*
X140023904Y-108934333D01*
X140062000Y-109010523D01*
X140100095Y-109048619D01*
X140176285Y-109086714D01*
X140290571Y-109086714D01*
X140366761Y-109048619D01*
X140404857Y-109010523D01*
X140442952Y-108934333D01*
X140442952Y-108629571D01*
X140100095Y-109391476D02*
X140062000Y-109429571D01*
X140023904Y-109505761D01*
X140023904Y-109696238D01*
X140062000Y-109772428D01*
X140100095Y-109810523D01*
X140176285Y-109848619D01*
X140252476Y-109848619D01*
X140366761Y-109810523D01*
X140823904Y-109353380D01*
X140823904Y-109848619D01*
X140023904Y-110115285D02*
X140023904Y-110610523D01*
X140328666Y-110343857D01*
X140328666Y-110458142D01*
X140366761Y-110534333D01*
X140404857Y-110572428D01*
X140481047Y-110610523D01*
X140671523Y-110610523D01*
X140747714Y-110572428D01*
X140785809Y-110534333D01*
X140823904Y-110458142D01*
X140823904Y-110229571D01*
X140785809Y-110153380D01*
X140747714Y-110115285D01*
%TO.C,R24*%
X119769285Y-110978904D02*
X120035952Y-110597952D01*
X120226428Y-110978904D02*
X120226428Y-110178904D01*
X119921666Y-110178904D01*
X119845476Y-110217000D01*
X119807380Y-110255095D01*
X119769285Y-110331285D01*
X119769285Y-110445571D01*
X119807380Y-110521761D01*
X119845476Y-110559857D01*
X119921666Y-110597952D01*
X120226428Y-110597952D01*
X119464523Y-110255095D02*
X119426428Y-110217000D01*
X119350238Y-110178904D01*
X119159761Y-110178904D01*
X119083571Y-110217000D01*
X119045476Y-110255095D01*
X119007380Y-110331285D01*
X119007380Y-110407476D01*
X119045476Y-110521761D01*
X119502619Y-110978904D01*
X119007380Y-110978904D01*
X118321666Y-110445571D02*
X118321666Y-110978904D01*
X118512142Y-110140809D02*
X118702619Y-110712238D01*
X118207380Y-110712238D01*
%TO.C,R25*%
X140823904Y-111622714D02*
X140442952Y-111356047D01*
X140823904Y-111165571D02*
X140023904Y-111165571D01*
X140023904Y-111470333D01*
X140062000Y-111546523D01*
X140100095Y-111584619D01*
X140176285Y-111622714D01*
X140290571Y-111622714D01*
X140366761Y-111584619D01*
X140404857Y-111546523D01*
X140442952Y-111470333D01*
X140442952Y-111165571D01*
X140100095Y-111927476D02*
X140062000Y-111965571D01*
X140023904Y-112041761D01*
X140023904Y-112232238D01*
X140062000Y-112308428D01*
X140100095Y-112346523D01*
X140176285Y-112384619D01*
X140252476Y-112384619D01*
X140366761Y-112346523D01*
X140823904Y-111889380D01*
X140823904Y-112384619D01*
X140023904Y-113108428D02*
X140023904Y-112727476D01*
X140404857Y-112689380D01*
X140366761Y-112727476D01*
X140328666Y-112803666D01*
X140328666Y-112994142D01*
X140366761Y-113070333D01*
X140404857Y-113108428D01*
X140481047Y-113146523D01*
X140671523Y-113146523D01*
X140747714Y-113108428D01*
X140785809Y-113070333D01*
X140823904Y-112994142D01*
X140823904Y-112803666D01*
X140785809Y-112727476D01*
X140747714Y-112689380D01*
%TO.C,R26*%
X118725904Y-113785714D02*
X118344952Y-113519047D01*
X118725904Y-113328571D02*
X117925904Y-113328571D01*
X117925904Y-113633333D01*
X117964000Y-113709523D01*
X118002095Y-113747619D01*
X118078285Y-113785714D01*
X118192571Y-113785714D01*
X118268761Y-113747619D01*
X118306857Y-113709523D01*
X118344952Y-113633333D01*
X118344952Y-113328571D01*
X118002095Y-114090476D02*
X117964000Y-114128571D01*
X117925904Y-114204761D01*
X117925904Y-114395238D01*
X117964000Y-114471428D01*
X118002095Y-114509523D01*
X118078285Y-114547619D01*
X118154476Y-114547619D01*
X118268761Y-114509523D01*
X118725904Y-114052380D01*
X118725904Y-114547619D01*
X117925904Y-115233333D02*
X117925904Y-115080952D01*
X117964000Y-115004761D01*
X118002095Y-114966666D01*
X118116380Y-114890476D01*
X118268761Y-114852380D01*
X118573523Y-114852380D01*
X118649714Y-114890476D01*
X118687809Y-114928571D01*
X118725904Y-115004761D01*
X118725904Y-115157142D01*
X118687809Y-115233333D01*
X118649714Y-115271428D01*
X118573523Y-115309523D01*
X118383047Y-115309523D01*
X118306857Y-115271428D01*
X118268761Y-115233333D01*
X118230666Y-115157142D01*
X118230666Y-115004761D01*
X118268761Y-114928571D01*
X118306857Y-114890476D01*
X118383047Y-114852380D01*
%TO.C,R27*%
X134981904Y-112136714D02*
X134600952Y-111870047D01*
X134981904Y-111679571D02*
X134181904Y-111679571D01*
X134181904Y-111984333D01*
X134220000Y-112060523D01*
X134258095Y-112098619D01*
X134334285Y-112136714D01*
X134448571Y-112136714D01*
X134524761Y-112098619D01*
X134562857Y-112060523D01*
X134600952Y-111984333D01*
X134600952Y-111679571D01*
X134258095Y-112441476D02*
X134220000Y-112479571D01*
X134181904Y-112555761D01*
X134181904Y-112746238D01*
X134220000Y-112822428D01*
X134258095Y-112860523D01*
X134334285Y-112898619D01*
X134410476Y-112898619D01*
X134524761Y-112860523D01*
X134981904Y-112403380D01*
X134981904Y-112898619D01*
X134181904Y-113165285D02*
X134181904Y-113698619D01*
X134981904Y-113355761D01*
%TO.C,R28*%
X126980904Y-114930714D02*
X126599952Y-114664047D01*
X126980904Y-114473571D02*
X126180904Y-114473571D01*
X126180904Y-114778333D01*
X126219000Y-114854523D01*
X126257095Y-114892619D01*
X126333285Y-114930714D01*
X126447571Y-114930714D01*
X126523761Y-114892619D01*
X126561857Y-114854523D01*
X126599952Y-114778333D01*
X126599952Y-114473571D01*
X126257095Y-115235476D02*
X126219000Y-115273571D01*
X126180904Y-115349761D01*
X126180904Y-115540238D01*
X126219000Y-115616428D01*
X126257095Y-115654523D01*
X126333285Y-115692619D01*
X126409476Y-115692619D01*
X126523761Y-115654523D01*
X126980904Y-115197380D01*
X126980904Y-115692619D01*
X126523761Y-116149761D02*
X126485666Y-116073571D01*
X126447571Y-116035476D01*
X126371380Y-115997380D01*
X126333285Y-115997380D01*
X126257095Y-116035476D01*
X126219000Y-116073571D01*
X126180904Y-116149761D01*
X126180904Y-116302142D01*
X126219000Y-116378333D01*
X126257095Y-116416428D01*
X126333285Y-116454523D01*
X126371380Y-116454523D01*
X126447571Y-116416428D01*
X126485666Y-116378333D01*
X126523761Y-116302142D01*
X126523761Y-116149761D01*
X126561857Y-116073571D01*
X126599952Y-116035476D01*
X126676142Y-115997380D01*
X126828523Y-115997380D01*
X126904714Y-116035476D01*
X126942809Y-116073571D01*
X126980904Y-116149761D01*
X126980904Y-116302142D01*
X126942809Y-116378333D01*
X126904714Y-116416428D01*
X126828523Y-116454523D01*
X126676142Y-116454523D01*
X126599952Y-116416428D01*
X126561857Y-116378333D01*
X126523761Y-116302142D01*
%TO.C,R29*%
X140976285Y-120630904D02*
X141242952Y-120249952D01*
X141433428Y-120630904D02*
X141433428Y-119830904D01*
X141128666Y-119830904D01*
X141052476Y-119869000D01*
X141014380Y-119907095D01*
X140976285Y-119983285D01*
X140976285Y-120097571D01*
X141014380Y-120173761D01*
X141052476Y-120211857D01*
X141128666Y-120249952D01*
X141433428Y-120249952D01*
X140671523Y-119907095D02*
X140633428Y-119869000D01*
X140557238Y-119830904D01*
X140366761Y-119830904D01*
X140290571Y-119869000D01*
X140252476Y-119907095D01*
X140214380Y-119983285D01*
X140214380Y-120059476D01*
X140252476Y-120173761D01*
X140709619Y-120630904D01*
X140214380Y-120630904D01*
X139833428Y-120630904D02*
X139681047Y-120630904D01*
X139604857Y-120592809D01*
X139566761Y-120554714D01*
X139490571Y-120440428D01*
X139452476Y-120288047D01*
X139452476Y-119983285D01*
X139490571Y-119907095D01*
X139528666Y-119869000D01*
X139604857Y-119830904D01*
X139757238Y-119830904D01*
X139833428Y-119869000D01*
X139871523Y-119907095D01*
X139909619Y-119983285D01*
X139909619Y-120173761D01*
X139871523Y-120249952D01*
X139833428Y-120288047D01*
X139757238Y-120326142D01*
X139604857Y-120326142D01*
X139528666Y-120288047D01*
X139490571Y-120249952D01*
X139452476Y-120173761D01*
%TO.C,R30*%
X119511285Y-127261904D02*
X119777952Y-126880952D01*
X119968428Y-127261904D02*
X119968428Y-126461904D01*
X119663666Y-126461904D01*
X119587476Y-126500000D01*
X119549380Y-126538095D01*
X119511285Y-126614285D01*
X119511285Y-126728571D01*
X119549380Y-126804761D01*
X119587476Y-126842857D01*
X119663666Y-126880952D01*
X119968428Y-126880952D01*
X119244619Y-126461904D02*
X118749380Y-126461904D01*
X119016047Y-126766666D01*
X118901761Y-126766666D01*
X118825571Y-126804761D01*
X118787476Y-126842857D01*
X118749380Y-126919047D01*
X118749380Y-127109523D01*
X118787476Y-127185714D01*
X118825571Y-127223809D01*
X118901761Y-127261904D01*
X119130333Y-127261904D01*
X119206523Y-127223809D01*
X119244619Y-127185714D01*
X118254142Y-126461904D02*
X118177952Y-126461904D01*
X118101761Y-126500000D01*
X118063666Y-126538095D01*
X118025571Y-126614285D01*
X117987476Y-126766666D01*
X117987476Y-126957142D01*
X118025571Y-127109523D01*
X118063666Y-127185714D01*
X118101761Y-127223809D01*
X118177952Y-127261904D01*
X118254142Y-127261904D01*
X118330333Y-127223809D01*
X118368428Y-127185714D01*
X118406523Y-127109523D01*
X118444619Y-126957142D01*
X118444619Y-126766666D01*
X118406523Y-126614285D01*
X118368428Y-126538095D01*
X118330333Y-126500000D01*
X118254142Y-126461904D01*
%TO.C,R31*%
X138690285Y-118471904D02*
X138956952Y-118090952D01*
X139147428Y-118471904D02*
X139147428Y-117671904D01*
X138842666Y-117671904D01*
X138766476Y-117710000D01*
X138728380Y-117748095D01*
X138690285Y-117824285D01*
X138690285Y-117938571D01*
X138728380Y-118014761D01*
X138766476Y-118052857D01*
X138842666Y-118090952D01*
X139147428Y-118090952D01*
X138423619Y-117671904D02*
X137928380Y-117671904D01*
X138195047Y-117976666D01*
X138080761Y-117976666D01*
X138004571Y-118014761D01*
X137966476Y-118052857D01*
X137928380Y-118129047D01*
X137928380Y-118319523D01*
X137966476Y-118395714D01*
X138004571Y-118433809D01*
X138080761Y-118471904D01*
X138309333Y-118471904D01*
X138385523Y-118433809D01*
X138423619Y-118395714D01*
X137166476Y-118471904D02*
X137623619Y-118471904D01*
X137395047Y-118471904D02*
X137395047Y-117671904D01*
X137471238Y-117786190D01*
X137547428Y-117862380D01*
X137623619Y-117900476D01*
%TO.C,R32*%
X119868904Y-118103714D02*
X119487952Y-117837047D01*
X119868904Y-117646571D02*
X119068904Y-117646571D01*
X119068904Y-117951333D01*
X119107000Y-118027523D01*
X119145095Y-118065619D01*
X119221285Y-118103714D01*
X119335571Y-118103714D01*
X119411761Y-118065619D01*
X119449857Y-118027523D01*
X119487952Y-117951333D01*
X119487952Y-117646571D01*
X119068904Y-118370380D02*
X119068904Y-118865619D01*
X119373666Y-118598952D01*
X119373666Y-118713238D01*
X119411761Y-118789428D01*
X119449857Y-118827523D01*
X119526047Y-118865619D01*
X119716523Y-118865619D01*
X119792714Y-118827523D01*
X119830809Y-118789428D01*
X119868904Y-118713238D01*
X119868904Y-118484666D01*
X119830809Y-118408476D01*
X119792714Y-118370380D01*
X119145095Y-119170380D02*
X119107000Y-119208476D01*
X119068904Y-119284666D01*
X119068904Y-119475142D01*
X119107000Y-119551333D01*
X119145095Y-119589428D01*
X119221285Y-119627523D01*
X119297476Y-119627523D01*
X119411761Y-119589428D01*
X119868904Y-119132285D01*
X119868904Y-119627523D01*
%TO.C,R33*%
X136124904Y-117849714D02*
X135743952Y-117583047D01*
X136124904Y-117392571D02*
X135324904Y-117392571D01*
X135324904Y-117697333D01*
X135363000Y-117773523D01*
X135401095Y-117811619D01*
X135477285Y-117849714D01*
X135591571Y-117849714D01*
X135667761Y-117811619D01*
X135705857Y-117773523D01*
X135743952Y-117697333D01*
X135743952Y-117392571D01*
X135324904Y-118116380D02*
X135324904Y-118611619D01*
X135629666Y-118344952D01*
X135629666Y-118459238D01*
X135667761Y-118535428D01*
X135705857Y-118573523D01*
X135782047Y-118611619D01*
X135972523Y-118611619D01*
X136048714Y-118573523D01*
X136086809Y-118535428D01*
X136124904Y-118459238D01*
X136124904Y-118230666D01*
X136086809Y-118154476D01*
X136048714Y-118116380D01*
X135324904Y-118878285D02*
X135324904Y-119373523D01*
X135629666Y-119106857D01*
X135629666Y-119221142D01*
X135667761Y-119297333D01*
X135705857Y-119335428D01*
X135782047Y-119373523D01*
X135972523Y-119373523D01*
X136048714Y-119335428D01*
X136086809Y-119297333D01*
X136124904Y-119221142D01*
X136124904Y-118992571D01*
X136086809Y-118916380D01*
X136048714Y-118878285D01*
%TO.C,R34*%
X127234904Y-117976714D02*
X126853952Y-117710047D01*
X127234904Y-117519571D02*
X126434904Y-117519571D01*
X126434904Y-117824333D01*
X126473000Y-117900523D01*
X126511095Y-117938619D01*
X126587285Y-117976714D01*
X126701571Y-117976714D01*
X126777761Y-117938619D01*
X126815857Y-117900523D01*
X126853952Y-117824333D01*
X126853952Y-117519571D01*
X126434904Y-118243380D02*
X126434904Y-118738619D01*
X126739666Y-118471952D01*
X126739666Y-118586238D01*
X126777761Y-118662428D01*
X126815857Y-118700523D01*
X126892047Y-118738619D01*
X127082523Y-118738619D01*
X127158714Y-118700523D01*
X127196809Y-118662428D01*
X127234904Y-118586238D01*
X127234904Y-118357666D01*
X127196809Y-118281476D01*
X127158714Y-118243380D01*
X126701571Y-119424333D02*
X127234904Y-119424333D01*
X126396809Y-119233857D02*
X126968238Y-119043380D01*
X126968238Y-119538619D01*
%TO.C,R35*%
X143895285Y-120630904D02*
X144161952Y-120249952D01*
X144352428Y-120630904D02*
X144352428Y-119830904D01*
X144047666Y-119830904D01*
X143971476Y-119869000D01*
X143933380Y-119907095D01*
X143895285Y-119983285D01*
X143895285Y-120097571D01*
X143933380Y-120173761D01*
X143971476Y-120211857D01*
X144047666Y-120249952D01*
X144352428Y-120249952D01*
X143628619Y-119830904D02*
X143133380Y-119830904D01*
X143400047Y-120135666D01*
X143285761Y-120135666D01*
X143209571Y-120173761D01*
X143171476Y-120211857D01*
X143133380Y-120288047D01*
X143133380Y-120478523D01*
X143171476Y-120554714D01*
X143209571Y-120592809D01*
X143285761Y-120630904D01*
X143514333Y-120630904D01*
X143590523Y-120592809D01*
X143628619Y-120554714D01*
X142409571Y-119830904D02*
X142790523Y-119830904D01*
X142828619Y-120211857D01*
X142790523Y-120173761D01*
X142714333Y-120135666D01*
X142523857Y-120135666D01*
X142447666Y-120173761D01*
X142409571Y-120211857D01*
X142371476Y-120288047D01*
X142371476Y-120478523D01*
X142409571Y-120554714D01*
X142447666Y-120592809D01*
X142523857Y-120630904D01*
X142714333Y-120630904D01*
X142790523Y-120592809D01*
X142828619Y-120554714D01*
%TO.C,R36*%
X125230285Y-122027904D02*
X125496952Y-121646952D01*
X125687428Y-122027904D02*
X125687428Y-121227904D01*
X125382666Y-121227904D01*
X125306476Y-121266000D01*
X125268380Y-121304095D01*
X125230285Y-121380285D01*
X125230285Y-121494571D01*
X125268380Y-121570761D01*
X125306476Y-121608857D01*
X125382666Y-121646952D01*
X125687428Y-121646952D01*
X124963619Y-121227904D02*
X124468380Y-121227904D01*
X124735047Y-121532666D01*
X124620761Y-121532666D01*
X124544571Y-121570761D01*
X124506476Y-121608857D01*
X124468380Y-121685047D01*
X124468380Y-121875523D01*
X124506476Y-121951714D01*
X124544571Y-121989809D01*
X124620761Y-122027904D01*
X124849333Y-122027904D01*
X124925523Y-121989809D01*
X124963619Y-121951714D01*
X123782666Y-121227904D02*
X123935047Y-121227904D01*
X124011238Y-121266000D01*
X124049333Y-121304095D01*
X124125523Y-121418380D01*
X124163619Y-121570761D01*
X124163619Y-121875523D01*
X124125523Y-121951714D01*
X124087428Y-121989809D01*
X124011238Y-122027904D01*
X123858857Y-122027904D01*
X123782666Y-121989809D01*
X123744571Y-121951714D01*
X123706476Y-121875523D01*
X123706476Y-121685047D01*
X123744571Y-121608857D01*
X123782666Y-121570761D01*
X123858857Y-121532666D01*
X124011238Y-121532666D01*
X124087428Y-121570761D01*
X124125523Y-121608857D01*
X124163619Y-121685047D01*
%TO.C,R37*%
X142369285Y-127615904D02*
X142635952Y-127234952D01*
X142826428Y-127615904D02*
X142826428Y-126815904D01*
X142521666Y-126815904D01*
X142445476Y-126854000D01*
X142407380Y-126892095D01*
X142369285Y-126968285D01*
X142369285Y-127082571D01*
X142407380Y-127158761D01*
X142445476Y-127196857D01*
X142521666Y-127234952D01*
X142826428Y-127234952D01*
X142102619Y-126815904D02*
X141607380Y-126815904D01*
X141874047Y-127120666D01*
X141759761Y-127120666D01*
X141683571Y-127158761D01*
X141645476Y-127196857D01*
X141607380Y-127273047D01*
X141607380Y-127463523D01*
X141645476Y-127539714D01*
X141683571Y-127577809D01*
X141759761Y-127615904D01*
X141988333Y-127615904D01*
X142064523Y-127577809D01*
X142102619Y-127539714D01*
X141340714Y-126815904D02*
X140807380Y-126815904D01*
X141150238Y-127615904D01*
%TO.C,R38*%
X125228285Y-119360904D02*
X125494952Y-118979952D01*
X125685428Y-119360904D02*
X125685428Y-118560904D01*
X125380666Y-118560904D01*
X125304476Y-118599000D01*
X125266380Y-118637095D01*
X125228285Y-118713285D01*
X125228285Y-118827571D01*
X125266380Y-118903761D01*
X125304476Y-118941857D01*
X125380666Y-118979952D01*
X125685428Y-118979952D01*
X124961619Y-118560904D02*
X124466380Y-118560904D01*
X124733047Y-118865666D01*
X124618761Y-118865666D01*
X124542571Y-118903761D01*
X124504476Y-118941857D01*
X124466380Y-119018047D01*
X124466380Y-119208523D01*
X124504476Y-119284714D01*
X124542571Y-119322809D01*
X124618761Y-119360904D01*
X124847333Y-119360904D01*
X124923523Y-119322809D01*
X124961619Y-119284714D01*
X124009238Y-118903761D02*
X124085428Y-118865666D01*
X124123523Y-118827571D01*
X124161619Y-118751380D01*
X124161619Y-118713285D01*
X124123523Y-118637095D01*
X124085428Y-118599000D01*
X124009238Y-118560904D01*
X123856857Y-118560904D01*
X123780666Y-118599000D01*
X123742571Y-118637095D01*
X123704476Y-118713285D01*
X123704476Y-118751380D01*
X123742571Y-118827571D01*
X123780666Y-118865666D01*
X123856857Y-118903761D01*
X124009238Y-118903761D01*
X124085428Y-118941857D01*
X124123523Y-118979952D01*
X124161619Y-119056142D01*
X124161619Y-119208523D01*
X124123523Y-119284714D01*
X124085428Y-119322809D01*
X124009238Y-119360904D01*
X123856857Y-119360904D01*
X123780666Y-119322809D01*
X123742571Y-119284714D01*
X123704476Y-119208523D01*
X123704476Y-119056142D01*
X123742571Y-118979952D01*
X123780666Y-118941857D01*
X123856857Y-118903761D01*
%TO.C,R39*%
X143897285Y-112629904D02*
X144163952Y-112248952D01*
X144354428Y-112629904D02*
X144354428Y-111829904D01*
X144049666Y-111829904D01*
X143973476Y-111868000D01*
X143935380Y-111906095D01*
X143897285Y-111982285D01*
X143897285Y-112096571D01*
X143935380Y-112172761D01*
X143973476Y-112210857D01*
X144049666Y-112248952D01*
X144354428Y-112248952D01*
X143630619Y-111829904D02*
X143135380Y-111829904D01*
X143402047Y-112134666D01*
X143287761Y-112134666D01*
X143211571Y-112172761D01*
X143173476Y-112210857D01*
X143135380Y-112287047D01*
X143135380Y-112477523D01*
X143173476Y-112553714D01*
X143211571Y-112591809D01*
X143287761Y-112629904D01*
X143516333Y-112629904D01*
X143592523Y-112591809D01*
X143630619Y-112553714D01*
X142754428Y-112629904D02*
X142602047Y-112629904D01*
X142525857Y-112591809D01*
X142487761Y-112553714D01*
X142411571Y-112439428D01*
X142373476Y-112287047D01*
X142373476Y-111982285D01*
X142411571Y-111906095D01*
X142449666Y-111868000D01*
X142525857Y-111829904D01*
X142678238Y-111829904D01*
X142754428Y-111868000D01*
X142792523Y-111906095D01*
X142830619Y-111982285D01*
X142830619Y-112172761D01*
X142792523Y-112248952D01*
X142754428Y-112287047D01*
X142678238Y-112325142D01*
X142525857Y-112325142D01*
X142449666Y-112287047D01*
X142411571Y-112248952D01*
X142373476Y-112172761D01*
%TO.C,R40*%
X137674285Y-126599904D02*
X137940952Y-126218952D01*
X138131428Y-126599904D02*
X138131428Y-125799904D01*
X137826666Y-125799904D01*
X137750476Y-125838000D01*
X137712380Y-125876095D01*
X137674285Y-125952285D01*
X137674285Y-126066571D01*
X137712380Y-126142761D01*
X137750476Y-126180857D01*
X137826666Y-126218952D01*
X138131428Y-126218952D01*
X136988571Y-126066571D02*
X136988571Y-126599904D01*
X137179047Y-125761809D02*
X137369523Y-126333238D01*
X136874285Y-126333238D01*
X136417142Y-125799904D02*
X136340952Y-125799904D01*
X136264761Y-125838000D01*
X136226666Y-125876095D01*
X136188571Y-125952285D01*
X136150476Y-126104666D01*
X136150476Y-126295142D01*
X136188571Y-126447523D01*
X136226666Y-126523714D01*
X136264761Y-126561809D01*
X136340952Y-126599904D01*
X136417142Y-126599904D01*
X136493333Y-126561809D01*
X136531428Y-126523714D01*
X136569523Y-126447523D01*
X136607619Y-126295142D01*
X136607619Y-126104666D01*
X136569523Y-125952285D01*
X136531428Y-125876095D01*
X136493333Y-125838000D01*
X136417142Y-125799904D01*
%TO.C,R41*%
X136251904Y-115055714D02*
X135870952Y-114789047D01*
X136251904Y-114598571D02*
X135451904Y-114598571D01*
X135451904Y-114903333D01*
X135490000Y-114979523D01*
X135528095Y-115017619D01*
X135604285Y-115055714D01*
X135718571Y-115055714D01*
X135794761Y-115017619D01*
X135832857Y-114979523D01*
X135870952Y-114903333D01*
X135870952Y-114598571D01*
X135718571Y-115741428D02*
X136251904Y-115741428D01*
X135413809Y-115550952D02*
X135985238Y-115360476D01*
X135985238Y-115855714D01*
X136251904Y-116579523D02*
X136251904Y-116122380D01*
X136251904Y-116350952D02*
X135451904Y-116350952D01*
X135566190Y-116274761D01*
X135642380Y-116198571D01*
X135680476Y-116122380D01*
%TO.C,R42*%
X129647904Y-119246714D02*
X129266952Y-118980047D01*
X129647904Y-118789571D02*
X128847904Y-118789571D01*
X128847904Y-119094333D01*
X128886000Y-119170523D01*
X128924095Y-119208619D01*
X129000285Y-119246714D01*
X129114571Y-119246714D01*
X129190761Y-119208619D01*
X129228857Y-119170523D01*
X129266952Y-119094333D01*
X129266952Y-118789571D01*
X129114571Y-119932428D02*
X129647904Y-119932428D01*
X128809809Y-119741952D02*
X129381238Y-119551476D01*
X129381238Y-120046714D01*
X128924095Y-120313380D02*
X128886000Y-120351476D01*
X128847904Y-120427666D01*
X128847904Y-120618142D01*
X128886000Y-120694333D01*
X128924095Y-120732428D01*
X129000285Y-120770523D01*
X129076476Y-120770523D01*
X129190761Y-120732428D01*
X129647904Y-120275285D01*
X129647904Y-120770523D01*
%TO.C,R43*%
X140188904Y-115053714D02*
X139807952Y-114787047D01*
X140188904Y-114596571D02*
X139388904Y-114596571D01*
X139388904Y-114901333D01*
X139427000Y-114977523D01*
X139465095Y-115015619D01*
X139541285Y-115053714D01*
X139655571Y-115053714D01*
X139731761Y-115015619D01*
X139769857Y-114977523D01*
X139807952Y-114901333D01*
X139807952Y-114596571D01*
X139655571Y-115739428D02*
X140188904Y-115739428D01*
X139350809Y-115548952D02*
X139922238Y-115358476D01*
X139922238Y-115853714D01*
X139388904Y-116082285D02*
X139388904Y-116577523D01*
X139693666Y-116310857D01*
X139693666Y-116425142D01*
X139731761Y-116501333D01*
X139769857Y-116539428D01*
X139846047Y-116577523D01*
X140036523Y-116577523D01*
X140112714Y-116539428D01*
X140150809Y-116501333D01*
X140188904Y-116425142D01*
X140188904Y-116196571D01*
X140150809Y-116120380D01*
X140112714Y-116082285D01*
%TO.C,R44*%
X133203904Y-119246714D02*
X132822952Y-118980047D01*
X133203904Y-118789571D02*
X132403904Y-118789571D01*
X132403904Y-119094333D01*
X132442000Y-119170523D01*
X132480095Y-119208619D01*
X132556285Y-119246714D01*
X132670571Y-119246714D01*
X132746761Y-119208619D01*
X132784857Y-119170523D01*
X132822952Y-119094333D01*
X132822952Y-118789571D01*
X132670571Y-119932428D02*
X133203904Y-119932428D01*
X132365809Y-119741952D02*
X132937238Y-119551476D01*
X132937238Y-120046714D01*
X132670571Y-120694333D02*
X133203904Y-120694333D01*
X132365809Y-120503857D02*
X132937238Y-120313380D01*
X132937238Y-120808619D01*
%TD*%
M02*
