%TF.GenerationSoftware,KiCad,Pcbnew,5.1.10-88a1d61d58~88~ubuntu18.04.1*%
%TF.CreationDate,2021-08-09T12:07:12+05:30*%
%TF.ProjectId,dhadak,64686164-616b-42e6-9b69-6361645f7063,1*%
%TF.SameCoordinates,Original*%
%TF.FileFunction,Soldermask,Top*%
%TF.FilePolarity,Negative*%
%FSLAX46Y46*%
G04 Gerber Fmt 4.6, Leading zero omitted, Abs format (unit mm)*
G04 Created by KiCad (PCBNEW 5.1.10-88a1d61d58~88~ubuntu18.04.1) date 2021-08-09 12:07:12*
%MOMM*%
%LPD*%
G01*
G04 APERTURE LIST*
%ADD10R,1.000000X1.000000*%
%ADD11O,1.700000X1.700000*%
%ADD12C,1.700000*%
%ADD13R,1.700000X1.700000*%
%ADD14R,1.350000X1.350000*%
%ADD15O,1.350000X1.350000*%
%ADD16R,0.900000X0.800000*%
%ADD17C,2.000000*%
%ADD18R,1.600000X0.550000*%
%ADD19R,0.550000X1.600000*%
G04 APERTURE END LIST*
%TO.C,C8*%
G36*
G01*
X121201200Y-119006200D02*
X120251200Y-119006200D01*
G75*
G02*
X120001200Y-118756200I0J250000D01*
G01*
X120001200Y-118256200D01*
G75*
G02*
X120251200Y-118006200I250000J0D01*
G01*
X121201200Y-118006200D01*
G75*
G02*
X121451200Y-118256200I0J-250000D01*
G01*
X121451200Y-118756200D01*
G75*
G02*
X121201200Y-119006200I-250000J0D01*
G01*
G37*
G36*
G01*
X121201200Y-120906200D02*
X120251200Y-120906200D01*
G75*
G02*
X120001200Y-120656200I0J250000D01*
G01*
X120001200Y-120156200D01*
G75*
G02*
X120251200Y-119906200I250000J0D01*
G01*
X121201200Y-119906200D01*
G75*
G02*
X121451200Y-120156200I0J-250000D01*
G01*
X121451200Y-120656200D01*
G75*
G02*
X121201200Y-120906200I-250000J0D01*
G01*
G37*
%TD*%
D10*
%TO.C,TP14*%
X142748000Y-113030000D03*
%TD*%
%TO.C,TP11*%
X119634000Y-113030000D03*
%TD*%
%TO.C,TP10*%
X119634000Y-101473000D03*
%TD*%
%TO.C,TP13*%
X123317000Y-113538000D03*
%TD*%
%TO.C,TP12*%
X139319000Y-113665000D03*
%TD*%
D11*
%TO.C,J2*%
X120015000Y-92583000D03*
X122555000Y-92583000D03*
X125095000Y-92583000D03*
D12*
X127635000Y-92583000D03*
%TD*%
%TO.C,J4*%
X131445000Y-92583000D03*
D11*
X133985000Y-92583000D03*
X136525000Y-92583000D03*
X139065000Y-92583000D03*
X141605000Y-92583000D03*
%TD*%
%TO.C,R3*%
G36*
G01*
X138107000Y-101106000D02*
X137737000Y-101106000D01*
G75*
G02*
X137602000Y-100971000I0J135000D01*
G01*
X137602000Y-100701000D01*
G75*
G02*
X137737000Y-100566000I135000J0D01*
G01*
X138107000Y-100566000D01*
G75*
G02*
X138242000Y-100701000I0J-135000D01*
G01*
X138242000Y-100971000D01*
G75*
G02*
X138107000Y-101106000I-135000J0D01*
G01*
G37*
G36*
G01*
X138107000Y-102126000D02*
X137737000Y-102126000D01*
G75*
G02*
X137602000Y-101991000I0J135000D01*
G01*
X137602000Y-101721000D01*
G75*
G02*
X137737000Y-101586000I135000J0D01*
G01*
X138107000Y-101586000D01*
G75*
G02*
X138242000Y-101721000I0J-135000D01*
G01*
X138242000Y-101991000D01*
G75*
G02*
X138107000Y-102126000I-135000J0D01*
G01*
G37*
%TD*%
%TO.C,R13*%
G36*
G01*
X121089000Y-122190000D02*
X120719000Y-122190000D01*
G75*
G02*
X120584000Y-122055000I0J135000D01*
G01*
X120584000Y-121785000D01*
G75*
G02*
X120719000Y-121650000I135000J0D01*
G01*
X121089000Y-121650000D01*
G75*
G02*
X121224000Y-121785000I0J-135000D01*
G01*
X121224000Y-122055000D01*
G75*
G02*
X121089000Y-122190000I-135000J0D01*
G01*
G37*
G36*
G01*
X121089000Y-123210000D02*
X120719000Y-123210000D01*
G75*
G02*
X120584000Y-123075000I0J135000D01*
G01*
X120584000Y-122805000D01*
G75*
G02*
X120719000Y-122670000I135000J0D01*
G01*
X121089000Y-122670000D01*
G75*
G02*
X121224000Y-122805000I0J-135000D01*
G01*
X121224000Y-123075000D01*
G75*
G02*
X121089000Y-123210000I-135000J0D01*
G01*
G37*
%TD*%
%TO.C,R12*%
G36*
G01*
X123375000Y-122186000D02*
X123005000Y-122186000D01*
G75*
G02*
X122870000Y-122051000I0J135000D01*
G01*
X122870000Y-121781000D01*
G75*
G02*
X123005000Y-121646000I135000J0D01*
G01*
X123375000Y-121646000D01*
G75*
G02*
X123510000Y-121781000I0J-135000D01*
G01*
X123510000Y-122051000D01*
G75*
G02*
X123375000Y-122186000I-135000J0D01*
G01*
G37*
G36*
G01*
X123375000Y-123206000D02*
X123005000Y-123206000D01*
G75*
G02*
X122870000Y-123071000I0J135000D01*
G01*
X122870000Y-122801000D01*
G75*
G02*
X123005000Y-122666000I135000J0D01*
G01*
X123375000Y-122666000D01*
G75*
G02*
X123510000Y-122801000I0J-135000D01*
G01*
X123510000Y-123071000D01*
G75*
G02*
X123375000Y-123206000I-135000J0D01*
G01*
G37*
%TD*%
%TO.C,R11*%
G36*
G01*
X142806000Y-119906000D02*
X142436000Y-119906000D01*
G75*
G02*
X142301000Y-119771000I0J135000D01*
G01*
X142301000Y-119501000D01*
G75*
G02*
X142436000Y-119366000I135000J0D01*
G01*
X142806000Y-119366000D01*
G75*
G02*
X142941000Y-119501000I0J-135000D01*
G01*
X142941000Y-119771000D01*
G75*
G02*
X142806000Y-119906000I-135000J0D01*
G01*
G37*
G36*
G01*
X142806000Y-118886000D02*
X142436000Y-118886000D01*
G75*
G02*
X142301000Y-118751000I0J135000D01*
G01*
X142301000Y-118481000D01*
G75*
G02*
X142436000Y-118346000I135000J0D01*
G01*
X142806000Y-118346000D01*
G75*
G02*
X142941000Y-118481000I0J-135000D01*
G01*
X142941000Y-118751000D01*
G75*
G02*
X142806000Y-118886000I-135000J0D01*
G01*
G37*
%TD*%
%TO.C,R10*%
G36*
G01*
X142436000Y-125337000D02*
X142806000Y-125337000D01*
G75*
G02*
X142941000Y-125472000I0J-135000D01*
G01*
X142941000Y-125742000D01*
G75*
G02*
X142806000Y-125877000I-135000J0D01*
G01*
X142436000Y-125877000D01*
G75*
G02*
X142301000Y-125742000I0J135000D01*
G01*
X142301000Y-125472000D01*
G75*
G02*
X142436000Y-125337000I135000J0D01*
G01*
G37*
G36*
G01*
X142436000Y-124317000D02*
X142806000Y-124317000D01*
G75*
G02*
X142941000Y-124452000I0J-135000D01*
G01*
X142941000Y-124722000D01*
G75*
G02*
X142806000Y-124857000I-135000J0D01*
G01*
X142436000Y-124857000D01*
G75*
G02*
X142301000Y-124722000I0J135000D01*
G01*
X142301000Y-124452000D01*
G75*
G02*
X142436000Y-124317000I135000J0D01*
G01*
G37*
%TD*%
%TO.C,R9*%
G36*
G01*
X142436000Y-122287000D02*
X142806000Y-122287000D01*
G75*
G02*
X142941000Y-122422000I0J-135000D01*
G01*
X142941000Y-122692000D01*
G75*
G02*
X142806000Y-122827000I-135000J0D01*
G01*
X142436000Y-122827000D01*
G75*
G02*
X142301000Y-122692000I0J135000D01*
G01*
X142301000Y-122422000D01*
G75*
G02*
X142436000Y-122287000I135000J0D01*
G01*
G37*
G36*
G01*
X142436000Y-121267000D02*
X142806000Y-121267000D01*
G75*
G02*
X142941000Y-121402000I0J-135000D01*
G01*
X142941000Y-121672000D01*
G75*
G02*
X142806000Y-121807000I-135000J0D01*
G01*
X142436000Y-121807000D01*
G75*
G02*
X142301000Y-121672000I0J135000D01*
G01*
X142301000Y-121402000D01*
G75*
G02*
X142436000Y-121267000I135000J0D01*
G01*
G37*
%TD*%
%TO.C,C7*%
G36*
G01*
X123390000Y-119296000D02*
X123390000Y-118956000D01*
G75*
G02*
X123530000Y-118816000I140000J0D01*
G01*
X123810000Y-118816000D01*
G75*
G02*
X123950000Y-118956000I0J-140000D01*
G01*
X123950000Y-119296000D01*
G75*
G02*
X123810000Y-119436000I-140000J0D01*
G01*
X123530000Y-119436000D01*
G75*
G02*
X123390000Y-119296000I0J140000D01*
G01*
G37*
G36*
G01*
X122430000Y-119296000D02*
X122430000Y-118956000D01*
G75*
G02*
X122570000Y-118816000I140000J0D01*
G01*
X122850000Y-118816000D01*
G75*
G02*
X122990000Y-118956000I0J-140000D01*
G01*
X122990000Y-119296000D01*
G75*
G02*
X122850000Y-119436000I-140000J0D01*
G01*
X122570000Y-119436000D01*
G75*
G02*
X122430000Y-119296000I0J140000D01*
G01*
G37*
%TD*%
%TO.C,C2*%
G36*
G01*
X136990000Y-109420000D02*
X137330000Y-109420000D01*
G75*
G02*
X137470000Y-109560000I0J-140000D01*
G01*
X137470000Y-109840000D01*
G75*
G02*
X137330000Y-109980000I-140000J0D01*
G01*
X136990000Y-109980000D01*
G75*
G02*
X136850000Y-109840000I0J140000D01*
G01*
X136850000Y-109560000D01*
G75*
G02*
X136990000Y-109420000I140000J0D01*
G01*
G37*
G36*
G01*
X136990000Y-108460000D02*
X137330000Y-108460000D01*
G75*
G02*
X137470000Y-108600000I0J-140000D01*
G01*
X137470000Y-108880000D01*
G75*
G02*
X137330000Y-109020000I-140000J0D01*
G01*
X136990000Y-109020000D01*
G75*
G02*
X136850000Y-108880000I0J140000D01*
G01*
X136850000Y-108600000D01*
G75*
G02*
X136990000Y-108460000I140000J0D01*
G01*
G37*
%TD*%
%TO.C,C1*%
G36*
G01*
X131419000Y-101770000D02*
X131419000Y-101430000D01*
G75*
G02*
X131559000Y-101290000I140000J0D01*
G01*
X131839000Y-101290000D01*
G75*
G02*
X131979000Y-101430000I0J-140000D01*
G01*
X131979000Y-101770000D01*
G75*
G02*
X131839000Y-101910000I-140000J0D01*
G01*
X131559000Y-101910000D01*
G75*
G02*
X131419000Y-101770000I0J140000D01*
G01*
G37*
G36*
G01*
X130459000Y-101770000D02*
X130459000Y-101430000D01*
G75*
G02*
X130599000Y-101290000I140000J0D01*
G01*
X130879000Y-101290000D01*
G75*
G02*
X131019000Y-101430000I0J-140000D01*
G01*
X131019000Y-101770000D01*
G75*
G02*
X130879000Y-101910000I-140000J0D01*
G01*
X130599000Y-101910000D01*
G75*
G02*
X130459000Y-101770000I0J140000D01*
G01*
G37*
%TD*%
%TO.C,J1*%
X143256000Y-101092000D03*
X143256000Y-103632000D03*
X143256000Y-106172000D03*
D13*
X143256000Y-108712000D03*
%TD*%
D14*
%TO.C,J3*%
X119126000Y-105410000D03*
D15*
X119126000Y-103410000D03*
%TD*%
D16*
%TO.C,Q4*%
X137954000Y-118176000D03*
X137954000Y-120076000D03*
X139954000Y-119126000D03*
%TD*%
%TO.C,Q5*%
X137922000Y-123764000D03*
X137922000Y-125664000D03*
X139922000Y-124714000D03*
%TD*%
%TO.C,Q6*%
X122444000Y-124526000D03*
X122444000Y-126426000D03*
X124444000Y-125476000D03*
%TD*%
D17*
%TO.C,SW1*%
X127612000Y-126238000D03*
X127612000Y-121738000D03*
X134112000Y-126238000D03*
X134112000Y-121738000D03*
%TD*%
D10*
%TO.C,TP1*%
X135763000Y-116332000D03*
%TD*%
%TO.C,TP2*%
X129540000Y-116332000D03*
%TD*%
%TO.C,TP3*%
X132715000Y-116332000D03*
%TD*%
%TO.C,TP4*%
X126365000Y-116332000D03*
%TD*%
%TO.C,TP5*%
X119634000Y-95885000D03*
%TD*%
%TO.C,TP6*%
X119634000Y-98679000D03*
%TD*%
%TO.C,TP7*%
X123317000Y-105283000D03*
%TD*%
%TO.C,TP8*%
X139319000Y-104775000D03*
%TD*%
%TO.C,TP9*%
X123317000Y-101473000D03*
%TD*%
D18*
%TO.C,U1*%
X126941000Y-104769000D03*
X126941000Y-105569000D03*
X126941000Y-106369000D03*
X126941000Y-107169000D03*
X126941000Y-107969000D03*
X126941000Y-108769000D03*
X126941000Y-109569000D03*
X126941000Y-110369000D03*
D19*
X128391000Y-111819000D03*
X129191000Y-111819000D03*
X129991000Y-111819000D03*
X130791000Y-111819000D03*
X131591000Y-111819000D03*
X132391000Y-111819000D03*
X133191000Y-111819000D03*
X133991000Y-111819000D03*
D18*
X135441000Y-110369000D03*
X135441000Y-109569000D03*
X135441000Y-108769000D03*
X135441000Y-107969000D03*
X135441000Y-107169000D03*
X135441000Y-106369000D03*
X135441000Y-105569000D03*
X135441000Y-104769000D03*
D19*
X133991000Y-103319000D03*
X133191000Y-103319000D03*
X132391000Y-103319000D03*
X131591000Y-103319000D03*
X130791000Y-103319000D03*
X129991000Y-103319000D03*
X129191000Y-103319000D03*
X128391000Y-103319000D03*
%TD*%
M02*
