M48
; DRILL file {KiCad 5.1.10-88a1d61d58~88~ubuntu18.04.1} date Mon Aug  9 12:07:14 2021
; FORMAT={-:-/ absolute / inch / decimal}
; #@! TF.CreationDate,2021-08-09T12:07:14+05:30
; #@! TF.GenerationSoftware,Kicad,Pcbnew,5.1.10-88a1d61d58~88~ubuntu18.04.1
FMAT,2
INCH
T1C0.0157
T2C0.0315
T3C0.0394
T4C0.0433
%
G90
G05
T1
X4.6749Y-4.24
X4.705Y-4.95
X4.8311Y-4.69
X4.8494Y-4.53
X4.85Y-4.7998
X4.855Y-3.995
X4.8749Y-3.8303
X4.8774Y-4.23
X4.88Y-3.885
X4.8899Y-4.83
X4.945Y-3.76
X5.02Y-4.405
X5.035Y-4.645
X5.1Y-4.775
X5.1173Y-3.845
X5.1472Y-4.0
X5.1687Y-4.29
X5.17Y-4.655
X5.175Y-4.14
X5.225Y-4.475
X5.24Y-4.125
X5.255Y-4.2
X5.3Y-4.6399
X5.305Y-4.895
X5.32Y-3.78
X5.32Y-4.04
X5.34Y-4.415
X5.37Y-4.085
X5.38Y-4.745
X5.43Y-4.235
X5.485Y-4.275
X5.495Y-4.965
X5.545Y-4.61
X5.55Y-4.48
X5.57Y-4.29
X5.58Y-4.125
X5.615Y-4.7049
X5.6651Y-4.3799
X5.6685Y-4.7735
T2
X4.69Y-4.0713
X4.69Y-4.15
T3
X4.725Y-3.645
X4.825Y-3.645
X4.925Y-3.645
X5.025Y-3.645
X5.175Y-3.645
X5.275Y-3.645
X5.375Y-3.645
X5.475Y-3.645
X5.575Y-3.645
X5.64Y-3.98
X5.64Y-4.08
X5.64Y-4.18
X5.64Y-4.28
T4
X5.0241Y-4.7928
X5.0241Y-4.97
X5.28Y-4.7928
X5.28Y-4.97
T0
M30
